<?xml version="1.0" encoding="UTF-8" standalone="no" ?>
<!DOCTYPE svg PUBLIC "-//W3C//DTD SVG 1.1//EN" "http://www.w3.org/Graphics/SVG/1.1/DTD/svg11.dtd">
<svg xmlns="http://www.w3.org/2000/svg" xmlns:xlink="http://www.w3.org/1999/xlink" version="1.1" width="1120" height="292" viewBox="0 0 1120 292" xml:space="preserve">
<desc>Created with Fabric.js 5.2.4</desc>
<defs>
</defs>
<rect x="0" y="0" width="100%" height="100%" fill="transparent"></rect>
<g transform="matrix(1 0 0 1 560 146)" id="52e80553-86d6-4b4b-8b66-2b14019e3236"  >
<rect style="stroke: none; stroke-width: 1; stroke-dasharray: none; stroke-linecap: butt; stroke-dashoffset: 0; stroke-linejoin: miter; stroke-miterlimit: 4; fill: rgb(255,255,255); fill-rule: nonzero; opacity: 1; visibility: hidden;" vector-effect="non-scaling-stroke"  x="-560" y="-146" rx="0" ry="0" width="1120" height="292" />
</g>
<g transform="matrix(Infinity NaN NaN Infinity 0 0)" id="d05bc88e-6954-4eb4-b3d5-1cbf57e8b247"  >
</g>
<g transform="matrix(0 0 NaN NaN 1152.45 0)"  >
<g style=""   >
</g>
</g>
<g transform="matrix(0 0 NaN NaN 1152.45 0)"  >
<g style=""   >
</g>
</g>
<g transform="matrix(0 0 NaN NaN 1152.45 0)"  >
<g style=""   >
</g>
</g>
<g transform="matrix(1 0 0 0.99 560 146)"  >
<g style=""   >
		<g transform="matrix(1 0 0 1 0 -0.3)"  >
<path style="stroke: none; stroke-width: 1; stroke-dasharray: none; stroke-linecap: butt; stroke-dashoffset: 0; stroke-linejoin: miter; stroke-miterlimit: 4; fill: rgb(250,114,104); fill-rule: nonzero; opacity: 1;" vector-effect="non-scaling-stroke"  transform=" translate(-560, -145.7)" d="M 0 42.163 C 0 22.7714 18.8467 8.97087 37.3333 14.8256 L 37.3333 14.8256 C 74.6667 26.5386 149.333 50.1856 224 73.7221 C 298.667 97.2586 373.333 120.906 448 114.939 C 522.667 109.082 597.333 73.7221 672 46.6496 C 746.667 19.5771 821.333 0.792088 896 0.0185879 C 970.667 -0.644412 1045.33 16.5936 1082.67 25.3231 L 1082.67 25.3231 C 1104.52 30.3684 1120 49.829 1120 72.2574 L 1120 254.074 C 1120 274.692 1103.29 291.407 1082.67 291.407 L 1082.67 291.407 C 1045.33 291.407 970.667 291.407 896 291.407 C 821.333 291.407 746.667 291.407 672 291.407 C 597.333 291.407 522.667 291.407 448 291.407 C 373.333 291.407 298.667 291.407 224 291.407 C 149.333 291.407 74.6667 291.407 37.3333 291.407 L 37.3333 291.407 C 16.7147 291.407 0 274.692 0 254.074 L 0 42.163 Z" stroke-linecap="round" />
</g>
		<g transform="matrix(1 0 0 1 0 35.61)"  >
<path style="stroke: none; stroke-width: 1; stroke-dasharray: none; stroke-linecap: butt; stroke-dashoffset: 0; stroke-linejoin: miter; stroke-miterlimit: 4; fill: rgb(209,70,88); fill-rule: nonzero; opacity: 1;" vector-effect="non-scaling-stroke"  transform=" translate(-560, -181.6)" d="M 0 197.905 C 0 178.646 19.4484 165.473 37.3333 172.62 L 37.3333 172.62 C 74.6667 187.537 149.333 217.372 224 212.621 C 298.667 207.759 373.333 168.421 448 135.823 C 522.667 103.226 597.333 77.3686 672 72.6171 C 746.667 67.8656 821.333 83.9986 896 113.834 C 970.667 143.669 1045.33 187.206 1082.67 208.864 L 1100.84 219.462 C 1112.71 226.379 1120 239.076 1120 252.807 L 1120 254.074 C 1120 274.692 1103.29 291.407 1082.67 291.407 L 1082.67 291.407 C 1045.33 291.407 970.667 291.407 896 291.407 C 821.333 291.407 746.667 291.407 672 291.407 C 597.333 291.407 522.667 291.407 448 291.407 C 373.333 291.407 298.667 291.407 224 291.407 C 149.333 291.407 74.6667 291.407 37.3333 291.407 L 37.3333 291.407 C 16.7147 291.407 0 274.692 0 254.074 L 0 197.905 Z" stroke-linecap="round" />
</g>
		<g transform="matrix(1 0 0 1 0 75.53)"  >
<path style="stroke: none; stroke-width: 1; stroke-dasharray: none; stroke-linecap: butt; stroke-dashoffset: 0; stroke-linejoin: miter; stroke-miterlimit: 4; fill: rgb(166,19,72); fill-rule: nonzero; opacity: 1;" vector-effect="non-scaling-stroke"  transform=" translate(-560, -221.53)" d="M 0 179.64 C 0 160.318 19.1252 146.815 37.3333 153.282 L 37.3333 153.282 C 74.6667 166.542 149.333 193.062 224 194.167 C 298.667 195.272 373.333 170.962 448 169.525 C 522.667 167.978 597.333 189.415 672 186.653 C 746.667 183.89 821.333 156.928 896 164.884 C 970.667 172.84 1045.33 215.493 1082.67 236.93 L 1109.43 252.218 C 1115.97 255.952 1120 262.903 1120 270.431 L 1120 270.431 C 1120 282.016 1110.61 291.407 1099.02 291.407 L 1082.67 291.407 C 1045.33 291.407 970.667 291.407 896 291.407 C 821.333 291.407 746.667 291.407 672 291.407 C 597.333 291.407 522.667 291.407 448 291.407 C 373.333 291.407 298.667 291.407 224 291.407 C 149.333 291.407 74.6667 291.407 37.3333 291.407 L 37.3333 291.407 C 16.7147 291.407 0 274.692 0 254.074 L 0 179.64 Z" stroke-linecap="round" />
</g>
</g>
</g>
</svg>