<svg width="1277" height="162" viewBox="0 0 1277 162" fill="none" xmlns="http://www.w3.org/2000/svg">
<rect y="95" width="1020" height="59" fill="#0D1117"/>
<path d="M0 24C0 10.7452 10.7452 0 24 0H1253C1266.25 0 1277 10.7452 1277 24V96H0V24Z" fill="url(#paint0_linear_0_1)"/>
<path d="M863 38H1277V154H921C888.967 154 863 128.033 863 96V38Z" fill="url(#paint1_linear_0_1)"/>
<path d="M814.98 91H897.98V125H814.98V91Z" fill="url(#paint2_linear_0_1)"/>
<path d="M722.5 125C722.5 108.984 735.484 96 751.5 96H820.5C852.533 96 878.5 121.967 878.5 154H751.5C735.484 154 722.5 141.016 722.5 125Z" fill="#0D1117"/>
<path d="M29.0696 117.455V132H26.4347V117.455H29.0696ZM39.9094 132.22C39.2182 132.22 38.5955 132.097 38.0415 131.851C37.4923 131.6 37.0567 131.231 36.7347 130.743C36.4175 130.255 36.2589 129.654 36.2589 128.939C36.2589 128.323 36.3725 127.814 36.5998 127.412C36.8271 127.009 37.1372 126.688 37.5302 126.446C37.9232 126.205 38.3659 126.022 38.8583 125.899C39.3555 125.771 39.8692 125.679 40.3995 125.622C41.0387 125.556 41.5572 125.497 41.9549 125.445C42.3526 125.388 42.6415 125.303 42.8214 125.189C43.006 125.071 43.0984 124.888 43.0984 124.642V124.599C43.0984 124.064 42.9397 123.65 42.6225 123.357C42.3053 123.063 41.8484 122.916 41.2518 122.916C40.622 122.916 40.1225 123.054 39.7532 123.328C39.3886 123.603 39.1424 123.927 39.0146 124.301L36.614 123.96C36.8034 123.297 37.1159 122.743 37.5515 122.298C37.9871 121.848 38.5198 121.512 39.1495 121.29C39.7792 121.062 40.4753 120.949 41.2376 120.949C41.7631 120.949 42.2863 121.01 42.8072 121.134C43.328 121.257 43.8039 121.46 44.2347 121.744C44.6656 122.024 45.0112 122.405 45.2717 122.888C45.5368 123.371 45.6694 123.974 45.6694 124.699V132H43.1978V130.501H43.1126C42.9563 130.804 42.7362 131.089 42.4521 131.354C42.1727 131.614 41.82 131.825 41.3938 131.986C40.9724 132.142 40.4776 132.22 39.9094 132.22ZM40.5771 130.331C41.0932 130.331 41.5406 130.229 41.9194 130.026C42.2982 129.817 42.5894 129.543 42.793 129.202C43.0013 128.861 43.1055 128.489 43.1055 128.087V126.801C43.025 126.867 42.8877 126.929 42.6935 126.986C42.5041 127.043 42.2911 127.092 42.0543 127.135C41.8176 127.178 41.5832 127.215 41.3512 127.249C41.1192 127.282 40.918 127.31 40.7475 127.334C40.364 127.386 40.0207 127.471 39.7177 127.589C39.4147 127.708 39.1755 127.874 39.0004 128.087C38.8252 128.295 38.7376 128.565 38.7376 128.896C38.7376 129.37 38.9104 129.727 39.256 129.969C39.6017 130.21 40.042 130.331 40.5771 130.331ZM48.2546 132V121.091H50.712V122.945H50.8398C51.0671 122.32 51.4435 121.832 51.9691 121.482C52.4947 121.126 53.122 120.949 53.8512 120.949C54.5898 120.949 55.2125 121.129 55.7191 121.489C56.2305 121.844 56.5903 122.329 56.7987 122.945H56.9123C57.1538 122.339 57.561 121.856 58.1339 121.496C58.7115 121.131 59.3957 120.949 60.1864 120.949C61.1902 120.949 62.0094 121.266 62.6438 121.901C63.2783 122.535 63.5955 123.461 63.5955 124.678V132H61.0174V125.075C61.0174 124.398 60.8375 123.903 60.4776 123.591C60.1178 123.274 59.6774 123.115 59.1566 123.115C58.5363 123.115 58.051 123.309 57.7006 123.697C57.355 124.081 57.1822 124.58 57.1822 125.196V132H54.6609V124.969C54.6609 124.405 54.4904 123.955 54.1495 123.619C53.8133 123.283 53.373 123.115 52.8285 123.115C52.4592 123.115 52.123 123.21 51.82 123.399C51.5169 123.584 51.2754 123.847 51.0955 124.188C50.9156 124.524 50.8256 124.917 50.8256 125.366V132H48.2546ZM74.304 132.22C73.6127 132.22 72.9901 132.097 72.4361 131.851C71.8868 131.6 71.4512 131.231 71.1293 130.743C70.812 130.255 70.6534 129.654 70.6534 128.939C70.6534 128.323 70.767 127.814 70.9943 127.412C71.2216 127.009 71.5317 126.688 71.9247 126.446C72.3177 126.205 72.7604 126.022 73.2528 125.899C73.75 125.771 74.2637 125.679 74.794 125.622C75.4332 125.556 75.9517 125.497 76.3494 125.445C76.7472 125.388 77.036 125.303 77.2159 125.189C77.4006 125.071 77.4929 124.888 77.4929 124.642V124.599C77.4929 124.064 77.3343 123.65 77.017 123.357C76.6998 123.063 76.2429 122.916 75.6463 122.916C75.0166 122.916 74.517 123.054 74.1477 123.328C73.7831 123.603 73.5369 123.927 73.4091 124.301L71.0085 123.96C71.1979 123.297 71.5104 122.743 71.946 122.298C72.3816 121.848 72.9143 121.512 73.544 121.29C74.1738 121.062 74.8698 120.949 75.6321 120.949C76.1577 120.949 76.6809 121.01 77.2017 121.134C77.7225 121.257 78.1984 121.46 78.6293 121.744C79.0601 122.024 79.4058 122.405 79.6662 122.888C79.9313 123.371 80.0639 123.974 80.0639 124.699V132H77.5923V130.501H77.5071C77.3509 130.804 77.1307 131.089 76.8466 131.354C76.5672 131.614 76.2145 131.825 75.7884 131.986C75.367 132.142 74.8722 132.22 74.304 132.22ZM74.9716 130.331C75.4877 130.331 75.9351 130.229 76.3139 130.026C76.6927 129.817 76.9839 129.543 77.1875 129.202C77.3958 128.861 77.5 128.489 77.5 128.087V126.801C77.4195 126.867 77.2822 126.929 77.0881 126.986C76.8987 127.043 76.6856 127.092 76.4489 127.135C76.2121 127.178 75.9777 127.215 75.7457 127.249C75.5137 127.282 75.3125 127.31 75.142 127.334C74.7585 127.386 74.4152 127.471 74.1122 127.589C73.8092 127.708 73.5701 127.874 73.3949 128.087C73.2197 128.295 73.1321 128.565 73.1321 128.896C73.1321 129.37 73.3049 129.727 73.6506 129.969C73.9962 130.21 74.4366 130.331 74.9716 130.331ZM85.2202 125.608V132H82.6491V121.091H85.1065V122.945H85.2344C85.4853 122.334 85.8854 121.848 86.4347 121.489C86.9886 121.129 87.6728 120.949 88.4872 120.949C89.2401 120.949 89.8958 121.11 90.4545 121.432C91.018 121.754 91.4536 122.22 91.7614 122.831C92.0739 123.442 92.2277 124.183 92.223 125.054V132H89.652V125.452C89.652 124.723 89.4626 124.152 89.0838 123.74C88.7098 123.328 88.1913 123.122 87.5284 123.122C87.0786 123.122 86.6785 123.222 86.3281 123.42C85.9825 123.615 85.7102 123.896 85.5114 124.266C85.3172 124.635 85.2202 125.082 85.2202 125.608ZM102.937 132.22C102.246 132.22 101.623 132.097 101.069 131.851C100.52 131.6 100.084 131.231 99.7621 130.743C99.4448 130.255 99.2862 129.654 99.2862 128.939C99.2862 128.323 99.3999 127.814 99.6271 127.412C99.8544 127.009 100.165 126.688 100.558 126.446C100.951 126.205 101.393 126.022 101.886 125.899C102.383 125.771 102.897 125.679 103.427 125.622C104.066 125.556 104.585 125.497 104.982 125.445C105.38 125.388 105.669 125.303 105.849 125.189C106.033 125.071 106.126 124.888 106.126 124.642V124.599C106.126 124.064 105.967 123.65 105.65 123.357C105.333 123.063 104.876 122.916 104.279 122.916C103.649 122.916 103.15 123.054 102.781 123.328C102.416 123.603 102.17 123.927 102.042 124.301L99.6413 123.96C99.8307 123.297 100.143 122.743 100.579 122.298C101.014 121.848 101.547 121.512 102.177 121.29C102.807 121.062 103.503 120.949 104.265 120.949C104.79 120.949 105.314 121.01 105.835 121.134C106.355 121.257 106.831 121.46 107.262 121.744C107.693 122.024 108.039 122.405 108.299 122.888C108.564 123.371 108.697 123.974 108.697 124.699V132H106.225V130.501H106.14C105.984 130.804 105.763 131.089 105.479 131.354C105.2 131.614 104.847 131.825 104.421 131.986C104 132.142 103.505 132.22 102.937 132.22ZM103.604 130.331C104.121 130.331 104.568 130.229 104.947 130.026C105.326 129.817 105.617 129.543 105.82 129.202C106.029 128.861 106.133 128.489 106.133 128.087V126.801C106.052 126.867 105.915 126.929 105.721 126.986C105.531 127.043 105.318 127.092 105.082 127.135C104.845 127.178 104.611 127.215 104.379 127.249C104.147 127.282 103.945 127.31 103.775 127.334C103.391 127.386 103.048 127.471 102.745 127.589C102.442 127.708 102.203 127.874 102.028 128.087C101.853 128.295 101.765 128.565 101.765 128.896C101.765 129.37 101.938 129.727 102.283 129.969C102.629 130.21 103.069 130.331 103.604 130.331ZM119.904 123.974L117.56 124.23C117.494 123.993 117.378 123.771 117.212 123.562C117.051 123.354 116.834 123.186 116.559 123.058C116.284 122.93 115.948 122.866 115.55 122.866C115.015 122.866 114.566 122.982 114.201 123.214C113.841 123.446 113.664 123.747 113.668 124.116C113.664 124.434 113.78 124.692 114.016 124.891C114.258 125.089 114.656 125.253 115.21 125.381L117.07 125.778C118.103 126.001 118.87 126.354 119.371 126.837C119.878 127.32 120.134 127.952 120.138 128.733C120.134 129.42 119.933 130.026 119.535 130.551C119.142 131.072 118.595 131.479 117.894 131.773C117.193 132.066 116.388 132.213 115.479 132.213C114.144 132.213 113.069 131.934 112.255 131.375C111.441 130.812 110.955 130.028 110.799 129.024L113.306 128.783C113.42 129.275 113.661 129.647 114.031 129.898C114.4 130.149 114.88 130.274 115.472 130.274C116.083 130.274 116.573 130.149 116.942 129.898C117.317 129.647 117.504 129.337 117.504 128.967C117.504 128.655 117.383 128.397 117.141 128.193C116.905 127.99 116.535 127.833 116.033 127.724L114.173 127.334C113.126 127.116 112.352 126.749 111.85 126.233C111.348 125.712 111.1 125.054 111.104 124.259C111.1 123.586 111.282 123.004 111.651 122.511C112.025 122.014 112.544 121.631 113.207 121.361C113.874 121.086 114.644 120.949 115.515 120.949C116.793 120.949 117.799 121.221 118.533 121.766C119.272 122.31 119.729 123.046 119.904 123.974ZM122.259 136.091V121.091H124.787V122.895H124.936C125.069 122.63 125.256 122.348 125.497 122.05C125.739 121.747 126.065 121.489 126.477 121.276C126.889 121.058 127.415 120.949 128.054 120.949C128.897 120.949 129.657 121.164 130.334 121.595C131.016 122.021 131.555 122.653 131.953 123.491C132.356 124.325 132.557 125.348 132.557 126.56C132.557 127.758 132.36 128.776 131.967 129.614C131.574 130.452 131.039 131.091 130.362 131.531C129.685 131.972 128.918 132.192 128.061 132.192C127.436 132.192 126.918 132.088 126.506 131.879C126.094 131.671 125.762 131.42 125.511 131.126C125.265 130.828 125.073 130.546 124.936 130.281H124.83V136.091H122.259ZM124.78 126.545C124.78 127.251 124.879 127.869 125.078 128.399C125.282 128.929 125.573 129.344 125.952 129.642C126.335 129.936 126.799 130.082 127.344 130.082C127.912 130.082 128.388 129.931 128.771 129.628C129.155 129.32 129.444 128.901 129.638 128.371C129.837 127.836 129.936 127.227 129.936 126.545C129.936 125.868 129.839 125.267 129.645 124.741C129.451 124.216 129.162 123.804 128.778 123.506C128.395 123.207 127.917 123.058 127.344 123.058C126.795 123.058 126.328 123.203 125.945 123.491C125.561 123.78 125.27 124.185 125.071 124.706C124.877 125.227 124.78 125.84 124.78 126.545ZM134.759 132V121.091H137.33V132H134.759ZM136.051 119.543C135.644 119.543 135.294 119.408 135 119.138C134.706 118.863 134.56 118.534 134.56 118.151C134.56 117.762 134.706 117.433 135 117.163C135.294 116.889 135.644 116.751 136.051 116.751C136.463 116.751 136.813 116.889 137.102 117.163C137.396 117.433 137.543 117.762 137.543 118.151C137.543 118.534 137.396 118.863 137.102 119.138C136.813 119.408 136.463 119.543 136.051 119.543ZM139.973 132V121.091H142.466V122.909H142.58C142.779 122.279 143.12 121.794 143.603 121.453C144.09 121.107 144.647 120.935 145.272 120.935C145.414 120.935 145.572 120.942 145.748 120.956C145.927 120.965 146.077 120.982 146.195 121.006V123.371C146.086 123.333 145.913 123.3 145.676 123.271C145.444 123.238 145.22 123.222 145.002 123.222C144.533 123.222 144.112 123.323 143.738 123.527C143.368 123.726 143.077 124.003 142.864 124.358C142.651 124.713 142.544 125.123 142.544 125.587V132H139.973ZM147.903 132V121.091H150.474V132H147.903ZM149.196 119.543C148.788 119.543 148.438 119.408 148.145 119.138C147.851 118.863 147.704 118.534 147.704 118.151C147.704 117.762 147.851 117.433 148.145 117.163C148.438 116.889 148.788 116.751 149.196 116.751C149.608 116.751 149.958 116.889 150.247 117.163C150.54 117.433 150.687 117.762 150.687 118.151C150.687 118.534 150.54 118.863 150.247 119.138C149.958 119.408 149.608 119.543 149.196 119.543ZM155.689 125.608V132H153.118V121.091H155.575V122.945H155.703C155.954 122.334 156.354 121.848 156.903 121.489C157.457 121.129 158.142 120.949 158.956 120.949C159.709 120.949 160.365 121.11 160.923 121.432C161.487 121.754 161.922 122.22 162.23 122.831C162.543 123.442 162.696 124.183 162.692 125.054V132H160.121V125.452C160.121 124.723 159.931 124.152 159.553 123.74C159.179 123.328 158.66 123.122 157.997 123.122C157.547 123.122 157.147 123.222 156.797 123.42C156.451 123.615 156.179 123.896 155.98 124.266C155.786 124.635 155.689 125.082 155.689 125.608ZM170.05 136.318C169.126 136.318 168.333 136.193 167.67 135.942C167.008 135.696 166.475 135.364 166.072 134.947C165.67 134.531 165.391 134.069 165.234 133.562L167.55 133.001C167.654 133.214 167.805 133.425 168.004 133.634C168.203 133.847 168.471 134.022 168.807 134.159C169.148 134.301 169.576 134.372 170.092 134.372C170.821 134.372 171.425 134.195 171.903 133.839C172.382 133.489 172.621 132.911 172.621 132.107V130.04H172.493C172.36 130.305 172.166 130.577 171.911 130.857C171.66 131.136 171.326 131.37 170.909 131.56C170.497 131.749 169.979 131.844 169.354 131.844C168.516 131.844 167.756 131.647 167.074 131.254C166.397 130.857 165.857 130.265 165.455 129.479C165.057 128.688 164.858 127.698 164.858 126.51C164.858 125.312 165.057 124.301 165.455 123.477C165.857 122.649 166.399 122.021 167.081 121.595C167.763 121.164 168.523 120.949 169.361 120.949C170 120.949 170.526 121.058 170.938 121.276C171.354 121.489 171.686 121.747 171.932 122.05C172.178 122.348 172.365 122.63 172.493 122.895H172.635V121.091H175.17V132.178C175.17 133.11 174.948 133.882 174.503 134.493C174.058 135.104 173.449 135.561 172.678 135.864C171.906 136.167 171.03 136.318 170.05 136.318ZM170.071 129.827C170.616 129.827 171.08 129.694 171.463 129.429C171.847 129.164 172.138 128.783 172.337 128.286C172.536 127.788 172.635 127.192 172.635 126.496C172.635 125.809 172.536 125.208 172.337 124.692C172.143 124.176 171.854 123.776 171.47 123.491C171.091 123.203 170.625 123.058 170.071 123.058C169.498 123.058 169.02 123.207 168.636 123.506C168.253 123.804 167.964 124.214 167.77 124.734C167.576 125.25 167.479 125.838 167.479 126.496C167.479 127.163 167.576 127.748 167.77 128.25C167.969 128.747 168.26 129.135 168.643 129.415C169.032 129.689 169.508 129.827 170.071 129.827ZM182.88 132V117.455H185.451V122.895H185.558C185.69 122.63 185.877 122.348 186.119 122.05C186.36 121.747 186.687 121.489 187.099 121.276C187.511 121.058 188.036 120.949 188.675 120.949C189.518 120.949 190.278 121.164 190.955 121.595C191.637 122.021 192.177 122.653 192.575 123.491C192.977 124.325 193.178 125.348 193.178 126.56C193.178 127.758 192.982 128.776 192.589 129.614C192.196 130.452 191.661 131.091 190.984 131.531C190.307 131.972 189.54 132.192 188.683 132.192C188.058 132.192 187.539 132.088 187.127 131.879C186.715 131.671 186.384 131.42 186.133 131.126C185.887 130.828 185.695 130.546 185.558 130.281H185.408V132H182.88ZM185.401 126.545C185.401 127.251 185.501 127.869 185.7 128.399C185.903 128.929 186.194 129.344 186.573 129.642C186.957 129.936 187.421 130.082 187.965 130.082C188.533 130.082 189.009 129.931 189.393 129.628C189.776 129.32 190.065 128.901 190.259 128.371C190.458 127.836 190.558 127.227 190.558 126.545C190.558 125.868 190.46 125.267 190.266 124.741C190.072 124.216 189.783 123.804 189.4 123.506C189.016 123.207 188.538 123.058 187.965 123.058C187.416 123.058 186.95 123.203 186.566 123.491C186.183 123.78 185.891 124.185 185.692 124.706C185.498 125.227 185.401 125.84 185.401 126.545ZM198.503 132.22C197.812 132.22 197.189 132.097 196.635 131.851C196.086 131.6 195.65 131.231 195.328 130.743C195.011 130.255 194.853 129.654 194.853 128.939C194.853 128.323 194.966 127.814 195.194 127.412C195.421 127.009 195.731 126.688 196.124 126.446C196.517 126.205 196.96 126.022 197.452 125.899C197.949 125.771 198.463 125.679 198.993 125.622C199.632 125.556 200.151 125.497 200.549 125.445C200.946 125.388 201.235 125.303 201.415 125.189C201.6 125.071 201.692 124.888 201.692 124.642V124.599C201.692 124.064 201.533 123.65 201.216 123.357C200.899 123.063 200.442 122.916 199.846 122.916C199.216 122.916 198.716 123.054 198.347 123.328C197.982 123.603 197.736 123.927 197.608 124.301L195.208 123.96C195.397 123.297 195.71 122.743 196.145 122.298C196.581 121.848 197.114 121.512 197.743 121.29C198.373 121.062 199.069 120.949 199.831 120.949C200.357 120.949 200.88 121.01 201.401 121.134C201.922 121.257 202.398 121.46 202.828 121.744C203.259 122.024 203.605 122.405 203.865 122.888C204.131 123.371 204.263 123.974 204.263 124.699V132H201.792V130.501H201.706C201.55 130.804 201.33 131.089 201.046 131.354C200.766 131.614 200.414 131.825 199.988 131.986C199.566 132.142 199.071 132.22 198.503 132.22ZM199.171 130.331C199.687 130.331 200.134 130.229 200.513 130.026C200.892 129.817 201.183 129.543 201.387 129.202C201.595 128.861 201.699 128.489 201.699 128.087V126.801C201.619 126.867 201.481 126.929 201.287 126.986C201.098 127.043 200.885 127.092 200.648 127.135C200.411 127.178 200.177 127.215 199.945 127.249C199.713 127.282 199.512 127.31 199.341 127.334C198.958 127.386 198.614 127.471 198.311 127.589C198.008 127.708 197.769 127.874 197.594 128.087C197.419 128.295 197.331 128.565 197.331 128.896C197.331 129.37 197.504 129.727 197.85 129.969C198.195 130.21 198.636 130.331 199.171 130.331ZM211.607 132.213C210.518 132.213 209.583 131.974 208.801 131.496C208.025 131.018 207.426 130.357 207.005 129.514C206.588 128.667 206.38 127.691 206.38 126.588C206.38 125.48 206.593 124.502 207.019 123.655C207.445 122.803 208.046 122.14 208.823 121.666C209.604 121.188 210.527 120.949 211.593 120.949C212.478 120.949 213.262 121.112 213.944 121.439C214.63 121.761 215.177 122.218 215.584 122.81C215.991 123.397 216.223 124.083 216.28 124.869H213.823C213.723 124.344 213.487 123.906 213.113 123.555C212.743 123.2 212.248 123.023 211.628 123.023C211.103 123.023 210.641 123.165 210.243 123.449C209.846 123.728 209.535 124.131 209.313 124.656C209.095 125.182 208.986 125.812 208.986 126.545C208.986 127.289 209.095 127.928 209.313 128.463C209.531 128.993 209.836 129.403 210.229 129.692C210.627 129.976 211.093 130.118 211.628 130.118C212.007 130.118 212.346 130.047 212.644 129.905C212.947 129.758 213.2 129.547 213.404 129.273C213.607 128.998 213.747 128.664 213.823 128.271H216.28C216.219 129.043 215.991 129.727 215.598 130.324C215.205 130.916 214.67 131.38 213.993 131.716C213.316 132.047 212.521 132.213 211.607 132.213ZM220.735 128.577L220.728 125.473H221.14L225.06 121.091H228.065L223.242 126.46H222.71L220.735 128.577ZM218.391 132V117.455H220.962V132H218.391ZM225.238 132L221.687 127.036L223.42 125.224L228.313 132H225.238ZM234.158 132.213C233.065 132.213 232.12 131.986 231.325 131.531C230.534 131.072 229.925 130.423 229.499 129.585C229.073 128.742 228.86 127.75 228.86 126.609C228.86 125.487 229.073 124.502 229.499 123.655C229.93 122.803 230.531 122.14 231.303 121.666C232.075 121.188 232.982 120.949 234.023 120.949C234.696 120.949 235.33 121.058 235.927 121.276C236.528 121.489 237.058 121.82 237.518 122.27C237.982 122.72 238.346 123.293 238.612 123.989C238.877 124.68 239.009 125.504 239.009 126.46V127.249H230.067V125.516H236.545C236.54 125.023 236.433 124.585 236.225 124.202C236.017 123.813 235.726 123.508 235.352 123.286C234.982 123.063 234.551 122.952 234.059 122.952C233.533 122.952 233.072 123.08 232.674 123.335C232.276 123.586 231.966 123.918 231.744 124.33C231.526 124.737 231.415 125.184 231.41 125.672V127.185C231.41 127.819 231.526 128.364 231.758 128.818C231.99 129.268 232.314 129.614 232.731 129.855C233.147 130.092 233.635 130.21 234.194 130.21C234.568 130.21 234.906 130.158 235.21 130.054C235.513 129.945 235.775 129.786 235.998 129.578C236.22 129.37 236.388 129.112 236.502 128.804L238.903 129.074C238.751 129.708 238.462 130.262 238.036 130.736C237.615 131.205 237.075 131.569 236.417 131.83C235.759 132.085 235.006 132.213 234.158 132.213ZM243.755 125.608V132H241.184V121.091H243.642V122.945H243.77C244.02 122.334 244.421 121.848 244.97 121.489C245.524 121.129 246.208 120.949 247.022 120.949C247.775 120.949 248.431 121.11 248.99 121.432C249.553 121.754 249.989 122.22 250.297 122.831C250.609 123.442 250.763 124.183 250.758 125.054V132H248.187V125.452C248.187 124.723 247.998 124.152 247.619 123.74C247.245 123.328 246.726 123.122 246.064 123.122C245.614 123.122 245.214 123.222 244.863 123.42C244.518 123.615 244.245 123.896 244.047 124.266C243.852 124.635 243.755 125.082 243.755 125.608ZM257.42 132.192C256.563 132.192 255.796 131.972 255.119 131.531C254.442 131.091 253.907 130.452 253.514 129.614C253.121 128.776 252.924 127.758 252.924 126.56C252.924 125.348 253.123 124.325 253.521 123.491C253.923 122.653 254.466 122.021 255.147 121.595C255.829 121.164 256.589 120.949 257.427 120.949C258.066 120.949 258.592 121.058 259.004 121.276C259.416 121.489 259.743 121.747 259.984 122.05C260.225 122.348 260.413 122.63 260.545 122.895H260.652V117.455H263.23V132H260.701V130.281H260.545C260.413 130.546 260.221 130.828 259.97 131.126C259.719 131.42 259.387 131.671 258.975 131.879C258.564 132.088 258.045 132.192 257.42 132.192ZM258.137 130.082C258.682 130.082 259.146 129.936 259.529 129.642C259.913 129.344 260.204 128.929 260.403 128.399C260.602 127.869 260.701 127.251 260.701 126.545C260.701 125.84 260.602 125.227 260.403 124.706C260.209 124.185 259.92 123.78 259.537 123.491C259.158 123.203 258.691 123.058 258.137 123.058C257.565 123.058 257.086 123.207 256.703 123.506C256.319 123.804 256.03 124.216 255.836 124.741C255.642 125.267 255.545 125.868 255.545 126.545C255.545 127.227 255.642 127.836 255.836 128.371C256.035 128.901 256.326 129.32 256.71 129.628C257.098 129.931 257.574 130.082 258.137 130.082ZM274.979 132.192C274.122 132.192 273.355 131.972 272.678 131.531C272 131.091 271.465 130.452 271.072 129.614C270.679 128.776 270.483 127.758 270.483 126.56C270.483 125.348 270.682 124.325 271.08 123.491C271.482 122.653 272.024 122.021 272.706 121.595C273.388 121.164 274.148 120.949 274.986 120.949C275.625 120.949 276.151 121.058 276.562 121.276C276.974 121.489 277.301 121.747 277.543 122.05C277.784 122.348 277.971 122.63 278.104 122.895H278.21V117.455H280.788V132H278.26V130.281H278.104C277.971 130.546 277.779 130.828 277.528 131.126C277.277 131.42 276.946 131.671 276.534 131.879C276.122 132.088 275.604 132.192 274.979 132.192ZM275.696 130.082C276.241 130.082 276.705 129.936 277.088 129.642C277.472 129.344 277.763 128.929 277.962 128.399C278.161 127.869 278.26 127.251 278.26 126.545C278.26 125.84 278.161 125.227 277.962 124.706C277.768 124.185 277.479 123.78 277.095 123.491C276.716 123.203 276.25 123.058 275.696 123.058C275.123 123.058 274.645 123.207 274.261 123.506C273.878 123.804 273.589 124.216 273.395 124.741C273.201 125.267 273.104 125.868 273.104 126.545C273.104 127.227 273.201 127.836 273.395 128.371C273.594 128.901 273.885 129.32 274.268 129.628C274.657 129.931 275.133 130.082 275.696 130.082ZM288.358 132.213C287.264 132.213 286.319 131.986 285.524 131.531C284.733 131.072 284.125 130.423 283.699 129.585C283.272 128.742 283.059 127.75 283.059 126.609C283.059 125.487 283.272 124.502 283.699 123.655C284.129 122.803 284.731 122.14 285.502 121.666C286.274 121.188 287.181 120.949 288.223 120.949C288.895 120.949 289.529 121.058 290.126 121.276C290.727 121.489 291.258 121.82 291.717 122.27C292.181 122.72 292.546 123.293 292.811 123.989C293.076 124.68 293.208 125.504 293.208 126.46V127.249H284.267V125.516H290.744C290.739 125.023 290.633 124.585 290.424 124.202C290.216 123.813 289.925 123.508 289.551 123.286C289.181 123.063 288.751 122.952 288.258 122.952C287.733 122.952 287.271 123.08 286.873 123.335C286.475 123.586 286.165 123.918 285.943 124.33C285.725 124.737 285.614 125.184 285.609 125.672V127.185C285.609 127.819 285.725 128.364 285.957 128.818C286.189 129.268 286.513 129.614 286.93 129.855C287.347 130.092 287.834 130.21 288.393 130.21C288.767 130.21 289.106 130.158 289.409 130.054C289.712 129.945 289.975 129.786 290.197 129.578C290.42 129.37 290.588 129.112 290.701 128.804L293.102 129.074C292.95 129.708 292.662 130.262 292.235 130.736C291.814 131.205 291.274 131.569 290.616 131.83C289.958 132.085 289.205 132.213 288.358 132.213ZM304.815 121.091L300.93 132H298.089L294.205 121.091H296.946L299.453 129.195H299.567L302.081 121.091H304.815ZM311.053 132.213C309.959 132.213 309.015 131.986 308.219 131.531C307.428 131.072 306.82 130.423 306.394 129.585C305.968 128.742 305.755 127.75 305.755 126.609C305.755 125.487 305.968 124.502 306.394 123.655C306.825 122.803 307.426 122.14 308.198 121.666C308.97 121.188 309.876 120.949 310.918 120.949C311.59 120.949 312.225 121.058 312.821 121.276C313.423 121.489 313.953 121.82 314.412 122.27C314.876 122.72 315.241 123.293 315.506 123.989C315.771 124.68 315.904 125.504 315.904 126.46V127.249H306.962V125.516H313.439C313.435 125.023 313.328 124.585 313.12 124.202C312.911 123.813 312.62 123.508 312.246 123.286C311.877 123.063 311.446 122.952 310.953 122.952C310.428 122.952 309.966 123.08 309.569 123.335C309.171 123.586 308.861 123.918 308.638 124.33C308.42 124.737 308.309 125.184 308.304 125.672V127.185C308.304 127.819 308.42 128.364 308.652 128.818C308.884 129.268 309.209 129.614 309.625 129.855C310.042 130.092 310.53 130.21 311.088 130.21C311.462 130.21 311.801 130.158 312.104 130.054C312.407 129.945 312.67 129.786 312.892 129.578C313.115 129.37 313.283 129.112 313.397 128.804L315.797 129.074C315.646 129.708 315.357 130.262 314.931 130.736C314.509 131.205 313.97 131.569 313.311 131.83C312.653 132.085 311.9 132.213 311.053 132.213ZM320.65 117.455V132H318.079V117.455H320.65ZM328.052 132.213C326.987 132.213 326.064 131.979 325.282 131.51C324.501 131.041 323.895 130.385 323.464 129.543C323.038 128.7 322.825 127.715 322.825 126.588C322.825 125.461 323.038 124.474 323.464 123.626C323.895 122.779 324.501 122.121 325.282 121.652C326.064 121.183 326.987 120.949 328.052 120.949C329.118 120.949 330.041 121.183 330.822 121.652C331.603 122.121 332.207 122.779 332.633 123.626C333.064 124.474 333.279 125.461 333.279 126.588C333.279 127.715 333.064 128.7 332.633 129.543C332.207 130.385 331.603 131.041 330.822 131.51C330.041 131.979 329.118 132.213 328.052 132.213ZM328.066 130.153C328.644 130.153 329.127 129.995 329.515 129.678C329.904 129.356 330.192 128.925 330.382 128.385C330.576 127.845 330.673 127.244 330.673 126.581C330.673 125.913 330.576 125.31 330.382 124.77C330.192 124.225 329.904 123.792 329.515 123.47C329.127 123.148 328.644 122.987 328.066 122.987C327.475 122.987 326.982 123.148 326.589 123.47C326.201 123.792 325.91 124.225 325.716 124.77C325.526 125.31 325.431 125.913 325.431 126.581C325.431 127.244 325.526 127.845 325.716 128.385C325.91 128.925 326.201 129.356 326.589 129.678C326.982 129.995 327.475 130.153 328.066 130.153ZM335.462 136.091V121.091H337.99V122.895H338.139C338.272 122.63 338.459 122.348 338.7 122.05C338.942 121.747 339.268 121.489 339.68 121.276C340.092 121.058 340.618 120.949 341.257 120.949C342.1 120.949 342.86 121.164 343.537 121.595C344.219 122.021 344.759 122.653 345.156 123.491C345.559 124.325 345.76 125.348 345.76 126.56C345.76 127.758 345.563 128.776 345.17 129.614C344.777 130.452 344.242 131.091 343.565 131.531C342.888 131.972 342.121 132.192 341.264 132.192C340.639 132.192 340.121 132.088 339.709 131.879C339.297 131.671 338.965 131.42 338.714 131.126C338.468 130.828 338.277 130.546 338.139 130.281H338.033V136.091H335.462ZM337.983 126.545C337.983 127.251 338.082 127.869 338.281 128.399C338.485 128.929 338.776 129.344 339.155 129.642C339.538 129.936 340.002 130.082 340.547 130.082C341.115 130.082 341.591 129.931 341.974 129.628C342.358 129.32 342.647 128.901 342.841 128.371C343.04 127.836 343.139 127.227 343.139 126.545C343.139 125.868 343.042 125.267 342.848 124.741C342.654 124.216 342.365 123.804 341.982 123.506C341.598 123.207 341.12 123.058 340.547 123.058C339.998 123.058 339.531 123.203 339.148 123.491C338.764 123.78 338.473 124.185 338.274 124.706C338.08 125.227 337.983 125.84 337.983 126.545ZM352.791 132.213C351.697 132.213 350.753 131.986 349.957 131.531C349.167 131.072 348.558 130.423 348.132 129.585C347.706 128.742 347.493 127.75 347.493 126.609C347.493 125.487 347.706 124.502 348.132 123.655C348.563 122.803 349.164 122.14 349.936 121.666C350.708 121.188 351.615 120.949 352.656 120.949C353.329 120.949 353.963 121.058 354.56 121.276C355.161 121.489 355.691 121.82 356.151 122.27C356.615 122.72 356.979 123.293 357.244 123.989C357.509 124.68 357.642 125.504 357.642 126.46V127.249H348.7V125.516H355.178C355.173 125.023 355.066 124.585 354.858 124.202C354.65 123.813 354.358 123.508 353.984 123.286C353.615 123.063 353.184 122.952 352.692 122.952C352.166 122.952 351.705 123.08 351.307 123.335C350.909 123.586 350.599 123.918 350.376 124.33C350.159 124.737 350.047 125.184 350.043 125.672V127.185C350.043 127.819 350.159 128.364 350.391 128.818C350.623 129.268 350.947 129.614 351.364 129.855C351.78 130.092 352.268 130.21 352.827 130.21C353.201 130.21 353.539 130.158 353.842 130.054C354.145 129.945 354.408 129.786 354.631 129.578C354.853 129.37 355.021 129.112 355.135 128.804L357.536 129.074C357.384 129.708 357.095 130.262 356.669 130.736C356.248 131.205 355.708 131.569 355.05 131.83C354.392 132.085 353.639 132.213 352.791 132.213ZM359.817 132V121.091H362.31V122.909H362.424C362.623 122.279 362.963 121.794 363.446 121.453C363.934 121.107 364.49 120.935 365.115 120.935C365.257 120.935 365.416 120.942 365.591 120.956C365.771 120.965 365.92 120.982 366.039 121.006V123.371C365.93 123.333 365.757 123.3 365.52 123.271C365.288 123.238 365.063 123.222 364.846 123.222C364.377 123.222 363.955 123.323 363.581 123.527C363.212 123.726 362.921 124.003 362.708 124.358C362.495 124.713 362.388 125.123 362.388 125.587V132H359.817ZM368.081 132.156C367.65 132.156 367.28 132.005 366.973 131.702C366.665 131.399 366.513 131.029 366.518 130.594C366.513 130.168 366.665 129.803 366.973 129.5C367.28 129.197 367.65 129.045 368.081 129.045C368.497 129.045 368.859 129.197 369.167 129.5C369.48 129.803 369.638 130.168 369.643 130.594C369.638 130.883 369.563 131.145 369.416 131.382C369.274 131.619 369.084 131.808 368.848 131.95C368.616 132.088 368.36 132.156 368.081 132.156ZM379.558 117.455V132H376.923V117.455H379.558ZM392.017 132.213C390.928 132.213 389.993 131.974 389.212 131.496C388.435 131.018 387.836 130.357 387.415 129.514C386.998 128.667 386.79 127.691 386.79 126.588C386.79 125.48 387.003 124.502 387.429 123.655C387.855 122.803 388.456 122.14 389.233 121.666C390.014 121.188 390.938 120.949 392.003 120.949C392.888 120.949 393.672 121.112 394.354 121.439C395.04 121.761 395.587 122.218 395.994 122.81C396.402 123.397 396.634 124.083 396.69 124.869H394.233C394.134 124.344 393.897 123.906 393.523 123.555C393.153 123.2 392.659 123.023 392.038 123.023C391.513 123.023 391.051 123.165 390.653 123.449C390.256 123.728 389.946 124.131 389.723 124.656C389.505 125.182 389.396 125.812 389.396 126.545C389.396 127.289 389.505 127.928 389.723 128.463C389.941 128.993 390.246 129.403 390.639 129.692C391.037 129.976 391.503 130.118 392.038 130.118C392.417 130.118 392.756 130.047 393.054 129.905C393.357 129.758 393.61 129.547 393.814 129.273C394.018 128.998 394.157 128.664 394.233 128.271H396.69C396.629 129.043 396.402 129.727 396.009 130.324C395.616 130.916 395.08 131.38 394.403 131.716C393.726 132.047 392.931 132.213 392.017 132.213ZM398.801 132V121.091H401.294V122.909H401.408C401.607 122.279 401.948 121.794 402.431 121.453C402.918 121.107 403.475 120.935 404.1 120.935C404.242 120.935 404.4 120.942 404.576 120.956C404.756 120.965 404.905 120.982 405.023 121.006V123.371C404.914 123.333 404.741 123.3 404.505 123.271C404.273 123.238 404.048 123.222 403.83 123.222C403.361 123.222 402.94 123.323 402.566 123.527C402.196 123.726 401.905 124.003 401.692 124.358C401.479 124.713 401.373 125.123 401.373 125.587V132H398.801ZM411.112 132.213C410.018 132.213 409.073 131.986 408.278 131.531C407.487 131.072 406.879 130.423 406.452 129.585C406.026 128.742 405.813 127.75 405.813 126.609C405.813 125.487 406.026 124.502 406.452 123.655C406.883 122.803 407.485 122.14 408.256 121.666C409.028 121.188 409.935 120.949 410.977 120.949C411.649 120.949 412.283 121.058 412.88 121.276C413.481 121.489 414.012 121.82 414.471 122.27C414.935 122.72 415.299 123.293 415.565 123.989C415.83 124.68 415.962 125.504 415.962 126.46V127.249H407.021V125.516H413.498C413.493 125.023 413.387 124.585 413.178 124.202C412.97 123.813 412.679 123.508 412.305 123.286C411.935 123.063 411.504 122.952 411.012 122.952C410.487 122.952 410.025 123.08 409.627 123.335C409.229 123.586 408.919 123.918 408.697 124.33C408.479 124.737 408.368 125.184 408.363 125.672V127.185C408.363 127.819 408.479 128.364 408.711 128.818C408.943 129.268 409.267 129.614 409.684 129.855C410.101 130.092 410.588 130.21 411.147 130.21C411.521 130.21 411.86 130.158 412.163 130.054C412.466 129.945 412.728 129.786 412.951 129.578C413.174 129.37 413.342 129.112 413.455 128.804L415.856 129.074C415.704 129.708 415.415 130.262 414.989 130.736C414.568 131.205 414.028 131.569 413.37 131.83C412.712 132.085 411.959 132.213 411.112 132.213ZM421.277 132.22C420.585 132.22 419.963 132.097 419.409 131.851C418.859 131.6 418.424 131.231 418.102 130.743C417.785 130.255 417.626 129.654 417.626 128.939C417.626 128.323 417.74 127.814 417.967 127.412C418.194 127.009 418.504 126.688 418.897 126.446C419.29 126.205 419.733 126.022 420.225 125.899C420.723 125.771 421.236 125.679 421.767 125.622C422.406 125.556 422.924 125.497 423.322 125.445C423.72 125.388 424.009 125.303 424.189 125.189C424.373 125.071 424.466 124.888 424.466 124.642V124.599C424.466 124.064 424.307 123.65 423.99 123.357C423.672 123.063 423.216 122.916 422.619 122.916C421.989 122.916 421.49 123.054 421.12 123.328C420.756 123.603 420.51 123.927 420.382 124.301L417.981 123.96C418.171 123.297 418.483 122.743 418.919 122.298C419.354 121.848 419.887 121.512 420.517 121.29C421.146 121.062 421.842 120.949 422.605 120.949C423.13 120.949 423.654 121.01 424.174 121.134C424.695 121.257 425.171 121.46 425.602 121.744C426.033 122.024 426.378 122.405 426.639 122.888C426.904 123.371 427.037 123.974 427.037 124.699V132H424.565V130.501H424.48C424.324 130.804 424.103 131.089 423.819 131.354C423.54 131.614 423.187 131.825 422.761 131.986C422.34 132.142 421.845 132.22 421.277 132.22ZM421.944 130.331C422.46 130.331 422.908 130.229 423.287 130.026C423.665 129.817 423.957 129.543 424.16 129.202C424.368 128.861 424.473 128.489 424.473 128.087V126.801C424.392 126.867 424.255 126.929 424.061 126.986C423.871 127.043 423.658 127.092 423.422 127.135C423.185 127.178 422.95 127.215 422.718 127.249C422.486 127.282 422.285 127.31 422.115 127.334C421.731 127.386 421.388 127.471 421.085 127.589C420.782 127.708 420.543 127.874 420.368 128.087C420.192 128.295 420.105 128.565 420.105 128.896C420.105 129.37 420.278 129.727 420.623 129.969C420.969 130.21 421.409 130.331 421.944 130.331ZM435.069 121.091V123.08H428.798V121.091H435.069ZM430.346 118.477H432.917V128.719C432.917 129.064 432.969 129.33 433.074 129.514C433.182 129.694 433.324 129.817 433.5 129.884C433.675 129.95 433.869 129.983 434.082 129.983C434.243 129.983 434.39 129.971 434.522 129.947C434.66 129.924 434.764 129.902 434.835 129.884L435.268 131.893C435.131 131.941 434.934 131.993 434.679 132.05C434.428 132.107 434.12 132.14 433.755 132.149C433.111 132.168 432.531 132.071 432.015 131.858C431.499 131.64 431.09 131.304 430.787 130.849C430.488 130.395 430.342 129.827 430.346 129.145V118.477ZM441.932 132.213C440.838 132.213 439.893 131.986 439.098 131.531C438.307 131.072 437.699 130.423 437.273 129.585C436.847 128.742 436.634 127.75 436.634 126.609C436.634 125.487 436.847 124.502 437.273 123.655C437.704 122.803 438.305 122.14 439.077 121.666C439.848 121.188 440.755 120.949 441.797 120.949C442.469 120.949 443.104 121.058 443.7 121.276C444.302 121.489 444.832 121.82 445.291 122.27C445.755 122.72 446.12 123.293 446.385 123.989C446.65 124.68 446.783 125.504 446.783 126.46V127.249H437.841V125.516H444.318C444.313 125.023 444.207 124.585 443.999 124.202C443.79 123.813 443.499 123.508 443.125 123.286C442.756 123.063 442.325 122.952 441.832 122.952C441.307 122.952 440.845 123.08 440.447 123.335C440.05 123.586 439.74 123.918 439.517 124.33C439.299 124.737 439.188 125.184 439.183 125.672V127.185C439.183 127.819 439.299 128.364 439.531 128.818C439.763 129.268 440.088 129.614 440.504 129.855C440.921 130.092 441.409 130.21 441.967 130.21C442.341 130.21 442.68 130.158 442.983 130.054C443.286 129.945 443.549 129.786 443.771 129.578C443.994 129.37 444.162 129.112 444.276 128.804L446.676 129.074C446.525 129.708 446.236 130.262 445.81 130.736C445.388 131.205 444.848 131.569 444.19 131.83C443.532 132.085 442.779 132.213 441.932 132.213ZM453.919 132V121.091H456.412V122.909H456.525C456.724 122.279 457.065 121.794 457.548 121.453C458.036 121.107 458.592 120.935 459.217 120.935C459.359 120.935 459.518 120.942 459.693 120.956C459.873 120.965 460.022 120.982 460.14 121.006V123.371C460.031 123.333 459.859 123.3 459.622 123.271C459.39 123.238 459.165 123.222 458.947 123.222C458.478 123.222 458.057 123.323 457.683 123.527C457.314 123.726 457.022 124.003 456.809 124.358C456.596 124.713 456.49 125.123 456.49 125.587V132H453.919ZM466.229 132.213C465.135 132.213 464.19 131.986 463.395 131.531C462.604 131.072 461.996 130.423 461.57 129.585C461.143 128.742 460.93 127.75 460.93 126.609C460.93 125.487 461.143 124.502 461.57 123.655C462 122.803 462.602 122.14 463.374 121.666C464.145 121.188 465.052 120.949 466.094 120.949C466.766 120.949 467.401 121.058 467.997 121.276C468.598 121.489 469.129 121.82 469.588 122.27C470.052 122.72 470.417 123.293 470.682 123.989C470.947 124.68 471.08 125.504 471.08 126.46V127.249H462.138V125.516H468.615C468.61 125.023 468.504 124.585 468.295 124.202C468.087 123.813 467.796 123.508 467.422 123.286C467.053 123.063 466.622 122.952 466.129 122.952C465.604 122.952 465.142 123.08 464.744 123.335C464.347 123.586 464.036 123.918 463.814 124.33C463.596 124.737 463.485 125.184 463.48 125.672V127.185C463.48 127.819 463.596 128.364 463.828 128.818C464.06 129.268 464.384 129.614 464.801 129.855C465.218 130.092 465.705 130.21 466.264 130.21C466.638 130.21 466.977 130.158 467.28 130.054C467.583 129.945 467.846 129.786 468.068 129.578C468.291 129.37 468.459 129.112 468.572 128.804L470.973 129.074C470.821 129.708 470.533 130.262 470.107 130.736C469.685 131.205 469.145 131.569 468.487 131.83C467.829 132.085 467.076 132.213 466.229 132.213ZM475.826 117.455V132H473.255V117.455H475.826ZM478.469 132V121.091H481.04V132H478.469ZM479.762 119.543C479.355 119.543 479.004 119.408 478.711 119.138C478.417 118.863 478.271 118.534 478.271 118.151C478.271 117.762 478.417 117.433 478.711 117.163C479.004 116.889 479.355 116.751 479.762 116.751C480.174 116.751 480.524 116.889 480.813 117.163C481.107 117.433 481.254 117.762 481.254 118.151C481.254 118.534 481.107 118.863 480.813 119.138C480.524 119.408 480.174 119.543 479.762 119.543ZM486.824 132.22C486.132 132.22 485.51 132.097 484.956 131.851C484.406 131.6 483.971 131.231 483.649 130.743C483.332 130.255 483.173 129.654 483.173 128.939C483.173 128.323 483.287 127.814 483.514 127.412C483.741 127.009 484.051 126.688 484.444 126.446C484.837 126.205 485.28 126.022 485.772 125.899C486.27 125.771 486.783 125.679 487.314 125.622C487.953 125.556 488.471 125.497 488.869 125.445C489.267 125.388 489.556 125.303 489.735 125.189C489.92 125.071 490.012 124.888 490.012 124.642V124.599C490.012 124.064 489.854 123.65 489.537 123.357C489.219 123.063 488.762 122.916 488.166 122.916C487.536 122.916 487.037 123.054 486.667 123.328C486.303 123.603 486.056 123.927 485.929 124.301L483.528 123.96C483.717 123.297 484.03 122.743 484.466 122.298C484.901 121.848 485.434 121.512 486.064 121.29C486.693 121.062 487.389 120.949 488.152 120.949C488.677 120.949 489.2 121.01 489.721 121.134C490.242 121.257 490.718 121.46 491.149 121.744C491.58 122.024 491.925 122.405 492.186 122.888C492.451 123.371 492.583 123.974 492.583 124.699V132H490.112V130.501H490.027C489.87 130.804 489.65 131.089 489.366 131.354C489.087 131.614 488.734 131.825 488.308 131.986C487.886 132.142 487.392 132.22 486.824 132.22ZM487.491 130.331C488.007 130.331 488.455 130.229 488.833 130.026C489.212 129.817 489.503 129.543 489.707 129.202C489.915 128.861 490.02 128.489 490.02 128.087V126.801C489.939 126.867 489.802 126.929 489.608 126.986C489.418 127.043 489.205 127.092 488.968 127.135C488.732 127.178 488.497 127.215 488.265 127.249C488.033 127.282 487.832 127.31 487.662 127.334C487.278 127.386 486.935 127.471 486.632 127.589C486.329 127.708 486.09 127.874 485.914 128.087C485.739 128.295 485.652 128.565 485.652 128.896C485.652 129.37 485.824 129.727 486.17 129.969C486.516 130.21 486.956 130.331 487.491 130.331ZM495.282 132V117.455H497.853V122.895H497.96C498.092 122.63 498.279 122.348 498.521 122.05C498.762 121.747 499.089 121.489 499.501 121.276C499.913 121.058 500.439 120.949 501.078 120.949C501.921 120.949 502.681 121.164 503.358 121.595C504.039 122.021 504.579 122.653 504.977 123.491C505.379 124.325 505.581 125.348 505.581 126.56C505.581 127.758 505.384 128.776 504.991 129.614C504.598 130.452 504.063 131.091 503.386 131.531C502.709 131.972 501.942 132.192 501.085 132.192C500.46 132.192 499.941 132.088 499.529 131.879C499.118 131.671 498.786 131.42 498.535 131.126C498.289 130.828 498.097 130.546 497.96 130.281H497.811V132H495.282ZM497.804 126.545C497.804 127.251 497.903 127.869 498.102 128.399C498.306 128.929 498.597 129.344 498.975 129.642C499.359 129.936 499.823 130.082 500.368 130.082C500.936 130.082 501.412 129.931 501.795 129.628C502.179 129.32 502.467 128.901 502.662 128.371C502.86 127.836 502.96 127.227 502.96 126.545C502.96 125.868 502.863 125.267 502.669 124.741C502.475 124.216 502.186 123.804 501.802 123.506C501.419 123.207 500.94 123.058 500.368 123.058C499.818 123.058 499.352 123.203 498.968 123.491C498.585 123.78 498.294 124.185 498.095 124.706C497.901 125.227 497.804 125.84 497.804 126.545ZM510.337 117.455V132H507.766V117.455H510.337ZM517.811 132.213C516.717 132.213 515.772 131.986 514.977 131.531C514.186 131.072 513.578 130.423 513.152 129.585C512.725 128.742 512.512 127.75 512.512 126.609C512.512 125.487 512.725 124.502 513.152 123.655C513.583 122.803 514.184 122.14 514.956 121.666C515.727 121.188 516.634 120.949 517.676 120.949C518.348 120.949 518.983 121.058 519.579 121.276C520.181 121.489 520.711 121.82 521.17 122.27C521.634 122.72 521.999 123.293 522.264 123.989C522.529 124.68 522.662 125.504 522.662 126.46V127.249H513.72V125.516H520.197C520.192 125.023 520.086 124.585 519.877 124.202C519.669 123.813 519.378 123.508 519.004 123.286C518.635 123.063 518.204 122.952 517.711 122.952C517.186 122.952 516.724 123.08 516.326 123.335C515.929 123.586 515.618 123.918 515.396 124.33C515.178 124.737 515.067 125.184 515.062 125.672V127.185C515.062 127.819 515.178 128.364 515.41 128.818C515.642 129.268 515.967 129.614 516.383 129.855C516.8 130.092 517.288 130.21 517.846 130.21C518.22 130.21 518.559 130.158 518.862 130.054C519.165 129.945 519.428 129.786 519.65 129.578C519.873 129.37 520.041 129.112 520.154 128.804L522.555 129.074C522.404 129.708 522.115 130.262 521.689 130.736C521.267 131.205 520.727 131.569 520.069 131.83C519.411 132.085 518.658 132.213 517.811 132.213ZM532.937 132.22C532.246 132.22 531.623 132.097 531.069 131.851C530.52 131.6 530.084 131.231 529.762 130.743C529.445 130.255 529.286 129.654 529.286 128.939C529.286 128.323 529.4 127.814 529.627 127.412C529.854 127.009 530.165 126.688 530.558 126.446C530.951 126.205 531.393 126.022 531.886 125.899C532.383 125.771 532.897 125.679 533.427 125.622C534.066 125.556 534.585 125.497 534.982 125.445C535.38 125.388 535.669 125.303 535.849 125.189C536.033 125.071 536.126 124.888 536.126 124.642V124.599C536.126 124.064 535.967 123.65 535.65 123.357C535.333 123.063 534.876 122.916 534.279 122.916C533.649 122.916 533.15 123.054 532.781 123.328C532.416 123.603 532.17 123.927 532.042 124.301L529.641 123.96C529.831 123.297 530.143 122.743 530.579 122.298C531.014 121.848 531.547 121.512 532.177 121.29C532.807 121.062 533.503 120.949 534.265 120.949C534.79 120.949 535.314 121.01 535.835 121.134C536.355 121.257 536.831 121.46 537.262 121.744C537.693 122.024 538.039 122.405 538.299 122.888C538.564 123.371 538.697 123.974 538.697 124.699V132H536.225V130.501H536.14C535.984 130.804 535.763 131.089 535.479 131.354C535.2 131.614 534.847 131.825 534.421 131.986C534 132.142 533.505 132.22 532.937 132.22ZM533.604 130.331C534.121 130.331 534.568 130.229 534.947 130.026C535.326 129.817 535.617 129.543 535.82 129.202C536.029 128.861 536.133 128.489 536.133 128.087V126.801C536.052 126.867 535.915 126.929 535.721 126.986C535.531 127.043 535.318 127.092 535.082 127.135C534.845 127.178 534.611 127.215 534.379 127.249C534.147 127.282 533.945 127.31 533.775 127.334C533.391 127.386 533.048 127.471 532.745 127.589C532.442 127.708 532.203 127.874 532.028 128.087C531.853 128.295 531.765 128.565 531.765 128.896C531.765 129.37 531.938 129.727 532.283 129.969C532.629 130.21 533.069 130.331 533.604 130.331ZM543.853 125.608V132H541.282V121.091H543.739V122.945H543.867C544.118 122.334 544.518 121.848 545.067 121.489C545.621 121.129 546.306 120.949 547.12 120.949C547.873 120.949 548.529 121.11 549.087 121.432C549.651 121.754 550.086 122.22 550.394 122.831C550.707 123.442 550.861 124.183 550.856 125.054V132H548.285V125.452C548.285 124.723 548.095 124.152 547.717 123.74C547.343 123.328 546.824 123.122 546.161 123.122C545.711 123.122 545.311 123.222 544.961 123.42C544.615 123.615 544.343 123.896 544.144 124.266C543.95 124.635 543.853 125.082 543.853 125.608ZM557.518 132.192C556.661 132.192 555.894 131.972 555.217 131.531C554.54 131.091 554.004 130.452 553.612 129.614C553.219 128.776 553.022 127.758 553.022 126.56C553.022 125.348 553.221 124.325 553.619 123.491C554.021 122.653 554.563 122.021 555.245 121.595C555.927 121.164 556.687 120.949 557.525 120.949C558.164 120.949 558.69 121.058 559.102 121.276C559.513 121.489 559.84 121.747 560.082 122.05C560.323 122.348 560.51 122.63 560.643 122.895H560.749V117.455H563.327V132H560.799V130.281H560.643C560.51 130.546 560.318 130.828 560.067 131.126C559.817 131.42 559.485 131.671 559.073 131.879C558.661 132.088 558.143 132.192 557.518 132.192ZM558.235 130.082C558.78 130.082 559.244 129.936 559.627 129.642C560.011 129.344 560.302 128.929 560.501 128.399C560.7 127.869 560.799 127.251 560.799 126.545C560.799 125.84 560.7 125.227 560.501 124.706C560.307 124.185 560.018 123.78 559.634 123.491C559.255 123.203 558.789 123.058 558.235 123.058C557.662 123.058 557.184 123.207 556.8 123.506C556.417 123.804 556.128 124.216 555.934 124.741C555.74 125.267 555.643 125.868 555.643 126.545C555.643 127.227 555.74 127.836 555.934 128.371C556.133 128.901 556.424 129.32 556.808 129.628C557.196 129.931 557.672 130.082 558.235 130.082ZM571.028 136.091V121.091H573.556V122.895H573.706C573.838 122.63 574.025 122.348 574.267 122.05C574.508 121.747 574.835 121.489 575.247 121.276C575.659 121.058 576.184 120.949 576.824 120.949C577.666 120.949 578.426 121.164 579.103 121.595C579.785 122.021 580.325 122.653 580.723 123.491C581.125 124.325 581.326 125.348 581.326 126.56C581.326 127.758 581.13 128.776 580.737 129.614C580.344 130.452 579.809 131.091 579.132 131.531C578.455 131.972 577.688 132.192 576.831 132.192C576.206 132.192 575.687 132.088 575.275 131.879C574.863 131.671 574.532 131.42 574.281 131.126C574.035 130.828 573.843 130.546 573.706 130.281H573.599V136.091H571.028ZM573.549 126.545C573.549 127.251 573.649 127.869 573.848 128.399C574.051 128.929 574.342 129.344 574.721 129.642C575.105 129.936 575.569 130.082 576.113 130.082C576.681 130.082 577.157 129.931 577.541 129.628C577.924 129.32 578.213 128.901 578.407 128.371C578.606 127.836 578.706 127.227 578.706 126.545C578.706 125.868 578.609 125.267 578.414 124.741C578.22 124.216 577.931 123.804 577.548 123.506C577.164 123.207 576.686 123.058 576.113 123.058C575.564 123.058 575.098 123.203 574.714 123.491C574.331 123.78 574.039 124.185 573.841 124.706C573.646 125.227 573.549 125.84 573.549 126.545ZM583.528 132V121.091H586.021V122.909H586.135C586.333 122.279 586.674 121.794 587.157 121.453C587.645 121.107 588.201 120.935 588.826 120.935C588.968 120.935 589.127 120.942 589.302 120.956C589.482 120.965 589.631 120.982 589.75 121.006V123.371C589.641 123.333 589.468 123.3 589.231 123.271C588.999 123.238 588.774 123.222 588.556 123.222C588.088 123.222 587.666 123.323 587.292 123.527C586.923 123.726 586.632 124.003 586.419 124.358C586.206 124.713 586.099 125.123 586.099 125.587V132H583.528ZM595.767 132.213C594.702 132.213 593.778 131.979 592.997 131.51C592.216 131.041 591.61 130.385 591.179 129.543C590.753 128.7 590.54 127.715 590.54 126.588C590.54 125.461 590.753 124.474 591.179 123.626C591.61 122.779 592.216 122.121 592.997 121.652C593.778 121.183 594.702 120.949 595.767 120.949C596.832 120.949 597.756 121.183 598.537 121.652C599.318 122.121 599.922 122.779 600.348 123.626C600.779 124.474 600.994 125.461 600.994 126.588C600.994 127.715 600.779 128.7 600.348 129.543C599.922 130.385 599.318 131.041 598.537 131.51C597.756 131.979 596.832 132.213 595.767 132.213ZM595.781 130.153C596.359 130.153 596.842 129.995 597.23 129.678C597.618 129.356 597.907 128.925 598.097 128.385C598.291 127.845 598.388 127.244 598.388 126.581C598.388 125.913 598.291 125.31 598.097 124.77C597.907 124.225 597.618 123.792 597.23 123.47C596.842 123.148 596.359 122.987 595.781 122.987C595.189 122.987 594.697 123.148 594.304 123.47C593.916 123.792 593.625 124.225 593.43 124.77C593.241 125.31 593.146 125.913 593.146 126.581C593.146 127.244 593.241 127.845 593.43 128.385C593.625 128.925 593.916 129.356 594.304 129.678C594.697 129.995 595.189 130.153 595.781 130.153ZM607.225 132.192C606.368 132.192 605.601 131.972 604.924 131.531C604.247 131.091 603.712 130.452 603.319 129.614C602.926 128.776 602.729 127.758 602.729 126.56C602.729 125.348 602.928 124.325 603.326 123.491C603.728 122.653 604.27 122.021 604.952 121.595C605.634 121.164 606.394 120.949 607.232 120.949C607.871 120.949 608.397 121.058 608.809 121.276C609.221 121.489 609.547 121.747 609.789 122.05C610.03 122.348 610.217 122.63 610.35 122.895H610.456V117.455H613.034V132H610.506V130.281H610.35C610.217 130.546 610.025 130.828 609.775 131.126C609.524 131.42 609.192 131.671 608.78 131.879C608.368 132.088 607.85 132.192 607.225 132.192ZM607.942 130.082C608.487 130.082 608.951 129.936 609.334 129.642C609.718 129.344 610.009 128.929 610.208 128.399C610.407 127.869 610.506 127.251 610.506 126.545C610.506 125.84 610.407 125.227 610.208 124.706C610.014 124.185 609.725 123.78 609.341 123.491C608.962 123.203 608.496 123.058 607.942 123.058C607.369 123.058 606.891 123.207 606.507 123.506C606.124 123.804 605.835 124.216 605.641 124.741C605.447 125.267 605.35 125.868 605.35 126.545C605.35 127.227 605.447 127.836 605.641 128.371C605.84 128.901 606.131 129.32 606.515 129.628C606.903 129.931 607.379 130.082 607.942 130.082ZM622.727 127.412V121.091H625.298V132H622.805V130.061H622.692C622.446 130.672 622.041 131.171 621.477 131.56C620.919 131.948 620.23 132.142 619.411 132.142C618.696 132.142 618.063 131.983 617.514 131.666C616.97 131.344 616.544 130.878 616.236 130.267C615.928 129.652 615.774 128.908 615.774 128.037V121.091H618.345V127.639C618.345 128.33 618.535 128.88 618.913 129.287C619.292 129.694 619.789 129.898 620.405 129.898C620.784 129.898 621.151 129.805 621.506 129.621C621.861 129.436 622.152 129.161 622.379 128.797C622.611 128.428 622.727 127.966 622.727 127.412ZM632.701 132.213C631.612 132.213 630.676 131.974 629.895 131.496C629.119 131.018 628.52 130.357 628.098 129.514C627.682 128.667 627.473 127.691 627.473 126.588C627.473 125.48 627.686 124.502 628.113 123.655C628.539 122.803 629.14 122.14 629.917 121.666C630.698 121.188 631.621 120.949 632.686 120.949C633.572 120.949 634.355 121.112 635.037 121.439C635.724 121.761 636.271 122.218 636.678 122.81C637.085 123.397 637.317 124.083 637.374 124.869H634.917C634.817 124.344 634.58 123.906 634.206 123.555C633.837 123.2 633.342 123.023 632.722 123.023C632.196 123.023 631.735 123.165 631.337 123.449C630.939 123.728 630.629 124.131 630.407 124.656C630.189 125.182 630.08 125.812 630.08 126.545C630.08 127.289 630.189 127.928 630.407 128.463C630.624 128.993 630.93 129.403 631.323 129.692C631.721 129.976 632.187 130.118 632.722 130.118C633.101 130.118 633.439 130.047 633.738 129.905C634.041 129.758 634.294 129.547 634.498 129.273C634.701 128.998 634.841 128.664 634.917 128.271H637.374C637.312 129.043 637.085 129.727 636.692 130.324C636.299 130.916 635.764 131.38 635.087 131.716C634.41 132.047 633.614 132.213 632.701 132.213ZM644.933 121.091V123.08H638.661V121.091H644.933ZM640.21 118.477H642.781V128.719C642.781 129.064 642.833 129.33 642.937 129.514C643.046 129.694 643.188 129.817 643.363 129.884C643.538 129.95 643.732 129.983 643.945 129.983C644.106 129.983 644.253 129.971 644.386 129.947C644.523 129.924 644.627 129.902 644.698 129.884L645.131 131.893C644.994 131.941 644.798 131.993 644.542 132.05C644.291 132.107 643.983 132.14 643.619 132.149C642.975 132.168 642.395 132.071 641.879 131.858C641.362 131.64 640.953 131.304 640.65 130.849C640.352 130.395 640.205 129.827 640.21 129.145V118.477ZM647.083 132V121.091H649.654V132H647.083ZM648.375 119.543C647.968 119.543 647.618 119.408 647.324 119.138C647.031 118.863 646.884 118.534 646.884 118.151C646.884 117.762 647.031 117.433 647.324 117.163C647.618 116.889 647.968 116.751 648.375 116.751C648.787 116.751 649.138 116.889 649.426 117.163C649.72 117.433 649.867 117.762 649.867 118.151C649.867 118.534 649.72 118.863 649.426 119.138C649.138 119.408 648.787 119.543 648.375 119.543ZM662.042 121.091L658.157 132H655.316L651.431 121.091H654.173L656.68 129.195H656.793L659.308 121.091H662.042ZM668.279 132.213C667.186 132.213 666.241 131.986 665.446 131.531C664.655 131.072 664.047 130.423 663.62 129.585C663.194 128.742 662.981 127.75 662.981 126.609C662.981 125.487 663.194 124.502 663.62 123.655C664.051 122.803 664.653 122.14 665.424 121.666C666.196 121.188 667.103 120.949 668.145 120.949C668.817 120.949 669.451 121.058 670.048 121.276C670.649 121.489 671.18 121.82 671.639 122.27C672.103 122.72 672.467 123.293 672.733 123.989C672.998 124.68 673.13 125.504 673.13 126.46V127.249H664.189V125.516H670.666C670.661 125.023 670.555 124.585 670.346 124.202C670.138 123.813 669.847 123.508 669.473 123.286C669.103 123.063 668.672 122.952 668.18 122.952C667.654 122.952 667.193 123.08 666.795 123.335C666.397 123.586 666.087 123.918 665.865 124.33C665.647 124.737 665.536 125.184 665.531 125.672V127.185C665.531 127.819 665.647 128.364 665.879 128.818C666.111 129.268 666.435 129.614 666.852 129.855C667.269 130.092 667.756 130.21 668.315 130.21C668.689 130.21 669.028 130.158 669.331 130.054C669.634 129.945 669.896 129.786 670.119 129.578C670.342 129.37 670.51 129.112 670.623 128.804L673.024 129.074C672.872 129.708 672.583 130.262 672.157 130.736C671.736 131.205 671.196 131.569 670.538 131.83C669.88 132.085 669.127 132.213 668.279 132.213ZM688.888 123.974L686.545 124.23C686.478 123.993 686.362 123.771 686.197 123.562C686.036 123.354 685.818 123.186 685.543 123.058C685.269 122.93 684.933 122.866 684.535 122.866C684 122.866 683.55 122.982 683.185 123.214C682.826 123.446 682.648 123.747 682.653 124.116C682.648 124.434 682.764 124.692 683.001 124.891C683.242 125.089 683.64 125.253 684.194 125.381L686.055 125.778C687.087 126.001 687.854 126.354 688.356 126.837C688.862 127.32 689.118 127.952 689.123 128.733C689.118 129.42 688.917 130.026 688.519 130.551C688.126 131.072 687.579 131.479 686.879 131.773C686.178 132.066 685.373 132.213 684.464 132.213C683.129 132.213 682.054 131.934 681.239 131.375C680.425 130.812 679.94 130.028 679.783 129.024L682.29 128.783C682.404 129.275 682.646 129.647 683.015 129.898C683.384 130.149 683.865 130.274 684.457 130.274C685.067 130.274 685.558 130.149 685.927 129.898C686.301 129.647 686.488 129.337 686.488 128.967C686.488 128.655 686.367 128.397 686.126 128.193C685.889 127.99 685.52 127.833 685.018 127.724L683.157 127.334C682.111 127.116 681.336 126.749 680.835 126.233C680.333 125.712 680.084 125.054 680.089 124.259C680.084 123.586 680.266 123.004 680.636 122.511C681.01 122.014 681.528 121.631 682.191 121.361C682.859 121.086 683.628 120.949 684.499 120.949C685.778 120.949 686.784 121.221 687.518 121.766C688.256 122.31 688.713 123.046 688.888 123.974ZM692.841 136.091C692.491 136.091 692.166 136.063 691.868 136.006C691.574 135.954 691.34 135.892 691.165 135.821L691.761 133.818C692.135 133.927 692.469 133.979 692.763 133.974C693.056 133.97 693.314 133.877 693.537 133.697C693.764 133.522 693.956 133.229 694.112 132.817L694.332 132.227L690.376 121.091H693.104L695.618 129.33H695.732L698.253 121.091H700.987L696.619 133.321C696.416 133.899 696.146 134.393 695.81 134.805C695.473 135.222 695.062 135.539 694.574 135.757C694.091 135.98 693.513 136.091 692.841 136.091ZM711.388 123.974L709.045 124.23C708.978 123.993 708.862 123.771 708.697 123.562C708.536 123.354 708.318 123.186 708.043 123.058C707.769 122.93 707.433 122.866 707.035 122.866C706.5 122.866 706.05 122.982 705.685 123.214C705.326 123.446 705.148 123.747 705.153 124.116C705.148 124.434 705.264 124.692 705.501 124.891C705.742 125.089 706.14 125.253 706.694 125.381L708.555 125.778C709.587 126.001 710.354 126.354 710.856 126.837C711.362 127.32 711.618 127.952 711.623 128.733C711.618 129.42 711.417 130.026 711.019 130.551C710.626 131.072 710.079 131.479 709.379 131.773C708.678 132.066 707.873 132.213 706.964 132.213C705.629 132.213 704.554 131.934 703.739 131.375C702.925 130.812 702.44 130.028 702.283 129.024L704.79 128.783C704.904 129.275 705.146 129.647 705.515 129.898C705.884 130.149 706.365 130.274 706.957 130.274C707.567 130.274 708.058 130.149 708.427 129.898C708.801 129.647 708.988 129.337 708.988 128.967C708.988 128.655 708.867 128.397 708.626 128.193C708.389 127.99 708.02 127.833 707.518 127.724L705.657 127.334C704.611 127.116 703.836 126.749 703.335 126.233C702.833 125.712 702.584 125.054 702.589 124.259C702.584 123.586 702.766 123.004 703.136 122.511C703.51 122.014 704.028 121.631 704.691 121.361C705.359 121.086 706.128 120.949 706.999 120.949C708.278 120.949 709.284 121.221 710.018 121.766C710.756 122.31 711.213 123.046 711.388 123.974ZM719.19 121.091V123.08H712.919V121.091H719.19ZM714.467 118.477H717.038V128.719C717.038 129.064 717.09 129.33 717.195 129.514C717.304 129.694 717.446 129.817 717.621 129.884C717.796 129.95 717.99 129.983 718.203 129.983C718.364 129.983 718.511 129.971 718.643 129.947C718.781 129.924 718.885 129.902 718.956 129.884L719.389 131.893C719.252 131.941 719.055 131.993 718.8 132.05C718.549 132.107 718.241 132.14 717.876 132.149C717.232 132.168 716.652 132.071 716.136 131.858C715.62 131.64 715.211 131.304 714.908 130.849C714.609 130.395 714.463 129.827 714.467 129.145V118.477ZM726.053 132.213C724.959 132.213 724.015 131.986 723.219 131.531C722.428 131.072 721.82 130.423 721.394 129.585C720.968 128.742 720.755 127.75 720.755 126.609C720.755 125.487 720.968 124.502 721.394 123.655C721.825 122.803 722.426 122.14 723.198 121.666C723.97 121.188 724.876 120.949 725.918 120.949C726.59 120.949 727.225 121.058 727.821 121.276C728.423 121.489 728.953 121.82 729.412 122.27C729.876 122.72 730.241 123.293 730.506 123.989C730.771 124.68 730.904 125.504 730.904 126.46V127.249H721.962V125.516H728.439C728.435 125.023 728.328 124.585 728.12 124.202C727.911 123.813 727.62 123.508 727.246 123.286C726.877 123.063 726.446 122.952 725.953 122.952C725.428 122.952 724.966 123.08 724.569 123.335C724.171 123.586 723.861 123.918 723.638 124.33C723.42 124.737 723.309 125.184 723.304 125.672V127.185C723.304 127.819 723.42 128.364 723.652 128.818C723.884 129.268 724.209 129.614 724.625 129.855C725.042 130.092 725.53 130.21 726.088 130.21C726.462 130.21 726.801 130.158 727.104 130.054C727.407 129.945 727.67 129.786 727.892 129.578C728.115 129.37 728.283 129.112 728.397 128.804L730.797 129.074C730.646 129.708 730.357 130.262 729.931 130.736C729.509 131.205 728.97 131.569 728.311 131.83C727.653 132.085 726.9 132.213 726.053 132.213ZM733.079 132V121.091H735.536V122.945H735.664C735.891 122.32 736.268 121.832 736.793 121.482C737.319 121.126 737.946 120.949 738.675 120.949C739.414 120.949 740.037 121.129 740.543 121.489C741.055 121.844 741.415 122.329 741.623 122.945H741.737C741.978 122.339 742.385 121.856 742.958 121.496C743.536 121.131 744.22 120.949 745.011 120.949C746.014 120.949 746.834 121.266 747.468 121.901C748.103 122.535 748.42 123.461 748.42 124.678V132H745.842V125.075C745.842 124.398 745.662 123.903 745.302 123.591C744.942 123.274 744.502 123.115 743.981 123.115C743.361 123.115 742.875 123.309 742.525 123.697C742.179 124.081 742.006 124.58 742.006 125.196V132H739.485V124.969C739.485 124.405 739.315 123.955 738.974 123.619C738.638 123.283 738.197 123.115 737.653 123.115C737.283 123.115 736.947 123.21 736.644 123.399C736.341 123.584 736.1 123.847 735.92 124.188C735.74 124.524 735.65 124.917 735.65 125.366V132H733.079ZM759.65 123.974L757.306 124.23C757.24 123.993 757.124 123.771 756.958 123.562C756.797 123.354 756.58 123.186 756.305 123.058C756.03 122.93 755.694 122.866 755.297 122.866C754.761 122.866 754.312 122.982 753.947 123.214C753.587 123.446 753.41 123.747 753.414 124.116C753.41 124.434 753.526 124.692 753.762 124.891C754.004 125.089 754.402 125.253 754.956 125.381L756.816 125.778C757.849 126.001 758.616 126.354 759.118 126.837C759.624 127.32 759.88 127.952 759.885 128.733C759.88 129.42 759.679 130.026 759.281 130.551C758.888 131.072 758.341 131.479 757.64 131.773C756.94 132.066 756.135 132.213 755.225 132.213C753.89 132.213 752.815 131.934 752.001 131.375C751.187 130.812 750.701 130.028 750.545 129.024L753.052 128.783C753.166 129.275 753.407 129.647 753.777 129.898C754.146 130.149 754.627 130.274 755.218 130.274C755.829 130.274 756.319 130.149 756.689 129.898C757.063 129.647 757.25 129.337 757.25 128.967C757.25 128.655 757.129 128.397 756.887 128.193C756.651 127.99 756.281 127.833 755.779 127.724L753.919 127.334C752.872 127.116 752.098 126.749 751.596 126.233C751.094 125.712 750.846 125.054 750.85 124.259C750.846 123.586 751.028 123.004 751.397 122.511C751.771 122.014 752.29 121.631 752.953 121.361C753.62 121.086 754.39 120.949 755.261 120.949C756.539 120.949 757.546 121.221 758.279 121.766C759.018 122.31 759.475 123.046 759.65 123.974ZM771.724 132.213C770.659 132.213 769.735 131.979 768.954 131.51C768.173 131.041 767.567 130.385 767.136 129.543C766.71 128.7 766.497 127.715 766.497 126.588C766.497 125.461 766.71 124.474 767.136 123.626C767.567 122.779 768.173 122.121 768.954 121.652C769.735 121.183 770.659 120.949 771.724 120.949C772.789 120.949 773.713 121.183 774.494 121.652C775.275 122.121 775.879 122.779 776.305 123.626C776.736 124.474 776.951 125.461 776.951 126.588C776.951 127.715 776.736 128.7 776.305 129.543C775.879 130.385 775.275 131.041 774.494 131.51C773.713 131.979 772.789 132.213 771.724 132.213ZM771.738 130.153C772.316 130.153 772.799 129.995 773.187 129.678C773.575 129.356 773.864 128.925 774.054 128.385C774.248 127.845 774.345 127.244 774.345 126.581C774.345 125.913 774.248 125.31 774.054 124.77C773.864 124.225 773.575 123.792 773.187 123.47C772.799 123.148 772.316 122.987 771.738 122.987C771.146 122.987 770.654 123.148 770.261 123.47C769.873 123.792 769.582 124.225 769.387 124.77C769.198 125.31 769.103 125.913 769.103 126.581C769.103 127.244 769.198 127.845 769.387 128.385C769.582 128.925 769.873 129.356 770.261 129.678C770.654 129.995 771.146 130.153 771.738 130.153ZM781.705 125.608V132H779.134V121.091H781.591V122.945H781.719C781.97 122.334 782.37 121.848 782.919 121.489C783.473 121.129 784.157 120.949 784.972 120.949C785.724 120.949 786.38 121.11 786.939 121.432C787.502 121.754 787.938 122.22 788.246 122.831C788.558 123.442 788.712 124.183 788.707 125.054V132H786.136V125.452C786.136 124.723 785.947 124.152 785.568 123.74C785.194 123.328 784.676 123.122 784.013 123.122C783.563 123.122 783.163 123.222 782.812 123.42C782.467 123.615 782.195 123.896 781.996 124.266C781.802 124.635 781.705 125.082 781.705 125.608ZM806.14 122.099C806.022 121.716 805.858 121.373 805.65 121.07C805.446 120.762 805.2 120.499 804.911 120.281C804.627 120.063 804.3 119.9 803.931 119.791C803.562 119.678 803.159 119.621 802.724 119.621C801.942 119.621 801.246 119.817 800.636 120.21C800.025 120.603 799.544 121.181 799.194 121.943C798.848 122.701 798.675 123.624 798.675 124.713C798.675 125.812 798.848 126.742 799.194 127.504C799.54 128.267 800.02 128.847 800.636 129.244C801.251 129.637 801.966 129.834 802.781 129.834C803.519 129.834 804.158 129.692 804.698 129.408C805.243 129.124 805.662 128.721 805.955 128.2C806.249 127.675 806.396 127.059 806.396 126.354L806.992 126.446H803.043V124.386H808.945V126.134C808.945 127.379 808.68 128.456 808.15 129.365C807.62 130.274 806.89 130.975 805.962 131.467C805.034 131.955 803.969 132.199 802.766 132.199C801.426 132.199 800.25 131.898 799.237 131.297C798.228 130.691 797.44 129.831 796.871 128.719C796.308 127.601 796.026 126.276 796.026 124.741C796.026 123.567 796.192 122.518 796.523 121.595C796.86 120.672 797.328 119.888 797.93 119.244C798.531 118.596 799.237 118.103 800.046 117.767C800.856 117.426 801.737 117.256 802.688 117.256C803.493 117.256 804.244 117.374 804.94 117.611C805.636 117.843 806.254 118.174 806.793 118.605C807.338 119.036 807.785 119.547 808.136 120.139C808.486 120.731 808.716 121.384 808.825 122.099H806.14ZM816.138 132.213C815.073 132.213 814.15 131.979 813.368 131.51C812.587 131.041 811.981 130.385 811.55 129.543C811.124 128.7 810.911 127.715 810.911 126.588C810.911 125.461 811.124 124.474 811.55 123.626C811.981 122.779 812.587 122.121 813.368 121.652C814.15 121.183 815.073 120.949 816.138 120.949C817.203 120.949 818.127 121.183 818.908 121.652C819.689 122.121 820.293 122.779 820.719 123.626C821.15 124.474 821.365 125.461 821.365 126.588C821.365 127.715 821.15 128.7 820.719 129.543C820.293 130.385 819.689 131.041 818.908 131.51C818.127 131.979 817.203 132.213 816.138 132.213ZM816.152 130.153C816.73 130.153 817.213 129.995 817.601 129.678C817.989 129.356 818.278 128.925 818.468 128.385C818.662 127.845 818.759 127.244 818.759 126.581C818.759 125.913 818.662 125.31 818.468 124.77C818.278 124.225 817.989 123.792 817.601 123.47C817.213 123.148 816.73 122.987 816.152 122.987C815.56 122.987 815.068 123.148 814.675 123.47C814.287 123.792 813.996 124.225 813.801 124.77C813.612 125.31 813.517 125.913 813.517 126.581C813.517 127.244 813.612 127.845 813.801 128.385C813.996 128.925 814.287 129.356 814.675 129.678C815.068 129.995 815.56 130.153 816.152 130.153Z" fill="white"/>
<path d="M27.2955 66V42.7273H31.5114V52.5795H42.2955V42.7273H46.5227V66H42.2955V56.1136H31.5114V66H27.2955ZM50.9261 66V48.5455H55.0398V66H50.9261ZM52.9943 46.0682C52.3428 46.0682 51.7822 45.8523 51.3125 45.4205C50.8428 44.9811 50.608 44.4545 50.608 43.8409C50.608 43.2197 50.8428 42.6932 51.3125 42.2614C51.7822 41.822 52.3428 41.6023 52.9943 41.6023C53.6534 41.6023 54.214 41.822 54.6761 42.2614C55.1458 42.6932 55.3807 43.2197 55.3807 43.8409C55.3807 44.4545 55.1458 44.9811 54.6761 45.4205C54.214 45.8523 53.6534 46.0682 52.9943 46.0682ZM64.0994 62.8182L63.9517 64.0682C63.8456 65.0227 63.6563 65.9924 63.3835 66.9773C63.1184 67.9697 62.8381 68.8826 62.5426 69.7159C62.2472 70.5492 62.0085 71.2045 61.8267 71.6818H59.054C59.16 71.2197 59.304 70.5909 59.4858 69.7955C59.6752 69 59.857 68.1061 60.0312 67.1136C60.2055 66.1212 60.3229 65.1136 60.3835 64.0909L60.4631 62.8182H64.0994ZM80.3239 42.7273V66H76.108V42.7273H80.3239ZM87.5483 42.7273V51.2955H84.4119V42.7273H87.5483ZM91.5199 66V48.5455H95.4517V51.5114H95.6562C96.0199 50.5114 96.6222 49.7311 97.4631 49.1705C98.304 48.6023 99.3078 48.3182 100.474 48.3182C101.656 48.3182 102.652 48.6061 103.463 49.1818C104.281 49.75 104.857 50.5265 105.19 51.5114H105.372C105.759 50.5417 106.41 49.7689 107.327 49.1932C108.251 48.6098 109.346 48.3182 110.611 48.3182C112.217 48.3182 113.527 48.8258 114.543 49.8409C115.558 50.8561 116.065 52.3371 116.065 54.2841V66H111.94V54.9205C111.94 53.8371 111.652 53.0455 111.077 52.5455C110.501 52.0379 109.796 51.7841 108.963 51.7841C107.971 51.7841 107.194 52.0947 106.634 52.7159C106.08 53.3295 105.804 54.1288 105.804 55.1136V66H101.77V54.75C101.77 53.8485 101.497 53.1288 100.952 52.5909C100.414 52.053 99.7093 51.7841 98.8381 51.7841C98.2472 51.7841 97.7093 51.9356 97.2244 52.2386C96.7396 52.5341 96.3532 52.9545 96.0653 53.5C95.7775 54.0379 95.6335 54.6667 95.6335 55.3864V66H91.5199ZM132.574 42.7273V66H128.358V42.7273H132.574ZM141.355 42.7273V66H137.139V42.7273H141.355ZM149.489 60.5227L149.477 55.5568H150.136L156.409 48.5455H161.216L153.5 57.1364H152.648L149.489 60.5227ZM145.739 66V42.7273H149.852V66H145.739ZM156.693 66L151.011 58.0568L153.784 55.1591L161.614 66H156.693ZM168.98 66.3523C167.874 66.3523 166.878 66.1553 165.991 65.7614C165.113 65.3598 164.416 64.7689 163.901 63.9886C163.393 63.2083 163.139 62.2462 163.139 61.1023C163.139 60.1174 163.321 59.303 163.685 58.6591C164.048 58.0152 164.545 57.5 165.173 57.1136C165.802 56.7273 166.51 56.4356 167.298 56.2386C168.094 56.0341 168.916 55.8864 169.764 55.7955C170.787 55.6894 171.616 55.5947 172.253 55.5114C172.889 55.4205 173.351 55.2841 173.639 55.1023C173.935 54.9129 174.082 54.6212 174.082 54.2273V54.1591C174.082 53.303 173.829 52.6402 173.321 52.1705C172.813 51.7008 172.082 51.4659 171.128 51.4659C170.12 51.4659 169.321 51.6856 168.73 52.125C168.147 52.5644 167.753 53.0833 167.548 53.6818L163.707 53.1364C164.01 52.0758 164.51 51.1894 165.207 50.4773C165.904 49.7576 166.757 49.2197 167.764 48.8636C168.772 48.5 169.885 48.3182 171.105 48.3182C171.946 48.3182 172.783 48.4167 173.616 48.6136C174.45 48.8106 175.211 49.1364 175.901 49.5909C176.59 50.0379 177.143 50.6477 177.56 51.4205C177.984 52.1932 178.196 53.1591 178.196 54.3182V66H174.241V63.6023H174.105C173.855 64.0871 173.503 64.5417 173.048 64.9659C172.601 65.3826 172.037 65.7197 171.355 65.9773C170.681 66.2273 169.889 66.3523 168.98 66.3523ZM170.048 63.3295C170.874 63.3295 171.59 63.1667 172.196 62.8409C172.802 62.5076 173.268 62.0682 173.594 61.5227C173.927 60.9773 174.094 60.3826 174.094 59.7386V57.6818C173.965 57.7879 173.745 57.8864 173.435 57.9773C173.132 58.0682 172.791 58.1477 172.412 58.2159C172.033 58.2841 171.658 58.3447 171.287 58.3977C170.916 58.4508 170.594 58.4962 170.321 58.5341C169.707 58.6174 169.158 58.7538 168.673 58.9432C168.188 59.1326 167.806 59.3977 167.526 59.7386C167.245 60.072 167.105 60.5038 167.105 61.0341C167.105 61.7917 167.382 62.3636 167.935 62.75C168.488 63.1364 169.192 63.3295 170.048 63.3295ZM182.332 66V48.5455H186.321V51.4545H186.503C186.821 50.447 187.366 49.6705 188.139 49.125C188.92 48.572 189.81 48.2955 190.81 48.2955C191.037 48.2955 191.291 48.3068 191.571 48.3295C191.859 48.3447 192.098 48.3712 192.287 48.4091V52.1932C192.113 52.1326 191.836 52.0795 191.457 52.0341C191.086 51.9811 190.726 51.9545 190.378 51.9545C189.628 51.9545 188.954 52.1174 188.355 52.4432C187.764 52.7614 187.298 53.2045 186.957 53.7727C186.616 54.3409 186.446 54.9962 186.446 55.7386V66H182.332ZM203.088 66H195.202V42.7273H203.247C205.558 42.7273 207.543 43.1932 209.202 44.125C210.868 45.0492 212.149 46.3788 213.043 48.1136C213.937 49.8485 214.384 51.9242 214.384 54.3409C214.384 56.7652 213.933 58.8485 213.031 60.5909C212.137 62.3333 210.846 63.6705 209.156 64.6023C207.474 65.5341 205.452 66 203.088 66ZM199.418 62.3523H202.884C204.505 62.3523 205.857 62.0568 206.94 61.4659C208.024 60.8674 208.838 59.9773 209.384 58.7955C209.929 57.6061 210.202 56.1212 210.202 54.3409C210.202 52.5606 209.929 51.0833 209.384 49.9091C208.838 48.7273 208.031 47.8447 206.963 47.2614C205.902 46.6705 204.584 46.375 203.009 46.375H199.418V62.3523ZM225.935 66.3409C224.185 66.3409 222.673 65.9773 221.401 65.25C220.135 64.5152 219.162 63.4773 218.48 62.1364C217.798 60.7879 217.457 59.2008 217.457 57.375C217.457 55.5795 217.798 54.0038 218.48 52.6477C219.17 51.2841 220.132 50.2235 221.366 49.4659C222.601 48.7008 224.052 48.3182 225.719 48.3182C226.795 48.3182 227.81 48.4924 228.764 48.8409C229.726 49.1818 230.575 49.7121 231.31 50.4318C232.052 51.1515 232.635 52.0682 233.06 53.1818C233.484 54.2879 233.696 55.6061 233.696 57.1364V58.3977H219.389V55.625H229.753C229.745 54.8371 229.575 54.1364 229.241 53.5227C228.908 52.9015 228.442 52.4129 227.844 52.0568C227.253 51.7008 226.563 51.5227 225.776 51.5227C224.935 51.5227 224.196 51.7273 223.56 52.1364C222.923 52.5379 222.427 53.0682 222.071 53.7273C221.723 54.3788 221.545 55.0947 221.537 55.875V58.2955C221.537 59.3106 221.723 60.1818 222.094 60.9091C222.465 61.6288 222.984 62.1818 223.651 62.5682C224.317 62.947 225.098 63.1364 225.991 63.1364C226.59 63.1364 227.132 63.053 227.616 62.8864C228.101 62.7121 228.522 62.4583 228.878 62.125C229.234 61.7917 229.503 61.3788 229.685 60.8864L233.526 61.3182C233.283 62.3333 232.821 63.2197 232.139 63.9773C231.465 64.7273 230.601 65.3106 229.548 65.7273C228.495 66.1364 227.291 66.3409 225.935 66.3409ZM252.267 48.5455L246.051 66H241.506L235.29 48.5455H239.676L243.688 61.5114H243.869L247.892 48.5455H252.267Z" fill="white"/>
<g clip-path="url(#clip0_0_1)">
<path d="M268.726 45.8929C269.64 45.2541 271.017 45.3766 271.838 46.0543L270.897 44.6864C270.14 43.6062 270.411 42.4376 271.492 41.6793C272.573 40.9239 275.637 42.9548 275.637 42.9548C274.872 41.864 275.015 40.4815 276.106 39.7164C277.197 38.9541 278.702 39.2176 279.466 40.3104L289.597 54.6215L288.306 67.1389L277.53 63.2091L268.132 49.2743C267.361 48.1766 267.627 46.6629 268.726 45.8929Z" fill="#EF9645"/>
<path d="M266.62 53.8544C266.62 53.8544 265.52 52.2503 267.125 51.1507C268.728 50.0511 269.827 51.6543 269.827 51.6543L274.933 59.0996C275.109 58.806 275.301 58.5162 275.516 58.2304L268.43 47.8986C268.43 47.8986 267.331 46.2954 268.935 45.1958C270.538 44.0962 271.638 45.6994 271.638 45.6994L278.302 55.4187C278.55 55.2165 278.804 55.0133 279.066 54.814L271.339 43.545C271.339 43.545 270.24 41.9418 271.844 40.8422C273.447 39.7426 274.547 41.3458 274.547 41.3458L282.273 52.6129C282.557 52.4389 282.838 52.2882 283.12 52.1287L275.898 41.5976C275.898 41.5976 274.798 39.9944 276.402 38.8949C278.005 37.7953 279.104 39.3985 279.104 39.3985L286.74 50.5343L287.901 52.2279C283.091 55.5276 282.633 61.7353 285.381 65.7437C285.93 66.5458 286.732 65.9965 286.732 65.9965C283.434 61.185 284.441 55.7785 289.252 52.4797L287.834 45.3806C287.834 45.3806 287.304 43.51 289.174 42.9792C291.044 42.4493 291.575 44.3199 291.575 44.3199L293.213 49.1849C293.863 51.1137 294.554 53.0358 295.469 54.8539C298.052 59.9872 296.509 66.3669 291.638 69.7085C286.325 73.3514 279.062 71.9971 275.418 66.6849L266.62 53.8544Z" fill="#FFDC5D"/>
<path d="M275.667 68.152C271.778 68.152 267.848 64.2223 267.848 60.3334C267.848 59.7958 267.454 59.3612 266.917 59.3612C266.379 59.3612 265.904 59.7958 265.904 60.3334C265.904 66.1668 269.833 70.0965 275.667 70.0965C276.204 70.0965 276.639 69.6211 276.639 69.0834C276.639 68.5458 276.204 68.152 275.667 68.152Z" fill="#5DADEC"/>
<path d="M270.806 70.0556C267.889 70.0556 265.944 68.1111 265.944 65.1945C265.944 64.6568 265.51 64.2222 264.972 64.2222C264.435 64.2222 264 64.6568 264 65.1945C264 69.0833 266.917 72 270.806 72C271.343 72 271.778 71.5654 271.778 71.0278C271.778 70.4902 271.343 70.0556 270.806 70.0556ZM287.333 38.9445C286.797 38.9445 286.361 39.38 286.361 39.9167C286.361 40.4533 286.797 40.8889 287.333 40.8889C291.222 40.8889 295.111 44.3782 295.111 48.6667C295.111 49.2033 295.547 49.6389 296.083 49.6389C296.62 49.6389 297.056 49.2033 297.056 48.6667C297.056 43.3058 293.167 38.9445 287.333 38.9445Z" fill="#5DADEC"/>
<path d="M292.194 37.0409C291.658 37.0409 291.222 37.4356 291.222 37.9723C291.222 38.5089 291.658 38.9853 292.194 38.9853C295.111 38.9853 297.015 41.1485 297.015 43.8056C297.015 44.3423 297.49 44.7778 298.028 44.7778C298.565 44.7778 298.959 44.3423 298.959 43.8056C298.959 40.0752 296.083 37.0409 292.194 37.0409Z" fill="#5DADEC"/>
</g>
<rect x="3" y="156" width="1270" height="6" fill="#3D444D"/>
<defs>
<linearGradient id="paint0_linear_0_1" x1="-1.45218e-07" y1="77" x2="1267.03" y2="216.784" gradientUnits="userSpaceOnUse">
<stop stop-color="#A67AFF"/>
<stop offset="1" stop-color="#0059BE"/>
</linearGradient>
<linearGradient id="paint1_linear_0_1" x1="-1.45218e-07" y1="77" x2="1267.03" y2="216.784" gradientUnits="userSpaceOnUse">
<stop stop-color="#A67AFF"/>
<stop offset="1" stop-color="#0059BE"/>
</linearGradient>
<linearGradient id="paint2_linear_0_1" x1="-1.45218e-07" y1="77" x2="1267.03" y2="216.784" gradientUnits="userSpaceOnUse">
<stop stop-color="#A67AFF"/>
<stop offset="1" stop-color="#0059BE"/>
</linearGradient>
<clipPath id="clip0_0_1">
<rect width="35" height="35" fill="white" transform="translate(264 37)"/>
</clipPath>
</defs>
</svg>
