<svg width="1278" height="154" viewBox="0 0 1278 154" fill="none" xmlns="http://www.w3.org/2000/svg">
<rect y="95" width="876" height="59" fill="#0D1117"/>
<path d="M0 24C0 10.7452 10.7452 0 24 0H1254C1267.25 0 1278 10.7452 1278 24V95H0V24Z" fill="url(#paint0_linear_0_1)"/>
<path d="M853 71H1278V154H853V71Z" fill="url(#paint1_linear_0_1)"/>
<path d="M784.07 125.761C759.68 103.976 712.535 95.6724 695 95H857V154C842.454 153.832 808.46 147.545 784.07 125.761Z" fill="url(#paint2_linear_0_1)"/>
<path d="M712 26H937V96H712V26Z" fill="url(#paint3_linear_0_1)"/>
<path d="M27.2955 64V40.7273H31.5114V50.5795H42.2955V40.7273H46.5227V64H42.2955V54.1136H31.5114V64H27.2955ZM50.9261 64V46.5455H55.0398V64H50.9261ZM52.9943 44.0682C52.3428 44.0682 51.7822 43.8523 51.3125 43.4205C50.8428 42.9811 50.608 42.4545 50.608 41.8409C50.608 41.2197 50.8428 40.6932 51.3125 40.2614C51.7822 39.822 52.3428 39.6023 52.9943 39.6023C53.6534 39.6023 54.214 39.822 54.6761 40.2614C55.1458 40.6932 55.3807 41.2197 55.3807 41.8409C55.3807 42.4545 55.1458 42.9811 54.6761 43.4205C54.214 43.8523 53.6534 44.0682 52.9943 44.0682ZM64.0994 60.8182L63.9517 62.0682C63.8456 63.0227 63.6563 63.9924 63.3835 64.9773C63.1184 65.9697 62.8381 66.8826 62.5426 67.7159C62.2472 68.5492 62.0085 69.2045 61.8267 69.6818H59.054C59.16 69.2197 59.304 68.5909 59.4858 67.7955C59.6752 67 59.857 66.1061 60.0312 65.1136C60.2055 64.1212 60.3229 63.1136 60.3835 62.0909L60.4631 60.8182H64.0994ZM80.3239 40.7273V64H76.108V40.7273H80.3239ZM87.5483 40.7273V49.2955H84.4119V40.7273H87.5483ZM91.5199 64V46.5455H95.4517V49.5114H95.6562C96.0199 48.5114 96.6222 47.7311 97.4631 47.1705C98.304 46.6023 99.3078 46.3182 100.474 46.3182C101.656 46.3182 102.652 46.6061 103.463 47.1818C104.281 47.75 104.857 48.5265 105.19 49.5114H105.372C105.759 48.5417 106.41 47.7689 107.327 47.1932C108.251 46.6098 109.346 46.3182 110.611 46.3182C112.217 46.3182 113.527 46.8258 114.543 47.8409C115.558 48.8561 116.065 50.3371 116.065 52.2841V64H111.94V52.9205C111.94 51.8371 111.652 51.0455 111.077 50.5455C110.501 50.0379 109.796 49.7841 108.963 49.7841C107.971 49.7841 107.194 50.0947 106.634 50.7159C106.08 51.3295 105.804 52.1288 105.804 53.1136V64H101.77V52.75C101.77 51.8485 101.497 51.1288 100.952 50.5909C100.414 50.053 99.7093 49.7841 98.8381 49.7841C98.2472 49.7841 97.7093 49.9356 97.2244 50.2386C96.7396 50.5341 96.3532 50.9545 96.0653 51.5C95.7775 52.0379 95.6335 52.6667 95.6335 53.3864V64H91.5199ZM132.574 40.7273V64H128.358V40.7273H132.574ZM141.355 40.7273V64H137.139V40.7273H141.355ZM149.489 58.5227L149.477 53.5568H150.136L156.409 46.5455H161.216L153.5 55.1364H152.648L149.489 58.5227ZM145.739 64V40.7273H149.852V64H145.739ZM156.693 64L151.011 56.0568L153.784 53.1591L161.614 64H156.693ZM168.98 64.3523C167.874 64.3523 166.878 64.1553 165.991 63.7614C165.113 63.3598 164.416 62.7689 163.901 61.9886C163.393 61.2083 163.139 60.2462 163.139 59.1023C163.139 58.1174 163.321 57.303 163.685 56.6591C164.048 56.0152 164.545 55.5 165.173 55.1136C165.802 54.7273 166.51 54.4356 167.298 54.2386C168.094 54.0341 168.916 53.8864 169.764 53.7955C170.787 53.6894 171.616 53.5947 172.253 53.5114C172.889 53.4205 173.351 53.2841 173.639 53.1023C173.935 52.9129 174.082 52.6212 174.082 52.2273V52.1591C174.082 51.303 173.829 50.6402 173.321 50.1705C172.813 49.7008 172.082 49.4659 171.128 49.4659C170.12 49.4659 169.321 49.6856 168.73 50.125C168.147 50.5644 167.753 51.0833 167.548 51.6818L163.707 51.1364C164.01 50.0758 164.51 49.1894 165.207 48.4773C165.904 47.7576 166.757 47.2197 167.764 46.8636C168.772 46.5 169.885 46.3182 171.105 46.3182C171.946 46.3182 172.783 46.4167 173.616 46.6136C174.45 46.8106 175.211 47.1364 175.901 47.5909C176.59 48.0379 177.143 48.6477 177.56 49.4205C177.984 50.1932 178.196 51.1591 178.196 52.3182V64H174.241V61.6023H174.105C173.855 62.0871 173.503 62.5417 173.048 62.9659C172.601 63.3826 172.037 63.7197 171.355 63.9773C170.681 64.2273 169.889 64.3523 168.98 64.3523ZM170.048 61.3295C170.874 61.3295 171.59 61.1667 172.196 60.8409C172.802 60.5076 173.268 60.0682 173.594 59.5227C173.927 58.9773 174.094 58.3826 174.094 57.7386V55.6818C173.965 55.7879 173.745 55.8864 173.435 55.9773C173.132 56.0682 172.791 56.1477 172.412 56.2159C172.033 56.2841 171.658 56.3447 171.287 56.3977C170.916 56.4508 170.594 56.4962 170.321 56.5341C169.707 56.6174 169.158 56.7538 168.673 56.9432C168.188 57.1326 167.806 57.3977 167.526 57.7386C167.245 58.072 167.105 58.5038 167.105 59.0341C167.105 59.7917 167.382 60.3636 167.935 60.75C168.488 61.1364 169.192 61.3295 170.048 61.3295ZM182.332 64V46.5455H186.321V49.4545H186.503C186.821 48.447 187.366 47.6705 188.139 47.125C188.92 46.572 189.81 46.2955 190.81 46.2955C191.037 46.2955 191.291 46.3068 191.571 46.3295C191.859 46.3447 192.098 46.3712 192.287 46.4091V50.1932C192.113 50.1326 191.836 50.0795 191.457 50.0341C191.086 49.9811 190.726 49.9545 190.378 49.9545C189.628 49.9545 188.954 50.1174 188.355 50.4432C187.764 50.7614 187.298 51.2045 186.957 51.7727C186.616 52.3409 186.446 52.9962 186.446 53.7386V64H182.332ZM203.088 64H195.202V40.7273H203.247C205.558 40.7273 207.543 41.1932 209.202 42.125C210.868 43.0492 212.149 44.3788 213.043 46.1136C213.937 47.8485 214.384 49.9242 214.384 52.3409C214.384 54.7652 213.933 56.8485 213.031 58.5909C212.137 60.3333 210.846 61.6705 209.156 62.6023C207.474 63.5341 205.452 64 203.088 64ZM199.418 60.3523H202.884C204.505 60.3523 205.857 60.0568 206.94 59.4659C208.024 58.8674 208.838 57.9773 209.384 56.7955C209.929 55.6061 210.202 54.1212 210.202 52.3409C210.202 50.5606 209.929 49.0833 209.384 47.9091C208.838 46.7273 208.031 45.8447 206.963 45.2614C205.902 44.6705 204.584 44.375 203.009 44.375H199.418V60.3523ZM225.935 64.3409C224.185 64.3409 222.673 63.9773 221.401 63.25C220.135 62.5152 219.162 61.4773 218.48 60.1364C217.798 58.7879 217.457 57.2008 217.457 55.375C217.457 53.5795 217.798 52.0038 218.48 50.6477C219.17 49.2841 220.132 48.2235 221.366 47.4659C222.601 46.7008 224.052 46.3182 225.719 46.3182C226.795 46.3182 227.81 46.4924 228.764 46.8409C229.726 47.1818 230.575 47.7121 231.31 48.4318C232.052 49.1515 232.635 50.0682 233.06 51.1818C233.484 52.2879 233.696 53.6061 233.696 55.1364V56.3977H219.389V53.625H229.753C229.745 52.8371 229.575 52.1364 229.241 51.5227C228.908 50.9015 228.442 50.4129 227.844 50.0568C227.253 49.7008 226.563 49.5227 225.776 49.5227C224.935 49.5227 224.196 49.7273 223.56 50.1364C222.923 50.5379 222.427 51.0682 222.071 51.7273C221.723 52.3788 221.545 53.0947 221.537 53.875V56.2955C221.537 57.3106 221.723 58.1818 222.094 58.9091C222.465 59.6288 222.984 60.1818 223.651 60.5682C224.317 60.947 225.098 61.1364 225.991 61.1364C226.59 61.1364 227.132 61.053 227.616 60.8864C228.101 60.7121 228.522 60.4583 228.878 60.125C229.234 59.7917 229.503 59.3788 229.685 58.8864L233.526 59.3182C233.283 60.3333 232.821 61.2197 232.139 61.9773C231.465 62.7273 230.601 63.3106 229.548 63.7273C228.495 64.1364 227.291 64.3409 225.935 64.3409ZM252.267 46.5455L246.051 64H241.506L235.29 46.5455H239.676L243.688 59.5114H243.869L247.892 46.5455H252.267ZM260.938 66.24H292.938V34.24H260.938V66.24Z" fill="white"/>
<path d="M28.4592 117.636V130H26.2195V117.636H28.4592ZM37.673 130.187C37.0854 130.187 36.5562 130.083 36.0853 129.873C35.6185 129.66 35.2482 129.346 34.9745 128.931C34.7049 128.517 34.57 128.006 34.57 127.398C34.57 126.875 34.6666 126.442 34.8598 126.1C35.053 125.758 35.3166 125.484 35.6507 125.279C35.9847 125.074 36.361 124.919 36.7796 124.814C37.2021 124.706 37.6388 124.627 38.0896 124.579C38.6329 124.522 39.0736 124.472 39.4117 124.428C39.7497 124.38 39.9952 124.307 40.1482 124.211C40.3051 124.11 40.3836 123.955 40.3836 123.746V123.71C40.3836 123.255 40.2488 122.903 39.9791 122.653C39.7095 122.404 39.3211 122.279 38.814 122.279C38.2787 122.279 37.8541 122.395 37.5402 122.629C37.2303 122.862 37.021 123.138 36.9124 123.456L34.8719 123.166C35.0329 122.603 35.2985 122.132 35.6688 121.754C36.039 121.371 36.4918 121.085 37.0271 120.896C37.5624 120.703 38.154 120.607 38.8019 120.607C39.2487 120.607 39.6934 120.659 40.1361 120.763C40.5788 120.868 40.9833 121.041 41.3495 121.283C41.7158 121.52 42.0096 121.844 42.2309 122.255C42.4563 122.665 42.569 123.178 42.569 123.794V130H40.4681V128.726H40.3957C40.2629 128.984 40.0757 129.225 39.8343 129.451C39.5968 129.672 39.297 129.851 38.9347 129.988C38.5766 130.121 38.156 130.187 37.673 130.187ZM38.2405 128.581C38.6792 128.581 39.0595 128.495 39.3815 128.322C39.7035 128.145 39.951 127.911 40.124 127.621C40.3011 127.332 40.3896 127.016 40.3896 126.674V125.581C40.3212 125.637 40.2045 125.69 40.0395 125.738C39.8785 125.786 39.6974 125.828 39.4962 125.865C39.295 125.901 39.0957 125.933 38.8985 125.961C38.7013 125.989 38.5303 126.014 38.3854 126.034C38.0594 126.078 37.7676 126.15 37.51 126.251C37.2525 126.352 37.0492 126.493 36.9003 126.674C36.7514 126.851 36.6769 127.08 36.6769 127.362C36.6769 127.764 36.8238 128.068 37.1176 128.273C37.4114 128.479 37.7857 128.581 38.2405 128.581ZM44.7664 130V120.727H46.8552V122.303H46.9639C47.157 121.772 47.477 121.357 47.9237 121.059C48.3705 120.757 48.9037 120.607 49.5235 120.607C50.1514 120.607 50.6806 120.759 51.1112 121.065C51.5459 121.367 51.8518 121.78 52.0289 122.303H52.1254C52.3307 121.788 52.6768 121.377 53.1638 121.071C53.6548 120.761 54.2364 120.607 54.9085 120.607C55.7617 120.607 56.4579 120.876 56.9972 121.415C57.5365 121.955 57.8062 122.742 57.8062 123.776V130H55.6148V124.114C55.6148 123.538 55.4619 123.118 55.156 122.852C54.8501 122.583 54.4758 122.448 54.0331 122.448C53.5059 122.448 53.0934 122.613 52.7955 122.943C52.5017 123.269 52.3548 123.693 52.3548 124.217V130H50.2117V124.023C50.2117 123.545 50.0669 123.162 49.7771 122.876C49.4913 122.591 49.117 122.448 48.6542 122.448C48.3403 122.448 48.0545 122.528 47.797 122.689C47.5394 122.846 47.3341 123.07 47.1812 123.359C47.0283 123.645 46.9518 123.979 46.9518 124.362V130H44.7664ZM66.9084 130.187C66.3208 130.187 65.7915 130.083 65.3207 129.873C64.8538 129.66 64.4835 129.346 64.2099 128.931C63.9402 128.517 63.8054 128.006 63.8054 127.398C63.8054 126.875 63.902 126.442 64.0952 126.1C64.2884 125.758 64.552 125.484 64.886 125.279C65.2201 125.074 65.5964 124.919 66.0149 124.814C66.4375 124.706 66.8742 124.627 67.3249 124.579C67.8683 124.522 68.3089 124.472 68.647 124.428C68.9851 124.38 69.2306 124.307 69.3835 124.211C69.5405 124.11 69.619 123.955 69.619 123.746V123.71C69.619 123.255 69.4841 122.903 69.2145 122.653C68.9448 122.404 68.5565 122.279 68.0494 122.279C67.5141 122.279 67.0895 122.395 66.7756 122.629C66.4657 122.862 66.2564 123.138 66.1477 123.456L64.1072 123.166C64.2682 122.603 64.5339 122.132 64.9041 121.754C65.2744 121.371 65.7272 121.085 66.2624 120.896C66.7977 120.703 67.3893 120.607 68.0373 120.607C68.484 120.607 68.9287 120.659 69.3714 120.763C69.8142 120.868 70.2186 121.041 70.5849 121.283C70.9511 121.52 71.2449 121.844 71.4663 122.255C71.6916 122.665 71.8043 123.178 71.8043 123.794V130H69.7035V128.726H69.631C69.4982 128.984 69.3111 129.225 69.0696 129.451C68.8321 129.672 68.5323 129.851 68.1701 129.988C67.8119 130.121 67.3913 130.187 66.9084 130.187ZM67.4759 128.581C67.9145 128.581 68.2949 128.495 68.6168 128.322C68.9388 128.145 69.1863 127.911 69.3594 127.621C69.5365 127.332 69.625 127.016 69.625 126.674V125.581C69.5566 125.637 69.4399 125.69 69.2749 125.738C69.1139 125.786 68.9328 125.828 68.7315 125.865C68.5303 125.901 68.3311 125.933 68.1339 125.961C67.9367 125.989 67.7656 126.014 67.6207 126.034C67.2947 126.078 67.003 126.15 66.7454 126.251C66.4878 126.352 66.2846 126.493 66.1357 126.674C65.9867 126.851 65.9123 127.08 65.9123 127.362C65.9123 127.764 66.0592 128.068 66.353 128.273C66.6468 128.479 67.0211 128.581 67.4759 128.581ZM76.1871 124.567V130H74.0018V120.727H76.0906V122.303H76.1992C76.4125 121.784 76.7526 121.371 77.2195 121.065C77.6903 120.759 78.2719 120.607 78.9641 120.607C79.604 120.607 80.1615 120.743 80.6364 121.017C81.1153 121.291 81.4856 121.687 81.7472 122.206C82.0128 122.725 82.1436 123.355 82.1396 124.096V130H79.9542V124.434C79.9542 123.814 79.7932 123.329 79.4712 122.979C79.1533 122.629 78.7126 122.454 78.1491 122.454C77.7668 122.454 77.4267 122.538 77.1289 122.707C76.8351 122.872 76.6037 123.112 76.4347 123.426C76.2696 123.74 76.1871 124.12 76.1871 124.567ZM91.2463 130.187C90.6587 130.187 90.1294 130.083 89.6586 129.873C89.1917 129.66 88.8214 129.346 88.5478 128.931C88.2781 128.517 88.1433 128.006 88.1433 127.398C88.1433 126.875 88.2399 126.442 88.4331 126.1C88.6262 125.758 88.8899 125.484 89.2239 125.279C89.5579 125.074 89.9342 124.919 90.3528 124.814C90.7754 124.706 91.2121 124.627 91.6628 124.579C92.2061 124.522 92.6468 124.472 92.9849 124.428C93.323 124.38 93.5685 124.307 93.7214 124.211C93.8784 124.11 93.9569 123.955 93.9569 123.746V123.71C93.9569 123.255 93.822 122.903 93.5524 122.653C93.2827 122.404 92.8944 122.279 92.3873 122.279C91.852 122.279 91.4274 122.395 91.1135 122.629C90.8036 122.862 90.5943 123.138 90.4856 123.456L88.4451 123.166C88.6061 122.603 88.8717 122.132 89.242 121.754C89.6123 121.371 90.065 121.085 90.6003 120.896C91.1356 120.703 91.7272 120.607 92.3752 120.607C92.8219 120.607 93.2666 120.659 93.7093 120.763C94.152 120.868 94.5565 121.041 94.9228 121.283C95.289 121.52 95.5828 121.844 95.8042 122.255C96.0295 122.665 96.1422 123.178 96.1422 123.794V130H94.0414V128.726H93.9689C93.8361 128.984 93.649 129.225 93.4075 129.451C93.17 129.672 92.8702 129.851 92.508 129.988C92.1498 130.121 91.7292 130.187 91.2463 130.187ZM91.8137 128.581C92.2524 128.581 92.6328 128.495 92.9547 128.322C93.2767 128.145 93.5242 127.911 93.6973 127.621C93.8743 127.332 93.9629 127.016 93.9629 126.674V125.581C93.8945 125.637 93.7778 125.69 93.6127 125.738C93.4518 125.786 93.2707 125.828 93.0694 125.865C92.8682 125.901 92.669 125.933 92.4718 125.961C92.2746 125.989 92.1035 126.014 91.9586 126.034C91.6326 126.078 91.3409 126.15 91.0833 126.251C90.8257 126.352 90.6225 126.493 90.4735 126.674C90.3246 126.851 90.2502 127.08 90.2502 127.362C90.2502 127.764 90.3971 128.068 90.6909 128.273C90.9847 128.479 91.359 128.581 91.8137 128.581ZM105.669 123.178L103.676 123.396C103.62 123.194 103.521 123.005 103.381 122.828C103.244 122.651 103.059 122.508 102.825 122.4C102.592 122.291 102.306 122.237 101.968 122.237C101.513 122.237 101.131 122.335 100.821 122.532C100.515 122.73 100.364 122.985 100.368 123.299C100.364 123.569 100.463 123.788 100.664 123.957C100.869 124.126 101.207 124.265 101.678 124.374L103.26 124.712C104.137 124.901 104.789 125.201 105.216 125.611C105.646 126.022 105.864 126.559 105.868 127.223C105.864 127.807 105.693 128.322 105.355 128.768C105.021 129.211 104.556 129.557 103.96 129.807C103.364 130.056 102.68 130.181 101.907 130.181C100.773 130.181 99.859 129.944 99.1667 129.469C98.4745 128.99 98.062 128.324 97.9292 127.471L100.06 127.265C100.157 127.684 100.362 128 100.676 128.213C100.99 128.426 101.398 128.533 101.901 128.533C102.421 128.533 102.837 128.426 103.151 128.213C103.469 128 103.628 127.736 103.628 127.422C103.628 127.157 103.525 126.937 103.32 126.764C103.119 126.591 102.805 126.458 102.378 126.366L100.797 126.034C99.9073 125.849 99.2492 125.537 98.8226 125.098C98.396 124.655 98.1847 124.096 98.1887 123.42C98.1847 122.848 98.3397 122.353 98.6536 121.935C98.9715 121.512 99.4122 121.186 99.9757 120.957C100.543 120.723 101.197 120.607 101.938 120.607C103.024 120.607 103.88 120.838 104.503 121.301C105.131 121.764 105.52 122.389 105.669 123.178ZM107.67 133.477V120.727H109.819V122.261H109.946C110.058 122.035 110.217 121.796 110.423 121.542C110.628 121.285 110.906 121.065 111.256 120.884C111.606 120.699 112.053 120.607 112.596 120.607C113.312 120.607 113.958 120.79 114.534 121.156C115.113 121.518 115.572 122.055 115.91 122.768C116.252 123.476 116.423 124.345 116.423 125.376C116.423 126.394 116.256 127.259 115.922 127.972C115.588 128.684 115.133 129.227 114.558 129.602C113.982 129.976 113.33 130.163 112.602 130.163C112.071 130.163 111.63 130.074 111.28 129.897C110.93 129.72 110.648 129.507 110.435 129.257C110.225 129.004 110.062 128.764 109.946 128.539H109.855V133.477H107.67ZM109.813 125.364C109.813 125.963 109.897 126.489 110.066 126.939C110.239 127.39 110.487 127.742 110.809 127.996C111.135 128.245 111.529 128.37 111.992 128.37C112.475 128.37 112.88 128.241 113.206 127.984C113.532 127.722 113.777 127.366 113.942 126.915C114.111 126.46 114.196 125.943 114.196 125.364C114.196 124.788 114.113 124.277 113.948 123.83C113.783 123.384 113.538 123.033 113.212 122.78C112.886 122.526 112.479 122.4 111.992 122.4C111.525 122.4 111.129 122.522 110.803 122.768C110.477 123.013 110.229 123.357 110.06 123.8C109.895 124.243 109.813 124.764 109.813 125.364ZM118.295 130V120.727H120.48V130H118.295ZM119.393 119.411C119.047 119.411 118.75 119.297 118.5 119.067C118.25 118.834 118.126 118.554 118.126 118.228C118.126 117.898 118.25 117.618 118.5 117.389C118.75 117.155 119.047 117.039 119.393 117.039C119.744 117.039 120.041 117.155 120.287 117.389C120.536 117.618 120.661 117.898 120.661 118.228C120.661 118.554 120.536 118.834 120.287 119.067C120.041 119.297 119.744 119.411 119.393 119.411ZM122.727 130V120.727H124.846V122.273H124.943C125.112 121.737 125.402 121.325 125.812 121.035C126.227 120.741 126.7 120.594 127.231 120.594C127.352 120.594 127.486 120.6 127.635 120.613C127.788 120.621 127.915 120.635 128.016 120.655V122.665C127.923 122.633 127.776 122.605 127.575 122.581C127.378 122.552 127.187 122.538 127.002 122.538C126.603 122.538 126.245 122.625 125.927 122.798C125.613 122.967 125.366 123.202 125.184 123.504C125.003 123.806 124.913 124.154 124.913 124.549V130H122.727ZM129.468 130V120.727H131.653V130H129.468ZM130.566 119.411C130.22 119.411 129.922 119.297 129.673 119.067C129.423 118.834 129.299 118.554 129.299 118.228C129.299 117.898 129.423 117.618 129.673 117.389C129.922 117.155 130.22 117.039 130.566 117.039C130.916 117.039 131.214 117.155 131.46 117.389C131.709 117.618 131.834 117.898 131.834 118.228C131.834 118.554 131.709 118.834 131.46 119.067C131.214 119.297 130.916 119.411 130.566 119.411ZM136.086 124.567V130H133.9V120.727H135.989V122.303H136.098C136.311 121.784 136.651 121.371 137.118 121.065C137.589 120.759 138.17 120.607 138.863 120.607C139.502 120.607 140.06 120.743 140.535 121.017C141.014 121.291 141.384 121.687 141.646 122.206C141.911 122.725 142.042 123.355 142.038 124.096V130H139.853V124.434C139.853 123.814 139.692 123.329 139.37 122.979C139.052 122.629 138.611 122.454 138.048 122.454C137.665 122.454 137.325 122.538 137.027 122.707C136.734 122.872 136.502 123.112 136.333 123.426C136.168 123.74 136.086 124.12 136.086 124.567ZM148.292 133.67C147.507 133.67 146.833 133.564 146.27 133.35C145.706 133.141 145.254 132.859 144.912 132.505C144.569 132.151 144.332 131.759 144.199 131.328L146.167 130.851C146.256 131.032 146.385 131.211 146.554 131.388C146.723 131.57 146.95 131.719 147.236 131.835C147.526 131.956 147.89 132.016 148.328 132.016C148.948 132.016 149.461 131.865 149.868 131.564C150.274 131.266 150.478 130.775 150.478 130.091V128.334H150.369C150.256 128.559 150.091 128.791 149.874 129.028C149.661 129.266 149.377 129.465 149.023 129.626C148.673 129.787 148.232 129.867 147.701 129.867C146.988 129.867 146.342 129.7 145.763 129.366C145.187 129.028 144.728 128.525 144.386 127.857C144.048 127.185 143.879 126.344 143.879 125.333C143.879 124.315 144.048 123.456 144.386 122.756C144.728 122.051 145.189 121.518 145.769 121.156C146.348 120.79 146.994 120.607 147.707 120.607C148.25 120.607 148.697 120.699 149.047 120.884C149.401 121.065 149.683 121.285 149.892 121.542C150.101 121.796 150.26 122.035 150.369 122.261H150.49V120.727H152.645V130.151C152.645 130.944 152.456 131.6 152.077 132.119C151.699 132.638 151.182 133.027 150.526 133.284C149.87 133.542 149.125 133.67 148.292 133.67ZM148.31 128.153C148.773 128.153 149.168 128.04 149.494 127.815C149.82 127.589 150.067 127.265 150.236 126.843C150.405 126.42 150.49 125.913 150.49 125.321C150.49 124.738 150.405 124.227 150.236 123.788C150.071 123.349 149.826 123.009 149.5 122.768C149.178 122.522 148.781 122.4 148.31 122.4C147.823 122.4 147.417 122.526 147.091 122.78C146.765 123.033 146.519 123.382 146.354 123.824C146.189 124.263 146.107 124.762 146.107 125.321C146.107 125.889 146.189 126.386 146.354 126.812C146.523 127.235 146.771 127.565 147.097 127.803C147.427 128.036 147.831 128.153 148.31 128.153ZM159.198 130V117.636H161.383V122.261H161.474C161.587 122.035 161.746 121.796 161.951 121.542C162.156 121.285 162.434 121.065 162.784 120.884C163.134 120.699 163.581 120.607 164.124 120.607C164.84 120.607 165.486 120.79 166.062 121.156C166.642 121.518 167.1 122.055 167.438 122.768C167.78 123.476 167.952 124.345 167.952 125.376C167.952 126.394 167.785 127.259 167.45 127.972C167.116 128.684 166.662 129.227 166.086 129.602C165.511 129.976 164.859 130.163 164.13 130.163C163.599 130.163 163.158 130.074 162.808 129.897C162.458 129.72 162.176 129.507 161.963 129.257C161.754 129.004 161.591 128.764 161.474 128.539H161.347V130H159.198ZM161.341 125.364C161.341 125.963 161.426 126.489 161.595 126.939C161.768 127.39 162.015 127.742 162.337 127.996C162.663 128.245 163.058 128.37 163.52 128.37C164.003 128.37 164.408 128.241 164.734 127.984C165.06 127.722 165.305 127.366 165.47 126.915C165.639 126.46 165.724 125.943 165.724 125.364C165.724 124.788 165.641 124.277 165.476 123.83C165.311 123.384 165.066 123.033 164.74 122.78C164.414 122.526 164.007 122.4 163.52 122.4C163.054 122.4 162.657 122.522 162.331 122.768C162.005 123.013 161.758 123.357 161.589 123.8C161.424 124.243 161.341 124.764 161.341 125.364ZM172.478 130.187C171.89 130.187 171.361 130.083 170.89 129.873C170.423 129.66 170.053 129.346 169.779 128.931C169.51 128.517 169.375 128.006 169.375 127.398C169.375 126.875 169.471 126.442 169.665 126.1C169.858 125.758 170.121 125.484 170.455 125.279C170.789 125.074 171.166 124.919 171.584 124.814C172.007 124.706 172.444 124.627 172.894 124.579C173.438 124.522 173.878 124.472 174.216 124.428C174.554 124.38 174.8 124.307 174.953 124.211C175.11 124.11 175.188 123.955 175.188 123.746V123.71C175.188 123.255 175.053 122.903 174.784 122.653C174.514 122.404 174.126 122.279 173.619 122.279C173.083 122.279 172.659 122.395 172.345 122.629C172.035 122.862 171.826 123.138 171.717 123.456L169.677 123.166C169.838 122.603 170.103 122.132 170.473 121.754C170.844 121.371 171.296 121.085 171.832 120.896C172.367 120.703 172.959 120.607 173.607 120.607C174.053 120.607 174.498 120.659 174.941 120.763C175.383 120.868 175.788 121.041 176.154 121.283C176.52 121.52 176.814 121.844 177.036 122.255C177.261 122.665 177.374 123.178 177.374 123.794V130H175.273V128.726H175.2C175.068 128.984 174.88 129.225 174.639 129.451C174.401 129.672 174.102 129.851 173.739 129.988C173.381 130.121 172.961 130.187 172.478 130.187ZM173.045 128.581C173.484 128.581 173.864 128.495 174.186 128.322C174.508 128.145 174.756 127.911 174.929 127.621C175.106 127.332 175.194 127.016 175.194 126.674V125.581C175.126 125.637 175.009 125.69 174.844 125.738C174.683 125.786 174.502 125.828 174.301 125.865C174.1 125.901 173.9 125.933 173.703 125.961C173.506 125.989 173.335 126.014 173.19 126.034C172.864 126.078 172.572 126.15 172.315 126.251C172.057 126.352 171.854 126.493 171.705 126.674C171.556 126.851 171.482 127.08 171.482 127.362C171.482 127.764 171.629 128.068 171.922 128.273C172.216 128.479 172.59 128.581 173.045 128.581ZM183.616 130.181C182.69 130.181 181.895 129.978 181.231 129.571C180.571 129.165 180.062 128.603 179.704 127.887C179.35 127.167 179.173 126.338 179.173 125.4C179.173 124.458 179.354 123.627 179.716 122.907C180.078 122.182 180.589 121.619 181.249 121.216C181.913 120.81 182.698 120.607 183.604 120.607C184.356 120.607 185.022 120.745 185.602 121.023C186.186 121.297 186.65 121.685 186.997 122.188C187.343 122.687 187.54 123.271 187.588 123.939H185.499C185.415 123.492 185.214 123.12 184.896 122.822C184.582 122.52 184.161 122.369 183.634 122.369C183.187 122.369 182.795 122.49 182.457 122.732C182.119 122.969 181.855 123.311 181.666 123.758C181.481 124.205 181.388 124.74 181.388 125.364C181.388 125.996 181.481 126.539 181.666 126.994C181.851 127.444 182.111 127.792 182.445 128.038C182.783 128.279 183.179 128.4 183.634 128.4C183.956 128.4 184.244 128.34 184.497 128.219C184.755 128.094 184.97 127.915 185.143 127.682C185.316 127.448 185.435 127.165 185.499 126.831H187.588C187.536 127.487 187.343 128.068 187.009 128.575C186.675 129.078 186.22 129.473 185.644 129.759C185.069 130.04 184.393 130.181 183.616 130.181ZM191.375 127.09L191.369 124.452H191.719L195.051 120.727H197.605L193.506 125.291H193.053L191.375 127.09ZM189.383 130V117.636H191.568V130H189.383ZM195.202 130L192.184 125.78L193.657 124.241L197.816 130H195.202ZM202.785 130.181C201.855 130.181 201.052 129.988 200.376 129.602C199.704 129.211 199.187 128.66 198.824 127.947C198.462 127.231 198.281 126.388 198.281 125.418C198.281 124.464 198.462 123.627 198.824 122.907C199.191 122.182 199.702 121.619 200.358 121.216C201.014 120.81 201.785 120.607 202.67 120.607C203.241 120.607 203.781 120.699 204.288 120.884C204.799 121.065 205.25 121.347 205.64 121.729C206.035 122.112 206.344 122.599 206.57 123.19C206.795 123.778 206.908 124.478 206.908 125.291V125.961H199.307V124.488H204.813C204.809 124.07 204.718 123.697 204.541 123.371C204.364 123.041 204.117 122.782 203.799 122.593C203.485 122.404 203.119 122.309 202.7 122.309C202.253 122.309 201.861 122.418 201.523 122.635C201.185 122.848 200.921 123.13 200.732 123.48C200.547 123.826 200.452 124.207 200.448 124.621V125.907C200.448 126.446 200.547 126.909 200.744 127.295C200.941 127.678 201.217 127.972 201.571 128.177C201.925 128.378 202.34 128.479 202.815 128.479C203.133 128.479 203.421 128.434 203.678 128.346C203.936 128.253 204.159 128.118 204.348 127.941C204.537 127.764 204.68 127.545 204.777 127.283L206.817 127.513C206.689 128.052 206.443 128.523 206.081 128.925C205.723 129.324 205.264 129.634 204.704 129.855C204.145 130.072 203.505 130.181 202.785 130.181ZM210.942 124.567V130H208.757V120.727H210.845V122.303H210.954C211.167 121.784 211.507 121.371 211.974 121.065C212.445 120.759 213.027 120.607 213.719 120.607C214.359 120.607 214.916 120.743 215.391 121.017C215.87 121.291 216.24 121.687 216.502 122.206C216.768 122.725 216.898 123.355 216.894 124.096V130H214.709V124.434C214.709 123.814 214.548 123.329 214.226 122.979C213.908 122.629 213.467 122.454 212.904 122.454C212.522 122.454 212.182 122.538 211.884 122.707C211.59 122.872 211.359 123.112 211.19 123.426C211.025 123.74 210.942 124.12 210.942 124.567ZM222.557 130.163C221.829 130.163 221.177 129.976 220.601 129.602C220.026 129.227 219.571 128.684 219.237 127.972C218.903 127.259 218.736 126.394 218.736 125.376C218.736 124.345 218.905 123.476 219.243 122.768C219.585 122.055 220.046 121.518 220.625 121.156C221.205 120.79 221.851 120.607 222.563 120.607C223.106 120.607 223.553 120.699 223.903 120.884C224.253 121.065 224.531 121.285 224.736 121.542C224.942 121.796 225.101 122.035 225.213 122.261H225.304V117.636H227.495V130H225.346V128.539H225.213C225.101 128.764 224.938 129.004 224.724 129.257C224.511 129.507 224.229 129.72 223.879 129.897C223.529 130.074 223.088 130.163 222.557 130.163ZM223.167 128.37C223.63 128.37 224.024 128.245 224.35 127.996C224.676 127.742 224.924 127.39 225.093 126.939C225.262 126.489 225.346 125.963 225.346 125.364C225.346 124.764 225.262 124.243 225.093 123.8C224.928 123.357 224.682 123.013 224.356 122.768C224.034 122.522 223.638 122.4 223.167 122.4C222.68 122.4 222.273 122.526 221.947 122.78C221.621 123.033 221.376 123.384 221.211 123.83C221.046 124.277 220.963 124.788 220.963 125.364C220.963 125.943 221.046 126.46 221.211 126.915C221.38 127.366 221.627 127.722 221.953 127.984C222.283 128.241 222.688 128.37 223.167 128.37ZM237.482 130.163C236.753 130.163 236.101 129.976 235.526 129.602C234.95 129.227 234.496 128.684 234.162 127.972C233.828 127.259 233.661 126.394 233.661 125.376C233.661 124.345 233.83 123.476 234.168 122.768C234.51 122.055 234.971 121.518 235.55 121.156C236.13 120.79 236.776 120.607 237.488 120.607C238.031 120.607 238.478 120.699 238.828 120.884C239.178 121.065 239.456 121.285 239.661 121.542C239.866 121.796 240.025 122.035 240.138 122.261H240.229V117.636H242.42V130H240.271V128.539H240.138C240.025 128.764 239.862 129.004 239.649 129.257C239.436 129.507 239.154 129.72 238.804 129.897C238.454 130.074 238.013 130.163 237.482 130.163ZM238.092 128.37C238.554 128.37 238.949 128.245 239.275 127.996C239.601 127.742 239.848 127.39 240.017 126.939C240.186 126.489 240.271 125.963 240.271 125.364C240.271 124.764 240.186 124.243 240.017 123.8C239.852 123.357 239.607 123.013 239.281 122.768C238.959 122.522 238.563 122.4 238.092 122.4C237.605 122.4 237.198 122.526 236.872 122.78C236.546 123.033 236.301 123.384 236.136 123.83C235.971 124.277 235.888 124.788 235.888 125.364C235.888 125.943 235.971 126.46 236.136 126.915C236.305 127.366 236.552 127.722 236.878 127.984C237.208 128.241 237.613 128.37 238.092 128.37ZM248.854 130.181C247.924 130.181 247.121 129.988 246.445 129.602C245.773 129.211 245.256 128.66 244.894 127.947C244.532 127.231 244.35 126.388 244.35 125.418C244.35 124.464 244.532 123.627 244.894 122.907C245.26 122.182 245.771 121.619 246.427 121.216C247.083 120.81 247.854 120.607 248.739 120.607C249.311 120.607 249.85 120.699 250.357 120.884C250.868 121.065 251.319 121.347 251.709 121.729C252.104 122.112 252.414 122.599 252.639 123.19C252.864 123.778 252.977 124.478 252.977 125.291V125.961H245.377V124.488H250.882C250.878 124.07 250.788 123.697 250.611 123.371C250.434 123.041 250.186 122.782 249.868 122.593C249.554 122.404 249.188 122.309 248.769 122.309C248.323 122.309 247.93 122.418 247.592 122.635C247.254 122.848 246.991 123.13 246.801 123.48C246.616 123.826 246.522 124.207 246.518 124.621V125.907C246.518 126.446 246.616 126.909 246.813 127.295C247.011 127.678 247.286 127.972 247.641 128.177C247.995 128.378 248.409 128.479 248.884 128.479C249.202 128.479 249.49 128.434 249.747 128.346C250.005 128.253 250.228 128.118 250.418 127.941C250.607 127.764 250.75 127.545 250.846 127.283L252.887 127.513C252.758 128.052 252.512 128.523 252.15 128.925C251.792 129.324 251.333 129.634 250.774 129.855C250.214 130.072 249.574 130.181 248.854 130.181ZM262.843 120.727L259.541 130H257.126L253.824 120.727H256.154L258.285 127.615H258.382L260.519 120.727H262.843ZM268.145 130.181C267.215 130.181 266.412 129.988 265.736 129.602C265.064 129.211 264.547 128.66 264.185 127.947C263.823 127.231 263.641 126.388 263.641 125.418C263.641 124.464 263.823 123.627 264.185 122.907C264.551 122.182 265.062 121.619 265.718 121.216C266.374 120.81 267.145 120.607 268.03 120.607C268.602 120.607 269.141 120.699 269.648 120.884C270.159 121.065 270.61 121.347 271 121.729C271.395 122.112 271.705 122.599 271.93 123.19C272.156 123.778 272.268 124.478 272.268 125.291V125.961H264.668V124.488H270.173C270.169 124.07 270.079 123.697 269.902 123.371C269.725 123.041 269.477 122.782 269.159 122.593C268.845 122.404 268.479 122.309 268.06 122.309C267.614 122.309 267.221 122.418 266.883 122.635C266.545 122.848 266.282 123.13 266.092 123.48C265.907 123.826 265.813 124.207 265.809 124.621V125.907C265.809 126.446 265.907 126.909 266.104 127.295C266.302 127.678 266.577 127.972 266.932 128.177C267.286 128.378 267.7 128.479 268.175 128.479C268.493 128.479 268.781 128.434 269.038 128.346C269.296 128.253 269.519 128.118 269.709 127.941C269.898 127.764 270.041 127.545 270.137 127.283L272.178 127.513C272.049 128.052 271.803 128.523 271.441 128.925C271.083 129.324 270.624 129.634 270.065 129.855C269.505 130.072 268.865 130.181 268.145 130.181ZM276.302 117.636V130H274.117V117.636H276.302ZM282.594 130.181C281.689 130.181 280.904 129.982 280.24 129.583C279.576 129.185 279.061 128.628 278.695 127.911C278.332 127.195 278.151 126.358 278.151 125.4C278.151 124.442 278.332 123.603 278.695 122.882C279.061 122.162 279.576 121.603 280.24 121.204C280.904 120.806 281.689 120.607 282.594 120.607C283.5 120.607 284.285 120.806 284.949 121.204C285.613 121.603 286.126 122.162 286.488 122.882C286.854 123.603 287.038 124.442 287.038 125.4C287.038 126.358 286.854 127.195 286.488 127.911C286.126 128.628 285.613 129.185 284.949 129.583C284.285 129.982 283.5 130.181 282.594 130.181ZM282.606 128.43C283.097 128.43 283.508 128.296 283.838 128.026C284.168 127.752 284.414 127.386 284.574 126.927C284.739 126.468 284.822 125.957 284.822 125.394C284.822 124.826 284.739 124.313 284.574 123.854C284.414 123.392 284.168 123.023 283.838 122.75C283.508 122.476 283.097 122.339 282.606 122.339C282.103 122.339 281.685 122.476 281.351 122.75C281.021 123.023 280.773 123.392 280.608 123.854C280.447 124.313 280.367 124.826 280.367 125.394C280.367 125.957 280.447 126.468 280.608 126.927C280.773 127.386 281.021 127.752 281.351 128.026C281.685 128.296 282.103 128.43 282.606 128.43ZM288.892 133.477V120.727H291.042V122.261H291.168C291.281 122.035 291.44 121.796 291.645 121.542C291.85 121.285 292.128 121.065 292.478 120.884C292.828 120.699 293.275 120.607 293.819 120.607C294.535 120.607 295.181 120.79 295.756 121.156C296.336 121.518 296.795 122.055 297.133 122.768C297.475 123.476 297.646 124.345 297.646 125.376C297.646 126.394 297.479 127.259 297.145 127.972C296.811 128.684 296.356 129.227 295.781 129.602C295.205 129.976 294.553 130.163 293.825 130.163C293.293 130.163 292.853 130.074 292.502 129.897C292.152 129.72 291.871 129.507 291.657 129.257C291.448 129.004 291.285 128.764 291.168 128.539H291.078V133.477H288.892ZM291.036 125.364C291.036 125.963 291.12 126.489 291.289 126.939C291.462 127.39 291.71 127.742 292.032 127.996C292.358 128.245 292.752 128.37 293.215 128.37C293.698 128.37 294.102 128.241 294.428 127.984C294.754 127.722 295 127.366 295.165 126.915C295.334 126.46 295.418 125.943 295.418 125.364C295.418 124.788 295.336 124.277 295.171 123.83C295.006 123.384 294.76 123.033 294.434 122.78C294.108 122.526 293.702 122.4 293.215 122.4C292.748 122.4 292.352 122.522 292.026 122.768C291.7 123.013 291.452 123.357 291.283 123.8C291.118 124.243 291.036 124.764 291.036 125.364ZM303.623 130.181C302.693 130.181 301.89 129.988 301.214 129.602C300.542 129.211 300.025 128.66 299.662 127.947C299.3 127.231 299.119 126.388 299.119 125.418C299.119 124.464 299.3 123.627 299.662 122.907C300.029 122.182 300.54 121.619 301.196 121.216C301.852 120.81 302.622 120.607 303.508 120.607C304.079 120.607 304.619 120.699 305.126 120.884C305.637 121.065 306.088 121.347 306.478 121.729C306.872 122.112 307.182 122.599 307.408 123.19C307.633 123.778 307.746 124.478 307.746 125.291V125.961H300.145V124.488H305.651C305.647 124.07 305.556 123.697 305.379 123.371C305.202 123.041 304.955 122.782 304.637 122.593C304.323 122.404 303.957 122.309 303.538 122.309C303.091 122.309 302.699 122.418 302.361 122.635C302.023 122.848 301.759 123.13 301.57 123.48C301.385 123.826 301.29 124.207 301.286 124.621V125.907C301.286 126.446 301.385 126.909 301.582 127.295C301.779 127.678 302.055 127.972 302.409 128.177C302.763 128.378 303.178 128.479 303.653 128.479C303.971 128.479 304.258 128.434 304.516 128.346C304.774 128.253 304.997 128.118 305.186 127.941C305.375 127.764 305.518 127.545 305.615 127.283L307.655 127.513C307.526 128.052 307.281 128.523 306.919 128.925C306.56 129.324 306.102 129.634 305.542 129.855C304.983 130.072 304.343 130.181 303.623 130.181ZM309.595 130V120.727H311.714V122.273H311.81C311.979 121.737 312.269 121.325 312.679 121.035C313.094 120.741 313.567 120.594 314.098 120.594C314.219 120.594 314.354 120.6 314.503 120.613C314.656 120.621 314.782 120.635 314.883 120.655V122.665C314.79 122.633 314.643 122.605 314.442 122.581C314.245 122.552 314.054 122.538 313.869 122.538C313.47 122.538 313.112 122.625 312.794 122.798C312.48 122.967 312.233 123.202 312.052 123.504C311.87 123.806 311.78 124.154 311.78 124.549V130H309.595ZM316.619 130.133C316.252 130.133 315.938 130.004 315.677 129.746C315.415 129.489 315.286 129.175 315.29 128.805C315.286 128.442 315.415 128.133 315.677 127.875C315.938 127.617 316.252 127.489 316.619 127.489C316.973 127.489 317.281 127.617 317.542 127.875C317.808 128.133 317.943 128.442 317.947 128.805C317.943 129.05 317.878 129.274 317.753 129.475C317.633 129.676 317.472 129.837 317.271 129.958C317.073 130.074 316.856 130.133 316.619 130.133ZM326.374 117.636V130H324.134V117.636H326.374ZM336.964 130.181C336.039 130.181 335.244 129.978 334.58 129.571C333.92 129.165 333.411 128.603 333.053 127.887C332.698 127.167 332.521 126.338 332.521 125.4C332.521 124.458 332.702 123.627 333.065 122.907C333.427 122.182 333.938 121.619 334.598 121.216C335.262 120.81 336.047 120.607 336.952 120.607C337.705 120.607 338.371 120.745 338.951 121.023C339.534 121.297 339.999 121.685 340.345 122.188C340.691 122.687 340.888 123.271 340.937 123.939H338.848C338.763 123.492 338.562 123.12 338.244 122.822C337.93 122.52 337.51 122.369 336.983 122.369C336.536 122.369 336.143 122.49 335.805 122.732C335.467 122.969 335.204 123.311 335.015 123.758C334.829 124.205 334.737 124.74 334.737 125.364C334.737 125.996 334.829 126.539 335.015 126.994C335.2 127.444 335.459 127.792 335.793 128.038C336.131 128.279 336.528 128.4 336.983 128.4C337.305 128.4 337.592 128.34 337.846 128.219C338.103 128.094 338.319 127.915 338.492 127.682C338.665 127.448 338.784 127.165 338.848 126.831H340.937C340.884 127.487 340.691 128.068 340.357 128.575C340.023 129.078 339.568 129.473 338.993 129.759C338.417 130.04 337.741 130.181 336.964 130.181ZM342.731 130V120.727H344.85V122.273H344.947C345.116 121.737 345.406 121.325 345.816 121.035C346.231 120.741 346.704 120.594 347.235 120.594C347.356 120.594 347.49 120.6 347.639 120.613C347.792 120.621 347.919 120.635 348.02 120.655V122.665C347.927 122.633 347.78 122.605 347.579 122.581C347.382 122.552 347.191 122.538 347.005 122.538C346.607 122.538 346.249 122.625 345.931 122.798C345.617 122.967 345.369 123.202 345.188 123.504C345.007 123.806 344.917 124.154 344.917 124.549V130H342.731ZM353.195 130.181C352.265 130.181 351.462 129.988 350.786 129.602C350.114 129.211 349.597 128.66 349.235 127.947C348.872 127.231 348.691 126.388 348.691 125.418C348.691 124.464 348.872 123.627 349.235 122.907C349.601 122.182 350.112 121.619 350.768 121.216C351.424 120.81 352.195 120.607 353.08 120.607C353.652 120.607 354.191 120.699 354.698 120.884C355.209 121.065 355.66 121.347 356.05 121.729C356.445 122.112 356.755 122.599 356.98 123.19C357.205 123.778 357.318 124.478 357.318 125.291V125.961H349.718V124.488H355.223C355.219 124.07 355.129 123.697 354.952 123.371C354.774 123.041 354.527 122.782 354.209 122.593C353.895 122.404 353.529 122.309 353.11 122.309C352.664 122.309 352.271 122.418 351.933 122.635C351.595 122.848 351.331 123.13 351.142 123.48C350.957 123.826 350.863 124.207 350.858 124.621V125.907C350.858 126.446 350.957 126.909 351.154 127.295C351.352 127.678 351.627 127.972 351.981 128.177C352.336 128.378 352.75 128.479 353.225 128.479C353.543 128.479 353.831 128.434 354.088 128.346C354.346 128.253 354.569 128.118 354.758 127.941C354.948 127.764 355.09 127.545 355.187 127.283L357.227 127.513C357.099 128.052 356.853 128.523 356.491 128.925C356.133 129.324 355.674 129.634 355.115 129.855C354.555 130.072 353.915 130.181 353.195 130.181ZM361.835 130.187C361.248 130.187 360.718 130.083 360.247 129.873C359.781 129.66 359.41 129.346 359.137 128.931C358.867 128.517 358.732 128.006 358.732 127.398C358.732 126.875 358.829 126.442 359.022 126.1C359.215 125.758 359.479 125.484 359.813 125.279C360.147 125.074 360.523 124.919 360.942 124.814C361.364 124.706 361.801 124.627 362.252 124.579C362.795 124.522 363.236 124.472 363.574 124.428C363.912 124.38 364.157 124.307 364.31 124.211C364.467 124.11 364.546 123.955 364.546 123.746V123.71C364.546 123.255 364.411 122.903 364.141 122.653C363.872 122.404 363.483 122.279 362.976 122.279C362.441 122.279 362.016 122.395 361.702 122.629C361.392 122.862 361.183 123.138 361.074 123.456L359.034 123.166C359.195 122.603 359.461 122.132 359.831 121.754C360.201 121.371 360.654 121.085 361.189 120.896C361.724 120.703 362.316 120.607 362.964 120.607C363.411 120.607 363.855 120.659 364.298 120.763C364.741 120.868 365.145 121.041 365.512 121.283C365.878 121.52 366.172 121.844 366.393 122.255C366.618 122.665 366.731 123.178 366.731 123.794V130H364.63V128.726H364.558C364.425 128.984 364.238 129.225 363.996 129.451C363.759 129.672 363.459 129.851 363.097 129.988C362.739 130.121 362.318 130.187 361.835 130.187ZM362.403 128.581C362.841 128.581 363.222 128.495 363.544 128.322C363.866 128.145 364.113 127.911 364.286 127.621C364.463 127.332 364.552 127.016 364.552 126.674V125.581C364.483 125.637 364.367 125.69 364.202 125.738C364.041 125.786 363.86 125.828 363.658 125.865C363.457 125.901 363.258 125.933 363.061 125.961C362.863 125.989 362.692 126.014 362.547 126.034C362.222 126.078 361.93 126.15 361.672 126.251C361.415 126.352 361.211 126.493 361.062 126.674C360.914 126.851 360.839 127.08 360.839 127.362C360.839 127.764 360.986 128.068 361.28 128.273C361.574 128.479 361.948 128.581 362.403 128.581ZM373.559 120.727V122.418H368.228V120.727H373.559ZM369.544 118.506H371.73V127.211C371.73 127.505 371.774 127.73 371.862 127.887C371.955 128.04 372.076 128.145 372.225 128.201C372.374 128.257 372.539 128.286 372.72 128.286C372.857 128.286 372.981 128.275 373.094 128.255C373.211 128.235 373.299 128.217 373.36 128.201L373.728 129.909C373.611 129.95 373.444 129.994 373.227 130.042C373.014 130.091 372.752 130.119 372.442 130.127C371.895 130.143 371.402 130.06 370.963 129.879C370.524 129.694 370.176 129.408 369.919 129.022C369.665 128.636 369.54 128.153 369.544 127.573V118.506ZM379.392 130.181C378.462 130.181 377.659 129.988 376.983 129.602C376.311 129.211 375.794 128.66 375.432 127.947C375.07 127.231 374.888 126.388 374.888 125.418C374.888 124.464 375.07 123.627 375.432 122.907C375.798 122.182 376.309 121.619 376.965 121.216C377.621 120.81 378.392 120.607 379.277 120.607C379.849 120.607 380.388 120.699 380.895 120.884C381.406 121.065 381.857 121.347 382.248 121.729C382.642 122.112 382.952 122.599 383.177 123.19C383.403 123.778 383.515 124.478 383.515 125.291V125.961H375.915V124.488H381.42C381.416 124.07 381.326 123.697 381.149 123.371C380.972 123.041 380.724 122.782 380.406 122.593C380.092 122.404 379.726 122.309 379.308 122.309C378.861 122.309 378.468 122.418 378.13 122.635C377.792 122.848 377.529 123.13 377.339 123.48C377.154 123.826 377.06 124.207 377.056 124.621V125.907C377.056 126.446 377.154 126.909 377.352 127.295C377.549 127.678 377.824 127.972 378.179 128.177C378.533 128.378 378.947 128.479 379.422 128.479C379.74 128.479 380.028 128.434 380.286 128.346C380.543 128.253 380.766 128.118 380.956 127.941C381.145 127.764 381.288 127.545 381.384 127.283L383.425 127.513C383.296 128.052 383.05 128.523 382.688 128.925C382.33 129.324 381.871 129.634 381.312 129.855C380.752 130.072 380.112 130.181 379.392 130.181ZM389.581 130V120.727H391.7V122.273H391.796C391.965 121.737 392.255 121.325 392.666 121.035C393.08 120.741 393.553 120.594 394.084 120.594C394.205 120.594 394.34 120.6 394.489 120.613C394.642 120.621 394.769 120.635 394.869 120.655V122.665C394.777 122.633 394.63 122.605 394.429 122.581C394.231 122.552 394.04 122.538 393.855 122.538C393.457 122.538 393.098 122.625 392.78 122.798C392.467 122.967 392.219 123.202 392.038 123.504C391.857 123.806 391.766 124.154 391.766 124.549V130H389.581ZM400.044 130.181C399.115 130.181 398.312 129.988 397.636 129.602C396.964 129.211 396.446 128.66 396.084 127.947C395.722 127.231 395.541 126.388 395.541 125.418C395.541 124.464 395.722 123.627 396.084 122.907C396.45 122.182 396.962 121.619 397.618 121.216C398.274 120.81 399.044 120.607 399.93 120.607C400.501 120.607 401.04 120.699 401.548 120.884C402.059 121.065 402.509 121.347 402.9 121.729C403.294 122.112 403.604 122.599 403.83 123.19C404.055 123.778 404.168 124.478 404.168 125.291V125.961H396.567V124.488H402.073C402.069 124.07 401.978 123.697 401.801 123.371C401.624 123.041 401.377 122.782 401.059 122.593C400.745 122.404 400.378 122.309 399.96 122.309C399.513 122.309 399.121 122.418 398.783 122.635C398.445 122.848 398.181 123.13 397.992 123.48C397.807 123.826 397.712 124.207 397.708 124.621V125.907C397.708 126.446 397.807 126.909 398.004 127.295C398.201 127.678 398.477 127.972 398.831 128.177C399.185 128.378 399.6 128.479 400.075 128.479C400.393 128.479 400.68 128.434 400.938 128.346C401.195 128.253 401.419 128.118 401.608 127.941C401.797 127.764 401.94 127.545 402.037 127.283L404.077 127.513C403.948 128.052 403.703 128.523 403.341 128.925C402.982 129.324 402.524 129.634 401.964 129.855C401.405 130.072 400.765 130.181 400.044 130.181ZM408.202 117.636V130H406.016V117.636H408.202ZM410.449 130V120.727H412.634V130H410.449ZM411.548 119.411C411.202 119.411 410.904 119.297 410.654 119.067C410.405 118.834 410.28 118.554 410.28 118.228C410.28 117.898 410.405 117.618 410.654 117.389C410.904 117.155 411.202 117.039 411.548 117.039C411.898 117.039 412.196 117.155 412.441 117.389C412.691 117.618 412.816 117.898 412.816 118.228C412.816 118.554 412.691 118.834 412.441 119.067C412.196 119.297 411.898 119.411 411.548 119.411ZM417.55 130.187C416.962 130.187 416.433 130.083 415.962 129.873C415.495 129.66 415.125 129.346 414.851 128.931C414.582 128.517 414.447 128.006 414.447 127.398C414.447 126.875 414.544 126.442 414.737 126.1C414.93 125.758 415.194 125.484 415.528 125.279C415.862 125.074 416.238 124.919 416.657 124.814C417.079 124.706 417.516 124.627 417.967 124.579C418.51 124.522 418.951 124.472 419.289 124.428C419.627 124.38 419.872 124.307 420.025 124.211C420.182 124.11 420.261 123.955 420.261 123.746V123.71C420.261 123.255 420.126 122.903 419.856 122.653C419.586 122.404 419.198 122.279 418.691 122.279C418.156 122.279 417.731 122.395 417.417 122.629C417.107 122.862 416.898 123.138 416.789 123.456L414.749 123.166C414.91 122.603 415.175 122.132 415.546 121.754C415.916 121.371 416.369 121.085 416.904 120.896C417.439 120.703 418.031 120.607 418.679 120.607C419.126 120.607 419.57 120.659 420.013 120.763C420.456 120.868 420.86 121.041 421.226 121.283C421.593 121.52 421.887 121.844 422.108 122.255C422.333 122.665 422.446 123.178 422.446 123.794V130H420.345V128.726H420.273C420.14 128.984 419.953 129.225 419.711 129.451C419.474 129.672 419.174 129.851 418.812 129.988C418.454 130.121 418.033 130.187 417.55 130.187ZM418.117 128.581C418.556 128.581 418.936 128.495 419.258 128.322C419.58 128.145 419.828 127.911 420.001 127.621C420.178 127.332 420.267 127.016 420.267 126.674V125.581C420.198 125.637 420.081 125.69 419.916 125.738C419.755 125.786 419.574 125.828 419.373 125.865C419.172 125.901 418.973 125.933 418.775 125.961C418.578 125.989 418.407 126.014 418.262 126.034C417.936 126.078 417.645 126.15 417.387 126.251C417.129 126.352 416.926 126.493 416.777 126.674C416.628 126.851 416.554 127.08 416.554 127.362C416.554 127.764 416.701 128.068 416.995 128.273C417.288 128.479 417.663 128.581 418.117 128.581ZM424.74 130V117.636H426.925V122.261H427.016C427.129 122.035 427.288 121.796 427.493 121.542C427.698 121.285 427.976 121.065 428.326 120.884C428.676 120.699 429.123 120.607 429.666 120.607C430.382 120.607 431.028 120.79 431.604 121.156C432.184 121.518 432.642 122.055 432.98 122.768C433.322 123.476 433.494 124.345 433.494 125.376C433.494 126.394 433.326 127.259 432.992 127.972C432.658 128.684 432.204 129.227 431.628 129.602C431.053 129.976 430.401 130.163 429.672 130.163C429.141 130.163 428.7 130.074 428.35 129.897C428 129.72 427.718 129.507 427.505 129.257C427.296 129.004 427.133 128.764 427.016 128.539H426.889V130H424.74ZM426.883 125.364C426.883 125.963 426.968 126.489 427.137 126.939C427.31 127.39 427.557 127.742 427.879 127.996C428.205 128.245 428.6 128.37 429.062 128.37C429.545 128.37 429.95 128.241 430.276 127.984C430.602 127.722 430.847 127.366 431.012 126.915C431.181 126.46 431.266 125.943 431.266 125.364C431.266 124.788 431.183 124.277 431.018 123.83C430.853 123.384 430.608 123.033 430.282 122.78C429.956 122.526 429.549 122.4 429.062 122.4C428.596 122.4 428.199 122.522 427.873 122.768C427.547 123.013 427.3 123.357 427.131 123.8C426.966 124.243 426.883 124.764 426.883 125.364ZM437.537 117.636V130H435.351V117.636H437.537ZM443.889 130.181C442.959 130.181 442.157 129.988 441.48 129.602C440.808 129.211 440.291 128.66 439.929 127.947C439.567 127.231 439.386 126.388 439.386 125.418C439.386 124.464 439.567 123.627 439.929 122.907C440.295 122.182 440.806 121.619 441.462 121.216C442.118 120.81 442.889 120.607 443.774 120.607C444.346 120.607 444.885 120.699 445.392 120.884C445.903 121.065 446.354 121.347 446.745 121.729C447.139 122.112 447.449 122.599 447.674 123.19C447.9 123.778 448.012 124.478 448.012 125.291V125.961H440.412V124.488H445.918C445.914 124.07 445.823 123.697 445.646 123.371C445.469 123.041 445.221 122.782 444.903 122.593C444.589 122.404 444.223 122.309 443.805 122.309C443.358 122.309 442.965 122.418 442.627 122.635C442.289 122.848 442.026 123.13 441.837 123.48C441.651 123.826 441.557 124.207 441.553 124.621V125.907C441.553 126.446 441.651 126.909 441.849 127.295C442.046 127.678 442.322 127.972 442.676 128.177C443.03 128.378 443.444 128.479 443.919 128.479C444.237 128.479 444.525 128.434 444.783 128.346C445.04 128.253 445.264 128.118 445.453 127.941C445.642 127.764 445.785 127.545 445.881 127.283L447.922 127.513C447.793 128.052 447.547 128.523 447.185 128.925C446.827 129.324 446.368 129.634 445.809 129.855C445.249 130.072 444.61 130.181 443.889 130.181ZM456.746 130.187C456.159 130.187 455.629 130.083 455.159 129.873C454.692 129.66 454.321 129.346 454.048 128.931C453.778 128.517 453.643 128.006 453.643 127.398C453.643 126.875 453.74 126.442 453.933 126.1C454.126 125.758 454.39 125.484 454.724 125.279C455.058 125.074 455.434 124.919 455.853 124.814C456.275 124.706 456.712 124.627 457.163 124.579C457.706 124.522 458.147 124.472 458.485 124.428C458.823 124.38 459.068 124.307 459.221 124.211C459.378 124.11 459.457 123.955 459.457 123.746V123.71C459.457 123.255 459.322 122.903 459.052 122.653C458.783 122.404 458.394 122.279 457.887 122.279C457.352 122.279 456.927 122.395 456.613 122.629C456.304 122.862 456.094 123.138 455.986 123.456L453.945 123.166C454.106 122.603 454.372 122.132 454.742 121.754C455.112 121.371 455.565 121.085 456.1 120.896C456.636 120.703 457.227 120.607 457.875 120.607C458.322 120.607 458.767 120.659 459.209 120.763C459.652 120.868 460.057 121.041 460.423 121.283C460.789 121.52 461.083 121.844 461.304 122.255C461.53 122.665 461.642 123.178 461.642 123.794V130H459.541V128.726H459.469C459.336 128.984 459.149 129.225 458.907 129.451C458.67 129.672 458.37 129.851 458.008 129.988C457.65 130.121 457.229 130.187 456.746 130.187ZM457.314 128.581C457.752 128.581 458.133 128.495 458.455 128.322C458.777 128.145 459.024 127.911 459.197 127.621C459.374 127.332 459.463 127.016 459.463 126.674V125.581C459.394 125.637 459.278 125.69 459.113 125.738C458.952 125.786 458.771 125.828 458.569 125.865C458.368 125.901 458.169 125.933 457.972 125.961C457.775 125.989 457.604 126.014 457.459 126.034C457.133 126.078 456.841 126.15 456.583 126.251C456.326 126.352 456.122 126.493 455.974 126.674C455.825 126.851 455.75 127.08 455.75 127.362C455.75 127.764 455.897 128.068 456.191 128.273C456.485 128.479 456.859 128.581 457.314 128.581ZM466.025 124.567V130H463.84V120.727H465.928V122.303H466.037C466.25 121.784 466.59 121.371 467.057 121.065C467.528 120.759 468.11 120.607 468.802 120.607C469.442 120.607 469.999 120.743 470.474 121.017C470.953 121.291 471.323 121.687 471.585 122.206C471.851 122.725 471.981 123.355 471.977 124.096V130H469.792V124.434C469.792 123.814 469.631 123.329 469.309 122.979C468.991 122.629 468.55 122.454 467.987 122.454C467.605 122.454 467.265 122.538 466.967 122.707C466.673 122.872 466.442 123.112 466.273 123.426C466.108 123.74 466.025 124.12 466.025 124.567ZM477.64 130.163C476.912 130.163 476.26 129.976 475.684 129.602C475.109 129.227 474.654 128.684 474.32 127.972C473.986 127.259 473.819 126.394 473.819 125.376C473.819 124.345 473.988 123.476 474.326 122.768C474.668 122.055 475.129 121.518 475.708 121.156C476.288 120.79 476.934 120.607 477.646 120.607C478.189 120.607 478.636 120.699 478.986 120.884C479.336 121.065 479.614 121.285 479.819 121.542C480.025 121.796 480.184 122.035 480.296 122.261H480.387V117.636H482.578V130H480.429V128.539H480.296C480.184 128.764 480.021 129.004 479.807 129.257C479.594 129.507 479.312 129.72 478.962 129.897C478.612 130.074 478.171 130.163 477.64 130.163ZM478.25 128.37C478.713 128.37 479.107 128.245 479.433 127.996C479.759 127.742 480.007 127.39 480.176 126.939C480.345 126.489 480.429 125.963 480.429 125.364C480.429 124.764 480.345 124.243 480.176 123.8C480.011 123.357 479.765 123.013 479.439 122.768C479.117 122.522 478.721 122.4 478.25 122.4C477.763 122.4 477.356 122.526 477.03 122.78C476.704 123.033 476.459 123.384 476.294 123.83C476.129 124.277 476.046 124.788 476.046 125.364C476.046 125.943 476.129 126.46 476.294 126.915C476.463 127.366 476.71 127.722 477.036 127.984C477.366 128.241 477.771 128.37 478.25 128.37ZM489.124 133.477V120.727H491.273V122.261H491.4C491.512 122.035 491.671 121.796 491.877 121.542C492.082 121.285 492.36 121.065 492.71 120.884C493.06 120.699 493.507 120.607 494.05 120.607C494.766 120.607 495.412 120.79 495.988 121.156C496.567 121.518 497.026 122.055 497.364 122.768C497.706 123.476 497.877 124.345 497.877 125.376C497.877 126.394 497.71 127.259 497.376 127.972C497.042 128.684 496.588 129.227 496.012 129.602C495.436 129.976 494.784 130.163 494.056 130.163C493.525 130.163 493.084 130.074 492.734 129.897C492.384 129.72 492.102 129.507 491.889 129.257C491.679 129.004 491.516 128.764 491.4 128.539H491.309V133.477H489.124ZM491.267 125.364C491.267 125.963 491.351 126.489 491.521 126.939C491.694 127.39 491.941 127.742 492.263 127.996C492.589 128.245 492.983 128.37 493.446 128.37C493.929 128.37 494.334 128.241 494.66 127.984C494.986 127.722 495.231 127.366 495.396 126.915C495.565 126.46 495.65 125.943 495.65 125.364C495.65 124.788 495.567 124.277 495.402 123.83C495.237 123.384 494.992 123.033 494.666 122.78C494.34 122.526 493.933 122.4 493.446 122.4C492.979 122.4 492.583 122.522 492.257 122.768C491.931 123.013 491.684 123.357 491.514 123.8C491.349 124.243 491.267 124.764 491.267 125.364ZM499.749 130V120.727H501.868V122.273H501.964C502.133 121.737 502.423 121.325 502.834 121.035C503.248 120.741 503.721 120.594 504.252 120.594C504.373 120.594 504.508 120.6 504.657 120.613C504.81 120.621 504.937 120.635 505.037 120.655V122.665C504.945 122.633 504.798 122.605 504.597 122.581C504.399 122.552 504.208 122.538 504.023 122.538C503.625 122.538 503.266 122.625 502.948 122.798C502.634 122.967 502.387 123.202 502.206 123.504C502.025 123.806 501.934 124.154 501.934 124.549V130H499.749ZM510.152 130.181C509.246 130.181 508.462 129.982 507.798 129.583C507.134 129.185 506.618 128.628 506.252 127.911C505.89 127.195 505.709 126.358 505.709 125.4C505.709 124.442 505.89 123.603 506.252 122.882C506.618 122.162 507.134 121.603 507.798 121.204C508.462 120.806 509.246 120.607 510.152 120.607C511.058 120.607 511.842 120.806 512.506 121.204C513.17 121.603 513.684 122.162 514.046 122.882C514.412 123.603 514.595 124.442 514.595 125.4C514.595 126.358 514.412 127.195 514.046 127.911C513.684 128.628 513.17 129.185 512.506 129.583C511.842 129.982 511.058 130.181 510.152 130.181ZM510.164 128.43C510.655 128.43 511.066 128.296 511.396 128.026C511.726 127.752 511.971 127.386 512.132 126.927C512.297 126.468 512.38 125.957 512.38 125.394C512.38 124.826 512.297 124.313 512.132 123.854C511.971 123.392 511.726 123.023 511.396 122.75C511.066 122.476 510.655 122.339 510.164 122.339C509.661 122.339 509.242 122.476 508.908 122.75C508.578 123.023 508.331 123.392 508.166 123.854C508.005 124.313 507.924 124.826 507.924 125.394C507.924 125.957 508.005 126.468 508.166 126.927C508.331 127.386 508.578 127.752 508.908 128.026C509.242 128.296 509.661 128.43 510.164 128.43ZM519.891 130.163C519.163 130.163 518.511 129.976 517.935 129.602C517.36 129.227 516.905 128.684 516.571 127.972C516.237 127.259 516.07 126.394 516.07 125.376C516.07 124.345 516.239 123.476 516.577 122.768C516.919 122.055 517.38 121.518 517.959 121.156C518.539 120.79 519.185 120.607 519.897 120.607C520.44 120.607 520.887 120.699 521.237 120.884C521.587 121.065 521.865 121.285 522.07 121.542C522.276 121.796 522.435 122.035 522.547 122.261H522.638V117.636H524.829V130H522.68V128.539H522.547C522.435 128.764 522.272 129.004 522.058 129.257C521.845 129.507 521.563 129.72 521.213 129.897C520.863 130.074 520.422 130.163 519.891 130.163ZM520.501 128.37C520.964 128.37 521.358 128.245 521.684 127.996C522.01 127.742 522.258 127.39 522.427 126.939C522.596 126.489 522.68 125.963 522.68 125.364C522.68 124.764 522.596 124.243 522.427 123.8C522.262 123.357 522.016 123.013 521.69 122.768C521.368 122.522 520.972 122.4 520.501 122.4C520.014 122.4 519.607 122.526 519.281 122.78C518.955 123.033 518.71 123.384 518.545 123.83C518.38 124.277 518.297 124.788 518.297 125.364C518.297 125.943 518.38 126.46 518.545 126.915C518.714 127.366 518.961 127.722 519.287 127.984C519.617 128.241 520.022 128.37 520.501 128.37ZM533.068 126.1V120.727H535.254V130H533.135V128.352H533.038C532.829 128.871 532.485 129.296 532.006 129.626C531.531 129.956 530.945 130.121 530.249 130.121C529.641 130.121 529.104 129.986 528.637 129.716C528.174 129.443 527.812 129.046 527.55 128.527C527.289 128.004 527.158 127.372 527.158 126.631V120.727H529.343V126.293C529.343 126.881 529.504 127.348 529.826 127.694C530.148 128.04 530.571 128.213 531.094 128.213C531.416 128.213 531.728 128.135 532.03 127.978C532.332 127.821 532.579 127.587 532.772 127.277C532.97 126.963 533.068 126.571 533.068 126.1ZM541.546 130.181C540.62 130.181 539.825 129.978 539.161 129.571C538.501 129.165 537.992 128.603 537.634 127.887C537.279 127.167 537.102 126.338 537.102 125.4C537.102 124.458 537.283 123.627 537.646 122.907C538.008 122.182 538.519 121.619 539.179 121.216C539.843 120.81 540.628 120.607 541.533 120.607C542.286 120.607 542.952 120.745 543.532 121.023C544.115 121.297 544.58 121.685 544.926 122.188C545.272 122.687 545.47 123.271 545.518 123.939H543.429C543.345 123.492 543.143 123.12 542.825 122.822C542.511 122.52 542.091 122.369 541.564 122.369C541.117 122.369 540.725 122.49 540.386 122.732C540.048 122.969 539.785 123.311 539.596 123.758C539.41 124.205 539.318 124.74 539.318 125.364C539.318 125.996 539.41 126.539 539.596 126.994C539.781 127.444 540.04 127.792 540.374 128.038C540.712 128.279 541.109 128.4 541.564 128.4C541.886 128.4 542.173 128.34 542.427 128.219C542.685 128.094 542.9 127.915 543.073 127.682C543.246 127.448 543.365 127.165 543.429 126.831H545.518C545.466 127.487 545.272 128.068 544.938 128.575C544.604 129.078 544.149 129.473 543.574 129.759C542.998 130.04 542.322 130.181 541.546 130.181ZM551.943 120.727V122.418H546.612V120.727H551.943ZM547.928 118.506H550.113V127.211C550.113 127.505 550.158 127.73 550.246 127.887C550.339 128.04 550.46 128.145 550.608 128.201C550.757 128.257 550.922 128.286 551.104 128.286C551.24 128.286 551.365 128.275 551.478 128.255C551.595 128.235 551.683 128.217 551.743 128.201L552.112 129.909C551.995 129.95 551.828 129.994 551.611 130.042C551.397 130.091 551.136 130.119 550.826 130.127C550.278 130.143 549.785 130.06 549.347 129.879C548.908 129.694 548.56 129.408 548.302 129.022C548.049 128.636 547.924 128.153 547.928 127.573V118.506ZM553.77 130V120.727H555.956V130H553.77ZM554.869 119.411C554.523 119.411 554.225 119.297 553.976 119.067C553.726 118.834 553.601 118.554 553.601 118.228C553.601 117.898 553.726 117.618 553.976 117.389C554.225 117.155 554.523 117.039 554.869 117.039C555.219 117.039 555.517 117.155 555.763 117.389C556.012 117.618 556.137 117.898 556.137 118.228C556.137 118.554 556.012 118.834 555.763 119.067C555.517 119.297 555.219 119.411 554.869 119.411ZM566.486 120.727L563.183 130H560.769L557.466 120.727H559.797L561.928 127.615H562.024L564.161 120.727H566.486ZM571.788 130.181C570.858 130.181 570.055 129.988 569.379 129.602C568.707 129.211 568.19 128.66 567.827 127.947C567.465 127.231 567.284 126.388 567.284 125.418C567.284 124.464 567.465 123.627 567.827 122.907C568.194 122.182 568.705 121.619 569.361 121.216C570.017 120.81 570.787 120.607 571.673 120.607C572.244 120.607 572.784 120.699 573.291 120.884C573.802 121.065 574.253 121.347 574.643 121.729C575.037 122.112 575.347 122.599 575.573 123.19C575.798 123.778 575.911 124.478 575.911 125.291V125.961H568.31V124.488H573.816C573.812 124.07 573.721 123.697 573.544 123.371C573.367 123.041 573.12 122.782 572.802 122.593C572.488 122.404 572.122 122.309 571.703 122.309C571.256 122.309 570.864 122.418 570.526 122.635C570.188 122.848 569.924 123.13 569.735 123.48C569.55 123.826 569.455 124.207 569.451 124.621V125.907C569.451 126.446 569.55 126.909 569.747 127.295C569.944 127.678 570.22 127.972 570.574 128.177C570.928 128.378 571.343 128.479 571.818 128.479C572.136 128.479 572.423 128.434 572.681 128.346C572.939 128.253 573.162 128.118 573.351 127.941C573.54 127.764 573.683 127.545 573.78 127.283L575.82 127.513C575.691 128.052 575.446 128.523 575.084 128.925C574.726 129.324 574.267 129.634 573.707 129.855C573.148 130.072 572.508 130.181 571.788 130.181ZM589.305 123.178L587.313 123.396C587.257 123.194 587.158 123.005 587.017 122.828C586.88 122.651 586.695 122.508 586.462 122.4C586.228 122.291 585.943 122.237 585.605 122.237C585.15 122.237 584.767 122.335 584.458 122.532C584.152 122.73 584.001 122.985 584.005 123.299C584.001 123.569 584.099 123.788 584.301 123.957C584.506 124.126 584.844 124.265 585.315 124.374L586.896 124.712C587.774 124.901 588.426 125.201 588.852 125.611C589.283 126.022 589.5 126.559 589.504 127.223C589.5 127.807 589.329 128.322 588.991 128.768C588.657 129.211 588.192 129.557 587.597 129.807C587.001 130.056 586.317 130.181 585.544 130.181C584.409 130.181 583.496 129.944 582.803 129.469C582.111 128.99 581.699 128.324 581.566 127.471L583.697 127.265C583.794 127.684 583.999 128 584.313 128.213C584.627 128.426 585.035 128.533 585.538 128.533C586.057 128.533 586.474 128.426 586.788 128.213C587.106 128 587.265 127.736 587.265 127.422C587.265 127.157 587.162 126.937 586.957 126.764C586.756 126.591 586.442 126.458 586.015 126.366L584.433 126.034C583.544 125.849 582.886 125.537 582.459 125.098C582.033 124.655 581.821 124.096 581.825 123.42C581.821 122.848 581.976 122.353 582.29 121.935C582.608 121.512 583.049 121.186 583.612 120.957C584.18 120.723 584.834 120.607 585.574 120.607C586.661 120.607 587.516 120.838 588.14 121.301C588.768 121.764 589.156 122.389 589.305 123.178ZM592.665 133.477C592.367 133.477 592.091 133.453 591.838 133.405C591.588 133.361 591.389 133.308 591.24 133.248L591.747 131.545C592.065 131.638 592.349 131.682 592.598 131.678C592.848 131.674 593.067 131.596 593.256 131.443C593.45 131.294 593.613 131.044 593.745 130.694L593.933 130.193L590.57 120.727H592.888L595.025 127.73H595.122L597.265 120.727H599.589L595.876 131.123C595.703 131.614 595.474 132.034 595.188 132.385C594.902 132.739 594.552 133.008 594.138 133.194C593.727 133.383 593.236 133.477 592.665 133.477ZM608.43 123.178L606.438 123.396C606.382 123.194 606.283 123.005 606.142 122.828C606.005 122.651 605.82 122.508 605.587 122.4C605.353 122.291 605.068 122.237 604.73 122.237C604.275 122.237 603.892 122.335 603.583 122.532C603.277 122.73 603.126 122.985 603.13 123.299C603.126 123.569 603.224 123.788 603.426 123.957C603.631 124.126 603.969 124.265 604.44 124.374L606.021 124.712C606.899 124.901 607.551 125.201 607.977 125.611C608.408 126.022 608.625 126.559 608.629 127.223C608.625 127.807 608.454 128.322 608.116 128.768C607.782 129.211 607.317 129.557 606.722 129.807C606.126 130.056 605.442 130.181 604.669 130.181C603.534 130.181 602.621 129.944 601.928 129.469C601.236 128.99 600.824 128.324 600.691 127.471L602.822 127.265C602.919 127.684 603.124 128 603.438 128.213C603.752 128.426 604.16 128.533 604.663 128.533C605.182 128.533 605.599 128.426 605.913 128.213C606.231 128 606.39 127.736 606.39 127.422C606.39 127.157 606.287 126.937 606.082 126.764C605.881 126.591 605.567 126.458 605.14 126.366L603.558 126.034C602.669 125.849 602.011 125.537 601.584 125.098C601.158 124.655 600.946 124.096 600.95 123.42C600.946 122.848 601.101 122.353 601.415 121.935C601.733 121.512 602.174 121.186 602.737 120.957C603.305 120.723 603.959 120.607 604.699 120.607C605.786 120.607 606.641 120.838 607.265 121.301C607.893 121.764 608.281 122.389 608.43 123.178ZM615.062 120.727V122.418H609.731V120.727H615.062ZM611.047 118.506H613.233V127.211C613.233 127.505 613.277 127.73 613.365 127.887C613.458 128.04 613.579 128.145 613.728 128.201C613.877 128.257 614.042 128.286 614.223 128.286C614.359 128.286 614.484 128.275 614.597 128.255C614.714 128.235 614.802 128.217 614.863 128.201L615.231 129.909C615.114 129.95 614.947 129.994 614.73 130.042C614.516 130.091 614.255 130.119 613.945 130.127C613.398 130.143 612.905 130.06 612.466 129.879C612.027 129.694 611.679 129.408 611.422 129.022C611.168 128.636 611.043 128.153 611.047 127.573V118.506ZM620.895 130.181C619.965 130.181 619.162 129.988 618.486 129.602C617.814 129.211 617.297 128.66 616.935 127.947C616.573 127.231 616.391 126.388 616.391 125.418C616.391 124.464 616.573 123.627 616.935 122.907C617.301 122.182 617.812 121.619 618.468 121.216C619.124 120.81 619.895 120.607 620.78 120.607C621.352 120.607 621.891 120.699 622.398 120.884C622.909 121.065 623.36 121.347 623.75 121.729C624.145 122.112 624.455 122.599 624.68 123.19C624.906 123.778 625.018 124.478 625.018 125.291V125.961H617.418V124.488H622.923C622.919 124.07 622.829 123.697 622.652 123.371C622.475 123.041 622.227 122.782 621.909 122.593C621.595 122.404 621.229 122.309 620.81 122.309C620.364 122.309 619.971 122.418 619.633 122.635C619.295 122.848 619.032 123.13 618.842 123.48C618.657 123.826 618.563 124.207 618.559 124.621V125.907C618.559 126.446 618.657 126.909 618.854 127.295C619.052 127.678 619.327 127.972 619.682 128.177C620.036 128.378 620.45 128.479 620.925 128.479C621.243 128.479 621.531 128.434 621.788 128.346C622.046 128.253 622.269 128.118 622.459 127.941C622.648 127.764 622.791 127.545 622.887 127.283L624.928 127.513C624.799 128.052 624.553 128.523 624.191 128.925C623.833 129.324 623.374 129.634 622.815 129.855C622.255 130.072 621.615 130.181 620.895 130.181ZM626.867 130V120.727H628.956V122.303H629.064C629.258 121.772 629.578 121.357 630.024 121.059C630.471 120.757 631.004 120.607 631.624 120.607C632.252 120.607 632.781 120.759 633.212 121.065C633.646 121.367 633.952 121.78 634.129 122.303H634.226C634.431 121.788 634.777 121.377 635.264 121.071C635.755 120.761 636.337 120.607 637.009 120.607C637.862 120.607 638.559 120.876 639.098 121.415C639.637 121.955 639.907 122.742 639.907 123.776V130H637.715V124.114C637.715 123.538 637.562 123.118 637.257 122.852C636.951 122.583 636.576 122.448 636.134 122.448C635.606 122.448 635.194 122.613 634.896 122.943C634.602 123.269 634.455 123.693 634.455 124.217V130H632.312V124.023C632.312 123.545 632.167 123.162 631.878 122.876C631.592 122.591 631.218 122.448 630.755 122.448C630.441 122.448 630.155 122.528 629.898 122.689C629.64 122.846 629.435 123.07 629.282 123.359C629.129 123.645 629.052 123.979 629.052 124.362V130H626.867ZM649.453 123.178L647.46 123.396C647.404 123.194 647.306 123.005 647.165 122.828C647.028 122.651 646.843 122.508 646.609 122.4C646.376 122.291 646.09 122.237 645.752 122.237C645.297 122.237 644.915 122.335 644.605 122.532C644.299 122.73 644.148 122.985 644.152 123.299C644.148 123.569 644.247 123.788 644.448 123.957C644.653 124.126 644.991 124.265 645.462 124.374L647.044 124.712C647.921 124.901 648.573 125.201 649 125.611C649.431 126.022 649.648 126.559 649.652 127.223C649.648 127.807 649.477 128.322 649.139 128.768C648.805 129.211 648.34 129.557 647.744 129.807C647.149 130.056 646.464 130.181 645.692 130.181C644.557 130.181 643.643 129.944 642.951 129.469C642.259 128.99 641.846 128.324 641.713 127.471L643.844 127.265C643.941 127.684 644.146 128 644.46 128.213C644.774 128.426 645.183 128.533 645.686 128.533C646.205 128.533 646.621 128.426 646.935 128.213C647.253 128 647.412 127.736 647.412 127.422C647.412 127.157 647.31 126.937 647.104 126.764C646.903 126.591 646.589 126.458 646.163 126.366L644.581 126.034C643.691 125.849 643.033 125.537 642.607 125.098C642.18 124.655 641.969 124.096 641.973 123.42C641.969 122.848 642.124 122.353 642.438 121.935C642.756 121.512 643.196 121.186 643.76 120.957C644.327 120.723 644.981 120.607 645.722 120.607C646.809 120.607 647.664 120.838 648.288 121.301C648.915 121.764 649.304 122.389 649.453 123.178ZM659.715 130.181C658.81 130.181 658.025 129.982 657.361 129.583C656.697 129.185 656.182 128.628 655.816 127.911C655.453 127.195 655.272 126.358 655.272 125.4C655.272 124.442 655.453 123.603 655.816 122.882C656.182 122.162 656.697 121.603 657.361 121.204C658.025 120.806 658.81 120.607 659.715 120.607C660.621 120.607 661.406 120.806 662.07 121.204C662.734 121.603 663.247 122.162 663.609 122.882C663.976 123.603 664.159 124.442 664.159 125.4C664.159 126.358 663.976 127.195 663.609 127.911C663.247 128.628 662.734 129.185 662.07 129.583C661.406 129.982 660.621 130.181 659.715 130.181ZM659.728 128.43C660.219 128.43 660.629 128.296 660.959 128.026C661.289 127.752 661.535 127.386 661.696 126.927C661.861 126.468 661.943 125.957 661.943 125.394C661.943 124.826 661.861 124.313 661.696 123.854C661.535 123.392 661.289 123.023 660.959 122.75C660.629 122.476 660.219 122.339 659.728 122.339C659.224 122.339 658.806 122.476 658.472 122.75C658.142 123.023 657.894 123.392 657.729 123.854C657.568 124.313 657.488 124.826 657.488 125.394C657.488 125.957 657.568 126.468 657.729 126.927C657.894 127.386 658.142 127.752 658.472 128.026C658.806 128.296 659.224 128.43 659.728 128.43ZM668.199 124.567V130H666.013V120.727H668.102V122.303H668.211C668.424 121.784 668.764 121.371 669.231 121.065C669.702 120.759 670.284 120.607 670.976 120.607C671.616 120.607 672.173 120.743 672.648 121.017C673.127 121.291 673.497 121.687 673.759 122.206C674.025 122.725 674.155 123.355 674.151 124.096V130H671.966V124.434C671.966 123.814 671.805 123.329 671.483 122.979C671.165 122.629 670.724 122.454 670.161 122.454C669.779 122.454 669.438 122.538 669.141 122.707C668.847 122.872 668.615 123.112 668.446 123.426C668.281 123.74 668.199 124.12 668.199 124.567ZM688.969 121.585C688.868 121.259 688.729 120.967 688.552 120.709C688.379 120.448 688.17 120.224 687.925 120.039C687.683 119.854 687.405 119.715 687.091 119.623C686.778 119.526 686.435 119.478 686.065 119.478C685.401 119.478 684.809 119.645 684.29 119.979C683.771 120.313 683.363 120.804 683.065 121.452C682.771 122.096 682.624 122.88 682.624 123.806C682.624 124.74 682.771 125.531 683.065 126.179C683.359 126.827 683.767 127.32 684.29 127.658C684.814 127.992 685.421 128.159 686.113 128.159C686.741 128.159 687.285 128.038 687.743 127.797C688.206 127.555 688.562 127.213 688.812 126.77C689.061 126.324 689.186 125.8 689.186 125.201L689.693 125.279H686.337V123.528H691.354V125.013C691.354 126.072 691.128 126.988 690.677 127.76C690.227 128.533 689.607 129.129 688.818 129.547C688.029 129.962 687.124 130.169 686.101 130.169C684.962 130.169 683.962 129.913 683.101 129.402C682.244 128.887 681.574 128.157 681.091 127.211C680.612 126.261 680.372 125.134 680.372 123.83C680.372 122.832 680.513 121.941 680.795 121.156C681.081 120.371 681.479 119.705 681.99 119.158C682.501 118.606 683.101 118.188 683.789 117.902C684.477 117.612 685.226 117.467 686.035 117.467C686.719 117.467 687.357 117.568 687.949 117.769C688.54 117.966 689.066 118.248 689.524 118.614C689.987 118.981 690.367 119.415 690.665 119.918C690.963 120.421 691.158 120.977 691.251 121.585H688.969ZM697.467 130.181C696.562 130.181 695.777 129.982 695.113 129.583C694.449 129.185 693.934 128.628 693.568 127.911C693.205 127.195 693.024 126.358 693.024 125.4C693.024 124.442 693.205 123.603 693.568 122.882C693.934 122.162 694.449 121.603 695.113 121.204C695.777 120.806 696.562 120.607 697.467 120.607C698.373 120.607 699.158 120.806 699.822 121.204C700.486 121.603 700.999 122.162 701.361 122.882C701.727 123.603 701.911 124.442 701.911 125.4C701.911 126.358 701.727 127.195 701.361 127.911C700.999 128.628 700.486 129.185 699.822 129.583C699.158 129.982 698.373 130.181 697.467 130.181ZM697.479 128.43C697.97 128.43 698.381 128.296 698.711 128.026C699.041 127.752 699.287 127.386 699.448 126.927C699.613 126.468 699.695 125.957 699.695 125.394C699.695 124.826 699.613 124.313 699.448 123.854C699.287 123.392 699.041 123.023 698.711 122.75C698.381 122.476 697.97 122.339 697.479 122.339C696.976 122.339 696.558 122.476 696.224 122.75C695.894 123.023 695.646 123.392 695.481 123.854C695.32 124.313 695.24 124.826 695.24 125.394C695.24 125.957 695.32 126.468 695.481 126.927C695.646 127.386 695.894 127.752 696.224 128.026C696.558 128.296 696.976 128.43 697.479 128.43Z" fill="white"/>
<defs>
<linearGradient id="paint0_linear_0_1" x1="-1.45332e-07" y1="77" x2="1268" y2="217" gradientUnits="userSpaceOnUse">
<stop stop-color="#A67AFF"/>
<stop offset="1" stop-color="#0059BE"/>
</linearGradient>
<linearGradient id="paint1_linear_0_1" x1="-1.45332e-07" y1="77" x2="1268" y2="217" gradientUnits="userSpaceOnUse">
<stop stop-color="#A67AFF"/>
<stop offset="1" stop-color="#0059BE"/>
</linearGradient>
<linearGradient id="paint2_linear_0_1" x1="-1.45332e-07" y1="77" x2="1268" y2="217" gradientUnits="userSpaceOnUse">
<stop stop-color="#A67AFF"/>
<stop offset="1" stop-color="#0059BE"/>
</linearGradient>
<linearGradient id="paint3_linear_0_1" x1="-1.45332e-07" y1="77" x2="1268" y2="217" gradientUnits="userSpaceOnUse">
<stop stop-color="#A67AFF"/>
<stop offset="1" stop-color="#0059BE"/>
</linearGradient>
</defs>
</svg>
