<?xml version="1.0" encoding="UTF-8" standalone="no" ?>
<!DOCTYPE svg PUBLIC "-//W3C//DTD SVG 1.1//EN" "http://www.w3.org/Graphics/SVG/1.1/DTD/svg11.dtd">
<svg xmlns="http://www.w3.org/2000/svg" xmlns:xlink="http://www.w3.org/1999/xlink" version="1.1" width="1080" height="1080" viewBox="0 0 1080 1080" xml:space="preserve">
<desc>Created with Fabric.js 5.2.4</desc>
<defs>
</defs>
<g transform="matrix(1 0 0 1 540 540)" id="ee0433ec-5fba-4c83-a90c-8ee7e50124d8"  >
<rect style="stroke: none; stroke-width: 1; stroke-dasharray: none; stroke-linecap: butt; stroke-dashoffset: 0; stroke-linejoin: miter; stroke-miterlimit: 4; fill: rgb(255,255,255); fill-rule: nonzero; opacity: 1; visibility: hidden;" vector-effect="non-scaling-stroke"  x="-540" y="-540" rx="0" ry="0" width="1080" height="1080" />
</g>
<g transform="matrix(1 0 0 1 540 540)" id="5bba9935-7603-4304-a4b8-d51b9b4108c8"  >
</g>
<g transform="matrix(0.96 0 0 0.96 540 540)"  >
<g style=""   >
		<g transform="matrix(1 0 0 1 0 -0.33)"  >
<path style="stroke: none; stroke-width: 1; stroke-dasharray: none; stroke-linecap: butt; stroke-dashoffset: 0; stroke-linejoin: miter; stroke-miterlimit: 4; fill: rgb(250,114,104); fill-rule: nonzero; opacity: 1;" vector-effect="non-scaling-stroke"  transform=" translate(-560, -163.17)" d="M 0 322.93 L 37.3333 309.537 C 74.6667 296.27 149.333 269.484 224 242.823 C 298.667 216.163 373.333 189.377 448 196.136 C 522.667 202.77 597.333 242.823 672 273.489 C 746.667 304.155 821.333 325.433 896 326.31 C 970.667 327.061 1045.33 307.535 1082.67 297.646 L 1120 287.883 L 1120 0 L 1082.67 0 C 1045.33 0 970.667 0 896 0 C 821.333 0 746.667 0 672 0 C 597.333 0 522.667 0 448 0 C 373.333 0 298.667 0 224 0 C 149.333 0 74.6667 0 37.3333 0 L 0 0 L 0 322.93 Z" stroke-linecap="round" />
</g>
		<g transform="matrix(1 0 0 1 0 -41)"  >
<path style="stroke: none; stroke-width: 1; stroke-dasharray: none; stroke-linecap: butt; stroke-dashoffset: 0; stroke-linejoin: miter; stroke-miterlimit: 4; fill: rgb(209,70,88); fill-rule: nonzero; opacity: 1;" vector-effect="non-scaling-stroke"  transform=" translate(-560, -122.5)" d="M 0 147.697 L 37.3333 130.799 C 74.6667 113.902 149.333 80.1067 224 85.4888 C 298.667 90.9962 373.333 135.555 448 172.48 C 522.667 209.404 597.333 238.693 672 244.075 C 746.667 249.457 821.333 231.183 896 197.388 C 970.667 163.593 1045.33 114.277 1082.67 89.7445 L 1120 65.0867 L 1120 0 L 1082.67 0 C 1045.33 0 970.667 0 896 0 C 821.333 0 746.667 0 672 0 C 597.333 0 522.667 0 448 0 C 373.333 0 298.667 0 224 0 C 149.333 0 74.6667 0 37.3333 0 L 0 0 L 0 147.697 Z" stroke-linecap="round" />
</g>
		<g transform="matrix(1 0 0 1 0 -79.64)"  >
<path style="stroke: none; stroke-width: 1; stroke-dasharray: none; stroke-linecap: butt; stroke-dashoffset: 0; stroke-linejoin: miter; stroke-miterlimit: 4; fill: rgb(166,19,72); fill-rule: nonzero; opacity: 1;" vector-effect="non-scaling-stroke"  transform=" translate(-560, -83.86)" d="M 0 167.723 L 37.3333 152.703 C 74.6667 137.683 149.333 107.643 224 106.392 C 298.667 105.14 373.333 132.677 448 134.304 C 522.667 136.056 597.333 111.774 672 114.903 C 746.667 118.032 821.333 148.573 896 139.561 C 970.667 130.549 1045.33 82.2345 1082.67 57.9522 L 1120 33.795 L 1120 0 L 1082.67 0 C 1045.33 0 970.667 0 896 0 C 821.333 0 746.667 0 672 0 C 597.333 0 522.667 0 448 0 C 373.333 0 298.667 0 224 0 C 149.333 0 74.6667 0 37.3333 0 L 0 0 L 0 167.723 Z" stroke-linecap="round" />
</g>
		<g transform="matrix(1 0 0 1 -197 -50)"  >
<path style="stroke: rgb(255,255,255); stroke-width: 7; stroke-dasharray: none; stroke-linecap: butt; stroke-dashoffset: 0; stroke-linejoin: miter; stroke-miterlimit: 4; fill: rgb(43,43,43); fill-rule: nonzero; opacity: 1;" vector-effect="non-scaling-stroke"  transform=" translate(-363, -113.5)" d="M 77.5 67.5 L 648.5 67.5 C 673.905 67.5 694.5 88.0949 694.5 113.5 C 694.5 138.905 673.905 159.5 648.5 159.5 L 77.5 159.5 C 52.0949 159.5 31.5 138.905 31.5 113.5 C 31.5 88.0949 52.0949 67.5 77.5 67.5 Z" stroke-linecap="round" />
</g>
		<g transform="matrix(1 0 0 1 -193.22 -47.27)"  >
<path style="stroke: none; stroke-width: 1; stroke-dasharray: none; stroke-linecap: butt; stroke-dashoffset: 0; stroke-linejoin: miter; stroke-miterlimit: 4; fill: rgb(255,255,255); fill-rule: nonzero; opacity: 1;" vector-effect="non-scaling-stroke"  transform=" translate(-366.78, -116.23)" d="M 71.5398 132 L 71.5398 91.2727 L 80.1506 91.2727 L 80.1506 108.077 L 97.6307 108.077 L 97.6307 91.2727 L 106.222 91.2727 L 106.222 132 L 97.6307 132 L 97.6307 115.176 L 80.1506 115.176 L 80.1506 132 L 71.5398 132 Z M 127.082 132.597 C 123.94 132.597 121.236 131.96 118.969 130.688 C 116.715 129.402 114.978 127.585 113.759 125.239 C 112.539 122.879 111.929 120.088 111.929 116.866 C 111.929 113.724 112.539 110.967 113.759 108.594 C 114.978 106.221 116.695 104.371 118.909 103.045 C 121.136 101.72 123.748 101.057 126.744 101.057 C 128.759 101.057 130.635 101.382 132.372 102.031 C 134.122 102.668 135.647 103.629 136.946 104.915 C 138.259 106.201 139.279 107.818 140.009 109.767 C 140.738 111.703 141.102 113.97 141.102 116.568 L 141.102 118.895 L 115.31 118.895 L 115.31 113.645 L 133.128 113.645 C 133.128 112.425 132.863 111.345 132.332 110.403 C 131.802 109.462 131.066 108.726 130.125 108.196 C 129.197 107.652 128.116 107.381 126.884 107.381 C 125.598 107.381 124.457 107.679 123.463 108.276 C 122.482 108.859 121.713 109.648 121.156 110.642 C 120.599 111.623 120.314 112.717 120.301 113.923 L 120.301 118.915 C 120.301 120.426 120.58 121.732 121.136 122.832 C 121.706 123.933 122.509 124.781 123.543 125.378 C 124.577 125.974 125.803 126.273 127.222 126.273 C 128.163 126.273 129.025 126.14 129.807 125.875 C 130.589 125.61 131.259 125.212 131.815 124.682 C 132.372 124.152 132.796 123.502 133.088 122.733 L 140.923 123.25 C 140.526 125.133 139.71 126.777 138.477 128.182 C 137.258 129.574 135.68 130.661 133.744 131.443 C 131.822 132.212 129.601 132.597 127.082 132.597 Z M 155.102 91.2727 L 155.102 132 L 146.631 132 L 146.631 91.2727 L 155.102 91.2727 Z M 170.36 91.2727 L 170.36 132 L 161.888 132 L 161.888 91.2727 L 170.36 91.2727 Z M 190.947 132.597 C 187.858 132.597 185.187 131.94 182.933 130.628 C 180.693 129.302 178.963 127.459 177.743 125.099 C 176.523 122.726 175.913 119.975 175.913 116.847 C 175.913 113.691 176.523 110.934 177.743 108.574 C 178.963 106.201 180.693 104.358 182.933 103.045 C 185.187 101.72 187.858 101.057 190.947 101.057 C 194.036 101.057 196.701 101.72 198.942 103.045 C 201.196 104.358 202.932 106.201 204.152 108.574 C 205.372 110.934 205.982 113.691 205.982 116.847 C 205.982 119.975 205.372 122.726 204.152 125.099 C 202.932 127.459 201.196 129.302 198.942 130.628 C 196.701 131.94 194.036 132.597 190.947 132.597 Z M 190.987 126.034 C 192.393 126.034 193.566 125.636 194.507 124.841 C 195.448 124.032 196.158 122.932 196.635 121.54 C 197.125 120.148 197.371 118.563 197.371 116.787 C 197.371 115.01 197.125 113.426 196.635 112.034 C 196.158 110.642 195.448 109.542 194.507 108.733 C 193.566 107.924 192.393 107.52 190.987 107.52 C 189.569 107.52 188.375 107.924 187.408 108.733 C 186.453 109.542 185.731 110.642 185.24 112.034 C 184.763 113.426 184.524 115.01 184.524 116.787 C 184.524 118.563 184.763 120.148 185.24 121.54 C 185.731 122.932 186.453 124.032 187.408 124.841 C 188.375 125.636 189.569 126.034 190.987 126.034 Z M 230.477 132 L 222.164 101.455 L 230.735 101.455 L 235.468 121.977 L 235.746 121.977 L 240.678 101.455 L 249.09 101.455 L 254.102 121.858 L 254.36 121.858 L 259.013 101.455 L 267.565 101.455 L 259.272 132 L 250.303 132 L 245.053 112.79 L 244.675 112.79 L 239.425 132 L 230.477 132 Z M 285.119 132.597 C 282.03 132.597 279.359 131.94 277.105 130.628 C 274.865 129.302 273.134 127.459 271.915 125.099 C 270.695 122.726 270.085 119.975 270.085 116.847 C 270.085 113.691 270.695 110.934 271.915 108.574 C 273.134 106.201 274.865 104.358 277.105 103.045 C 279.359 101.72 282.03 101.057 285.119 101.057 C 288.208 101.057 290.873 101.72 293.114 103.045 C 295.367 104.358 297.104 106.201 298.324 108.574 C 299.544 110.934 300.153 113.691 300.153 116.847 C 300.153 119.975 299.544 122.726 298.324 125.099 C 297.104 127.459 295.367 129.302 293.114 130.628 C 290.873 131.94 288.208 132.597 285.119 132.597 Z M 285.159 126.034 C 286.564 126.034 287.738 125.636 288.679 124.841 C 289.62 124.032 290.33 122.932 290.807 121.54 C 291.297 120.148 291.543 118.563 291.543 116.787 C 291.543 115.01 291.297 113.426 290.807 112.034 C 290.33 110.642 289.62 109.542 288.679 108.733 C 287.738 107.924 286.564 107.52 285.159 107.52 C 283.741 107.52 282.547 107.924 281.58 108.733 C 280.625 109.542 279.902 110.642 279.412 112.034 C 278.935 113.426 278.696 115.01 278.696 116.787 C 278.696 118.563 278.935 120.148 279.412 121.54 C 279.902 122.932 280.625 124.032 281.58 124.841 C 282.547 125.636 283.741 126.034 285.159 126.034 Z M 305.662 132 L 305.662 101.455 L 313.875 101.455 L 313.875 106.784 L 314.193 106.784 C 314.75 104.888 315.685 103.456 316.997 102.489 C 318.31 101.508 319.821 101.017 321.531 101.017 C 321.955 101.017 322.413 101.044 322.903 101.097 C 323.394 101.15 323.825 101.223 324.196 101.315 L 324.196 108.832 C 323.798 108.713 323.248 108.607 322.545 108.514 C 321.843 108.421 321.2 108.375 320.616 108.375 C 319.37 108.375 318.257 108.647 317.276 109.19 C 316.308 109.721 315.539 110.463 314.969 111.418 C 314.412 112.372 314.134 113.473 314.134 114.719 L 314.134 132 L 305.662 132 Z M 337.048 91.2727 L 337.048 132 L 328.576 132 L 328.576 91.2727 L 337.048 91.2727 Z M 355.089 132.497 C 352.769 132.497 350.668 131.901 348.786 130.707 C 346.916 129.501 345.431 127.731 344.331 125.398 C 343.244 123.051 342.7 120.174 342.7 116.767 C 342.7 113.267 343.264 110.357 344.391 108.037 C 345.518 105.704 347.016 103.96 348.885 102.807 C 350.768 101.64 352.829 101.057 355.07 101.057 C 356.78 101.057 358.205 101.348 359.345 101.932 C 360.499 102.502 361.427 103.218 362.129 104.08 C 362.845 104.928 363.389 105.763 363.76 106.585 L 364.018 106.585 L 364.018 91.2727 L 372.47 91.2727 L 372.47 132 L 364.118 132 L 364.118 127.108 L 363.76 127.108 C 363.362 127.956 362.799 128.798 362.07 129.634 C 361.354 130.455 360.419 131.138 359.266 131.682 C 358.125 132.225 356.733 132.497 355.089 132.497 Z M 357.774 125.756 C 359.14 125.756 360.293 125.384 361.234 124.642 C 362.189 123.886 362.918 122.832 363.422 121.48 C 363.939 120.128 364.197 118.544 364.197 116.727 C 364.197 114.911 363.946 113.333 363.442 111.994 C 362.938 110.655 362.209 109.621 361.254 108.892 C 360.3 108.163 359.14 107.798 357.774 107.798 C 356.382 107.798 355.209 108.176 354.254 108.932 C 353.3 109.687 352.577 110.735 352.087 112.074 C 351.596 113.413 351.351 114.964 351.351 116.727 C 351.351 118.504 351.596 120.075 352.087 121.44 C 352.59 122.793 353.313 123.853 354.254 124.622 C 355.209 125.378 356.382 125.756 357.774 125.756 Z M 388.643 126.432 L 388.424 128.619 C 388.252 130.369 387.92 132.113 387.43 133.849 C 386.952 135.599 386.449 137.184 385.918 138.602 C 385.401 140.021 384.984 141.134 384.665 141.943 L 379.177 141.943 C 379.376 141.161 379.647 140.067 379.992 138.662 C 380.337 137.27 380.662 135.705 380.967 133.969 C 381.272 132.232 381.464 130.462 381.543 128.659 L 381.643 126.432 L 388.643 126.432 Z M 416.205 91.2727 L 416.205 132 L 407.594 132 L 407.594 91.2727 L 416.205 91.2727 Z M 430.23 91.2727 L 430.23 95.5682 C 430.23 96.7879 429.991 98.0341 429.514 99.3068 C 429.05 100.566 428.427 101.759 427.645 102.886 C 426.863 104 426.008 104.948 425.08 105.73 L 421.341 103.523 C 422.004 102.475 422.587 101.315 423.091 100.043 C 423.608 98.7699 423.866 97.2917 423.866 95.608 L 423.866 91.2727 L 430.23 91.2727 Z M 434.67 132 L 434.67 101.455 L 442.744 101.455 L 442.744 106.844 L 443.102 106.844 C 443.738 105.054 444.799 103.642 446.283 102.608 C 447.768 101.574 449.545 101.057 451.613 101.057 C 453.708 101.057 455.491 101.58 456.962 102.628 C 458.434 103.662 459.415 105.067 459.906 106.844 L 460.224 106.844 C 460.847 105.094 461.974 103.695 463.604 102.648 C 465.248 101.587 467.191 101.057 469.431 101.057 C 472.281 101.057 474.595 101.965 476.371 103.781 C 478.161 105.584 479.056 108.143 479.056 111.457 L 479.056 132 L 470.604 132 L 470.604 113.128 C 470.604 111.431 470.154 110.158 469.252 109.31 C 468.351 108.461 467.224 108.037 465.871 108.037 C 464.334 108.037 463.134 108.527 462.272 109.509 C 461.41 110.476 460.979 111.756 460.979 113.347 L 460.979 132 L 452.766 132 L 452.766 112.949 C 452.766 111.451 452.335 110.258 451.474 109.369 C 450.625 108.481 449.505 108.037 448.113 108.037 C 447.172 108.037 446.323 108.276 445.567 108.753 C 444.825 109.217 444.235 109.873 443.798 110.722 C 443.36 111.557 443.141 112.538 443.141 113.665 L 443.141 132 L 434.67 132 Z M 507.479 91.2727 L 507.479 132 L 498.868 132 L 498.868 91.2727 L 507.479 91.2727 Z M 523.174 91.2727 L 523.174 132 L 514.563 132 L 514.563 91.2727 L 523.174 91.2727 Z M 537.776 123.21 L 537.795 113.048 L 539.028 113.048 L 548.812 101.455 L 558.537 101.455 L 545.392 116.807 L 543.384 116.807 L 537.776 123.21 Z M 530.099 132 L 530.099 91.2727 L 538.571 91.2727 L 538.571 132 L 530.099 132 Z M 549.19 132 L 540.202 118.696 L 545.849 112.71 L 559.114 132 L 549.19 132 Z M 571.403 132.577 C 569.455 132.577 567.718 132.239 566.193 131.562 C 564.669 130.873 563.462 129.859 562.574 128.52 C 561.699 127.168 561.261 125.484 561.261 123.469 C 561.261 121.772 561.573 120.347 562.196 119.193 C 562.819 118.04 563.668 117.112 564.741 116.409 C 565.815 115.706 567.035 115.176 568.401 114.818 C 569.779 114.46 571.224 114.208 572.736 114.062 C 574.512 113.877 575.944 113.705 577.031 113.545 C 578.118 113.373 578.907 113.121 579.398 112.79 C 579.888 112.458 580.134 111.968 580.134 111.318 L 580.134 111.199 C 580.134 109.939 579.736 108.965 578.94 108.276 C 578.158 107.586 577.045 107.241 575.599 107.241 C 574.075 107.241 572.862 107.58 571.96 108.256 C 571.059 108.919 570.462 109.754 570.17 110.761 L 562.335 110.125 C 562.733 108.269 563.515 106.665 564.682 105.312 C 565.848 103.947 567.353 102.9 569.196 102.17 C 571.052 101.428 573.2 101.057 575.639 101.057 C 577.336 101.057 578.96 101.256 580.511 101.653 C 582.076 102.051 583.461 102.668 584.668 103.503 C 585.887 104.338 586.848 105.412 587.551 106.724 C 588.254 108.024 588.605 109.581 588.605 111.398 L 588.605 132 L 580.571 132 L 580.571 127.764 L 580.332 127.764 C 579.842 128.719 579.186 129.561 578.364 130.29 C 577.542 131.006 576.554 131.569 575.401 131.98 C 574.247 132.378 572.915 132.577 571.403 132.577 Z M 573.83 126.73 C 575.076 126.73 576.176 126.485 577.131 125.994 C 578.085 125.491 578.834 124.814 579.378 123.966 C 579.921 123.117 580.193 122.156 580.193 121.082 L 580.193 117.841 C 579.928 118.013 579.563 118.172 579.099 118.318 C 578.649 118.451 578.138 118.577 577.568 118.696 C 576.998 118.802 576.428 118.902 575.858 118.994 C 575.288 119.074 574.771 119.147 574.307 119.213 C 573.313 119.359 572.444 119.591 571.702 119.909 C 570.959 120.227 570.383 120.658 569.972 121.202 C 569.561 121.732 569.355 122.395 569.355 123.19 C 569.355 124.344 569.773 125.225 570.608 125.835 C 571.456 126.432 572.53 126.73 573.83 126.73 Z M 595.178 132 L 595.178 101.455 L 603.391 101.455 L 603.391 106.784 L 603.709 106.784 C 604.266 104.888 605.2 103.456 606.513 102.489 C 607.825 101.508 609.337 101.017 611.047 101.017 C 611.471 101.017 611.929 101.044 612.419 101.097 C 612.91 101.15 613.34 101.223 613.712 101.315 L 613.712 108.832 C 613.314 108.713 612.764 108.607 612.061 108.514 C 611.358 108.421 610.715 108.375 610.132 108.375 C 608.886 108.375 607.772 108.647 606.791 109.19 C 605.823 109.721 605.054 110.463 604.484 111.418 C 603.928 112.372 603.649 113.473 603.649 114.719 L 603.649 132 L 595.178 132 Z M 636.004 132.517 C 634.692 132.517 633.565 132.053 632.624 131.125 C 631.696 130.184 631.232 129.057 631.232 127.744 C 631.232 126.445 631.696 125.331 632.624 124.403 C 633.565 123.475 634.692 123.011 636.004 123.011 C 637.277 123.011 638.391 123.475 639.345 124.403 C 640.3 125.331 640.777 126.445 640.777 127.744 C 640.777 128.619 640.552 129.421 640.101 130.151 C 639.663 130.866 639.087 131.443 638.371 131.881 C 637.655 132.305 636.866 132.517 636.004 132.517 Z M 636.004 111.119 C 634.692 111.119 633.565 110.655 632.624 109.727 C 631.696 108.799 631.232 107.672 631.232 106.347 C 631.232 105.047 631.696 103.94 632.624 103.026 C 633.565 102.098 634.692 101.634 636.004 101.634 C 637.277 101.634 638.391 102.098 639.345 103.026 C 640.3 103.94 640.777 105.047 640.777 106.347 C 640.777 107.235 640.552 108.044 640.101 108.773 C 639.663 109.489 639.087 110.059 638.371 110.483 C 637.655 110.907 636.866 111.119 636.004 111.119 Z M 662.011 115.673 C 662.011 120.618 661.348 125.166 660.022 129.315 C 658.71 133.465 656.694 137.31 653.977 140.849 L 645.883 140.849 C 646.917 139.537 647.878 137.933 648.766 136.037 C 649.655 134.141 650.43 132.073 651.093 129.832 C 651.756 127.579 652.273 125.245 652.644 122.832 C 653.015 120.42 653.201 118.033 653.201 115.673 C 653.201 112.531 652.876 109.363 652.227 106.168 C 651.59 102.959 650.715 99.9896 649.602 97.2585 C 648.501 94.5142 647.262 92.267 645.883 90.517 L 653.977 90.517 C 656.694 94.0568 658.71 97.9015 660.022 102.051 C 661.348 106.201 662.011 110.741 662.011 115.673 Z" stroke-linecap="round" />
</g>
</g>
</g>
</svg>